<?xml version="1.0" encoding="iso-8859-1"?>
<!-- Generator: Adobe Illustrator 16.0.0, SVG Export Plug-In . SVG Version: 6.00 Build 0)  -->
<!DOCTYPE svg PUBLIC "-//W3C//DTD SVG 1.1//EN" "http://www.w3.org/Graphics/SVG/1.1/DTD/svg11.dtd">
<svg xmlns="http://www.w3.org/2000/svg" xmlns:xlink="http://www.w3.org/1999/xlink" version="1.1" id="Capa_1" x="0px" y="0px" width="512px" height="512px" viewBox="0 0 445.98 445.981" style="enable-background:new 0 0 445.98 445.981;" xml:space="preserve">
<g>
	<g>
		<path d="M18.334,343.143c-4.64,0.078-8.596,1.98-11.485,6.164H6.697v-19.859H0v54.625h6.316v-4.945h0.152    c1.369,2.201,4.183,6.083,10.953,6.083c13.54,0,17.498-12.705,17.498-22.213C34.919,351.821,28.908,343.143,18.334,343.143z     M17.269,379.435c-4.259,0-10.878-2.819-10.878-13.395c0-6.465,1.063-16.887,10.727-16.887c10.345,0,10.877,9.813,10.877,14.911    C27.995,372.806,24.573,379.435,17.269,379.435z" fill="#8a0b14"/>
		<path d="M69.988,377.149v-22.896c0-10.192-11.564-11.109-14.757-11.109c-9.815,0-16.128,3.728-16.433,13.239h6.165    c0.453-3.05,1.518-7.683,9.125-7.683c6.316,0,9.355,2.279,9.355,6.463c0,3.953-1.899,4.566-3.499,4.719l-11.03,1.364    c-11.104,1.373-12.094,9.134-12.094,12.482c0,6.841,5.171,11.482,12.473,11.482c7.761,0,11.791-3.649,14.376-6.464    c0.229,3.043,1.141,6.081,7.076,6.081c1.521,0,2.51-0.452,3.653-0.758v-4.87c-0.762,0.153-1.6,0.306-2.208,0.306    C70.824,379.505,69.988,378.819,69.988,377.149z M63.292,370.301c0,5.329-6.085,9.353-12.323,9.353    c-5.021,0-7.229-2.582-7.229-6.921c0-5.018,5.249-6.008,8.521-6.467c8.292-1.065,9.967-1.672,11.03-2.512V370.301z" fill="#8a0b14"/>
		<path d="M96.004,343.143c-6.847,0-10.574,4.64-12.02,6.766h-0.151v-5.623h-6.314v39.784h6.692v-21.682    c0-10.801,6.696-13.236,10.499-13.236c6.543,0,8.521,3.501,8.521,10.424v24.494h6.695v-27.081    C109.926,345.65,102.166,343.143,96.004,343.143z" fill="#8a0b14"/>
		<path d="M142.333,349.911h-0.152c-1.598-2.278-4.642-6.763-11.868-6.763c-10.572,0-16.582,8.673-16.582,19.854    c0,9.503,3.954,22.213,17.496,22.213c3.883,0,8.446-1.218,11.336-6.624h0.154v5.483h6.311v-54.622h-6.691v20.458H142.333z     M131.378,379.435c-7.304,0-10.727-6.629-10.727-15.37c0-5.101,0.533-14.913,10.881-14.913c9.658,0,10.723,10.424,10.723,16.889    C142.255,376.616,135.638,379.435,131.378,379.435z" fill="#8a0b14"/>
		<path d="M172.988,349.152c5.63,0,8.599,3.197,9.435,8.521h6.466c-0.533-6.921-4.49-14.53-14.91-14.53    c-13.16,0-19.093,9.813-19.093,22.136c0,11.487,6.617,19.932,17.799,19.932c11.641,0,15.521-8.905,16.204-15.215h-6.466    c-1.141,6.084-5.02,9.435-9.507,9.435c-9.203,0-10.88-8.449-10.88-15.292C162.036,357.062,164.698,349.152,172.988,349.152z" fill="#8a0b14"/>
		<path d="M222.738,377.149v-22.896c0-10.192-11.559-11.109-14.757-11.109c-9.813,0-16.126,3.728-16.431,13.239h6.163    c0.458-3.05,1.521-7.683,9.129-7.683c6.312,0,9.357,2.279,9.357,6.463c0,3.953-1.904,4.566-3.501,4.719l-11.028,1.364    c-11.109,1.373-12.097,9.134-12.097,12.482c0,6.841,5.171,11.482,12.475,11.482c7.759,0,11.791-3.649,14.376-6.464    c0.227,3.043,1.138,6.081,7.076,6.081c1.52,0,2.51-0.452,3.651-0.758v-4.87c-0.762,0.153-1.598,0.306-2.205,0.306    C223.579,379.505,222.738,378.819,222.738,377.149z M216.044,370.301c0,5.329-6.084,9.353-12.32,9.353    c-5.026,0-7.229-2.582-7.229-6.921c0-5.018,5.249-6.008,8.519-6.467c8.292-1.065,9.967-1.672,11.03-2.512V370.301z" fill="#8a0b14"/>
		<path d="M271.502,343.143c-6.163,0-8.825,2.737-12.172,6.469c-1.141-2.13-3.422-6.469-10.57-6.469    c-7.153,0-10.575,4.64-12.021,6.766h-0.152v-5.623h-6.31v39.784h6.694v-21.682c0-10.801,6.693-13.236,10.493-13.236    c4.945,0,6.236,4.032,6.236,7.379v27.539h6.697v-24.266c0-5.329,3.729-10.655,9.361-10.655c5.698,0,7.373,3.729,7.373,9.204    v25.715h6.692v-27.539C283.824,345.346,275.763,343.143,271.502,343.143z" fill="#8a0b14"/>
		<path d="M307.634,343.143c-7.227,0-10.265,4.489-11.863,6.766h-0.153v-5.623h-6.313v55.528h6.692v-19.928h0.155    c1.749,2.811,5.249,5.324,10.57,5.324c13.54,0,17.496-12.708,17.496-22.213C324.222,351.821,318.209,343.143,307.634,343.143z     M306.573,379.435c-4.263,0-10.878-2.819-10.878-13.395c0-6.465,1.062-16.887,10.726-16.887c10.347,0,10.878,9.813,10.878,14.911    C317.299,372.806,313.873,379.435,306.573,379.435z" fill="#8a0b14"/>
		<path d="M147.668,300.833c25.554,0,37.536-23.171,37.536-53.775c0-17.836-1.864-52.18-38.066-52.18    c-33.813,0-37.535,36.475-37.535,59.098C109.603,290.975,132.763,300.833,147.668,300.833z" fill="#8a0b14"/>
		<path d="M445.98,46.167H124.895l-36.862,79.752h22.629v69.488h0.535c10.112-14.639,23.956-21.296,40.197-21.564    c37.009,0,58.034,30.356,58.034,69.488c0,26.786-8.991,60.802-37.217,73.051h89.681c-23.885-9.826-37.446-34.318-37.446-65.071    c0-43.125,20.76-77.468,66.815-77.468c36.475,0,50.315,26.626,52.18,50.85h-22.626c-2.92-18.636-13.317-29.813-33.017-29.813    c-29.004,0-38.326,27.677-38.326,52.441c0,23.961,5.862,53.514,38.075,53.514c15.701,0,29.271-11.72,33.268-33.016h22.626    c-0.012,0.091-0.025,0.183-0.034,0.278L445.98,46.167z" fill="#8a0b14"/>
		<path d="M321.086,316.381l4.322-9.348c-3.941,3.736-8.646,6.943-14.22,9.348H321.086z" fill="#8a0b14"/>
		<polygon points="87.234,127.649 0,316.381 87.234,316.381   " fill="#8a0b14"/>
		<path d="M109.337,316.381h17.65c-9.129-4.653-14.119-11.783-17.12-16.619h-0.53V316.381z" fill="#8a0b14"/>
	</g>
</g>
<g>
</g>
<g>
</g>
<g>
</g>
<g>
</g>
<g>
</g>
<g>
</g>
<g>
</g>
<g>
</g>
<g>
</g>
<g>
</g>
<g>
</g>
<g>
</g>
<g>
</g>
<g>
</g>
<g>
</g>
</svg>
