<?xml version="1.0" standalone="no"?>
<!DOCTYPE svg PUBLIC "-//W3C//DTD SVG 20010904//EN"
 "http://www.w3.org/TR/2001/REC-SVG-20010904/DTD/svg10.dtd">
<svg version="1.0" xmlns="http://www.w3.org/2000/svg"
 width="900.000000pt" height="897.000000pt" viewBox="0 0 900.000000 897.000000"
 preserveAspectRatio="xMidYMid meet">
<metadata>
Created by potrace 1.10, written by Peter Selinger 2001-2011
</metadata>
<g transform="translate(0.000000,897.000000) scale(0.100000,-0.100000)"
fill="#000000" stroke="none">
<path d="M3895 8961 c9 -16 -13 -23 -94 -32 -42 -5 -117 -22 -166 -37 -50 -16
-115 -35 -145 -42 -30 -7 -86 -24 -125 -37 -38 -14 -88 -28 -110 -32 -22 -4
-49 -12 -60 -17 -72 -37 -88 -44 -100 -44 -15 0 -158 -69 -165 -80 -3 -5 -30
-19 -60 -32 -30 -14 -62 -33 -70 -42 -13 -16 -12 -20 3 -31 16 -11 16 -13 1
-19 -9 -3 -20 -3 -26 0 -5 4 -23 -3 -39 -15 -15 -11 -34 -21 -41 -21 -7 0 -22
-7 -32 -15 -11 -8 -26 -15 -34 -15 -8 0 -31 -13 -51 -29 -20 -15 -47 -32 -61
-36 -14 -4 -39 -17 -55 -30 -17 -12 -44 -25 -60 -29 -17 -4 -57 -31 -89 -61
-33 -30 -65 -55 -71 -55 -7 0 -20 -9 -30 -20 -11 -12 -46 -39 -79 -62 -34 -22
-74 -53 -91 -69 -58 -55 -132 -119 -139 -119 -9 0 -154 -107 -179 -132 -10
-10 -21 -18 -25 -18 -4 0 -30 -20 -57 -45 -29 -26 -71 -52 -100 -61 -27 -9
-54 -23 -58 -30 -4 -8 -19 -14 -32 -14 -13 0 -45 -16 -72 -36 -79 -59 -219
-208 -337 -359 -22 -27 -61 -72 -87 -100 -51 -54 -133 -154 -218 -264 -51 -66
-65 -88 -91 -136 -6 -11 -19 -33 -30 -50 -28 -42 -60 -107 -60 -124 0 -8 -11
-37 -24 -66 -26 -53 -40 -90 -80 -210 -50 -148 -85 -238 -95 -248 -6 -6 -11
-19 -11 -29 0 -15 -17 -61 -40 -108 -7 -15 -54 -153 -100 -295 -12 -38 -28
-95 -36 -125 -28 -119 -41 -166 -52 -187 -7 -12 -12 -40 -12 -62 0 -22 -5 -52
-11 -68 -6 -15 -17 -102 -25 -193 -29 -334 -34 -396 -43 -455 -13 -84 -12
-331 1 -385 5 -25 14 -108 18 -185 4 -77 12 -153 19 -168 6 -16 11 -43 11 -60
1 -18 7 -43 15 -57 8 -14 14 -47 15 -73 0 -26 6 -58 14 -70 8 -12 17 -39 21
-61 3 -21 10 -46 15 -55 12 -23 40 -117 40 -136 0 -13 16 -65 75 -245 8 -25
15 -56 15 -70 0 -14 7 -38 15 -54 8 -15 15 -35 15 -43 0 -8 6 -27 13 -41 31
-60 46 -99 52 -132 10 -50 36 -133 46 -144 5 -6 9 -19 9 -30 1 -64 137 -411
169 -431 6 -3 11 -13 11 -21 0 -7 15 -33 33 -57 17 -24 39 -54 47 -67 35 -53
98 -136 116 -152 10 -9 31 -21 46 -27 18 -7 28 -19 33 -43 12 -63 29 -94 101
-178 116 -138 226 -246 258 -254 27 -7 95 -53 121 -82 23 -25 210 -164 222
-164 3 0 41 -27 84 -60 42 -33 83 -60 89 -60 7 0 31 -12 54 -28 22 -15 60 -36
83 -46 27 -12 45 -28 51 -45 6 -17 35 -42 82 -71 40 -25 89 -60 108 -77 19
-18 38 -33 42 -33 3 0 24 -16 46 -35 53 -48 113 -81 161 -88 22 -4 74 -21 114
-38 82 -35 213 -79 238 -79 9 0 25 -7 35 -15 11 -8 31 -15 45 -15 14 0 58 -12
96 -26 39 -14 84 -29 100 -34 42 -11 95 -31 125 -47 14 -7 32 -13 41 -13 20 0
80 -27 127 -56 23 -15 57 -23 115 -27 45 -3 99 -13 119 -21 21 -9 49 -16 64
-16 27 0 106 -21 177 -46 20 -8 53 -14 73 -14 19 0 49 -8 67 -17 28 -15 71
-16 377 -15 504 3 682 7 710 19 58 25 251 56 440 72 47 4 94 12 105 18 27 14
117 43 135 43 8 0 27 6 41 14 15 7 55 23 90 35 66 22 77 26 142 55 21 9 45 16
53 16 9 0 28 6 42 14 32 16 110 49 242 101 52 21 102 44 111 51 8 8 21 14 28
14 18 0 161 71 161 81 0 4 20 21 46 38 32 22 57 31 86 31 63 0 148 30 198 70
25 19 56 43 70 52 14 8 70 60 126 115 55 55 113 108 130 119 16 10 50 35 75
56 25 21 49 38 55 38 5 0 36 18 69 40 61 41 172 167 200 227 8 17 44 60 80 95
43 41 78 87 102 133 20 39 60 98 90 133 29 35 53 66 53 70 0 4 14 21 30 39 16
18 41 52 54 78 14 25 43 68 65 97 23 28 41 55 41 60 0 5 9 19 21 31 12 12 32
46 46 76 13 29 50 97 82 150 31 53 61 103 65 111 4 8 12 24 19 35 7 11 34 57
60 102 27 45 59 93 73 105 13 13 24 34 24 48 0 14 7 36 15 50 8 14 14 38 15
54 0 35 36 113 101 222 27 45 49 89 49 99 0 9 5 26 11 37 6 11 15 44 19 72 14
86 37 155 66 193 24 32 26 41 21 97 -7 72 6 271 28 446 8 69 21 179 28 245 7
66 18 131 26 144 17 31 10 632 -9 701 -46 173 -63 242 -70 292 -4 31 -11 62
-15 68 -13 21 -36 150 -43 245 -4 50 -12 97 -17 105 -9 14 -21 61 -45 175 -5
28 -14 59 -19 70 -4 11 -16 45 -26 75 -60 184 -212 440 -262 440 -8 0 -25 25
-39 55 -14 30 -30 57 -35 60 -5 4 -9 17 -9 29 0 13 -8 34 -18 47 -11 13 -45
62 -78 109 -49 71 -58 92 -57 125 1 36 -3 42 -38 64 -76 48 -163 142 -182 198
-12 37 -39 75 -100 141 -45 49 -110 120 -144 158 -85 96 -106 117 -133 134
-37 24 -103 82 -143 127 -21 23 -86 79 -144 125 -58 46 -116 93 -128 106 -12
12 -28 22 -35 22 -7 0 -29 14 -50 30 -21 17 -44 30 -52 30 -7 0 -29 13 -48 30
-19 16 -39 29 -43 30 -8 0 -94 57 -107 70 -10 10 -121 86 -154 105 -19 11 -76
44 -126 73 -50 28 -94 52 -98 52 -4 0 -42 18 -84 40 -43 21 -117 56 -165 76
-48 20 -117 50 -153 66 -36 17 -78 36 -95 43 -88 39 -228 111 -237 122 -6 7
-21 13 -34 13 -12 0 -25 4 -28 8 -3 5 -45 19 -93 31 -48 12 -101 27 -118 32
-16 6 -122 15 -235 20 -113 5 -245 13 -295 18 -49 5 -224 10 -387 10 -163 1
-303 4 -312 7 -9 3 -16 12 -16 20 0 9 -12 14 -36 14 -19 0 -33 -4 -30 -9 3 -5
0 -14 -8 -20 -19 -16 -186 -3 -193 16 -3 7 -20 13 -40 13 -19 0 -32 -4 -28 -9z
m-779 -2065 c18 -14 18 -17 4 -43 -17 -31 -27 -33 -220 -52 -52 -6 -113 -16
-135 -24 l-40 -14 -6 -109 c-5 -100 -12 -135 -41 -219 -5 -16 -14 -46 -18 -65
-4 -19 -18 -60 -30 -90 -11 -30 -38 -107 -60 -170 -45 -135 -59 -169 -78 -192
-16 -19 -67 -24 -77 -8 -18 29 36 263 106 465 6 17 14 46 18 65 4 19 13 45 19
57 7 12 12 38 12 57 0 19 6 55 14 78 23 73 26 94 13 111 -11 16 -21 16 -127 2
-63 -8 -133 -14 -155 -14 -22 1 -58 0 -79 -1 -31 -3 -43 1 -58 19 -22 29 -23
64 -1 82 17 15 32 16 333 24 116 3 270 15 380 29 102 13 190 24 196 25 5 0 19
-5 30 -13z m726 -87 c19 -50 23 -121 7 -150 -9 -18 -39 -191 -39 -229 0 -24
195 -45 264 -27 47 12 49 14 63 62 7 28 18 79 23 115 19 124 59 267 77 274 7
3 23 -4 34 -15 23 -23 22 -64 -6 -164 -8 -27 -21 -95 -31 -150 -9 -55 -25
-136 -35 -180 -11 -44 -24 -127 -30 -185 -5 -58 -15 -118 -20 -135 -6 -16 -13
-73 -15 -125 -6 -119 -10 -136 -30 -144 -24 -9 -70 28 -80 66 -8 26 -5 49 12
104 12 40 25 105 29 145 4 41 14 98 22 127 17 62 11 98 -18 107 -11 4 -78 7
-149 8 -151 2 -156 -1 -191 -96 -13 -34 -29 -73 -36 -87 -7 -14 -13 -32 -13
-41 0 -8 -4 -19 -9 -25 -5 -5 -14 -25 -19 -44 -6 -19 -15 -48 -21 -65 -6 -16
-13 -42 -16 -57 -3 -15 -12 -34 -21 -42 -16 -17 -59 -22 -68 -8 -2 4 8 62 24
127 16 66 30 131 30 144 0 26 33 175 56 255 8 26 14 56 14 65 0 9 6 36 14 61
22 68 43 146 63 230 18 76 58 137 86 127 6 -2 20 -24 29 -48z m1833 24 l40 -8
3 -66 c2 -51 -1 -68 -12 -72 -8 -3 -86 5 -173 18 -87 14 -175 25 -195 25 -52
0 -68 -26 -68 -112 0 -36 -5 -79 -11 -95 -10 -26 -22 -80 -36 -159 -6 -40 5
-44 167 -44 96 -1 138 -5 180 -20 52 -18 55 -20 67 -67 7 -26 8 -52 4 -56 -5
-5 -59 -6 -122 -4 -85 3 -129 9 -173 25 -33 12 -82 22 -111 22 l-51 0 -12 -47
c-11 -45 -38 -209 -49 -295 l-5 -38 199 0 c204 0 223 -3 223 -40 0 -22 -50
-49 -113 -62 -28 -5 -121 -12 -204 -14 -146 -3 -153 -3 -173 18 -24 26 -25 49
-6 91 8 18 17 59 19 92 10 144 33 285 73 461 8 33 14 80 14 105 0 24 10 82 21
129 11 47 22 103 25 125 11 82 12 84 47 84 17 0 75 4 127 8 114 10 250 8 305
-4z m-4743 -1820 c24 -28 28 -59 29 -256 1 -166 -1 -194 -21 -259 -12 -40 -29
-98 -37 -128 -18 -63 -40 -126 -55 -155 -10 -17 -20 -57 -48 -180 -4 -22 -5
-44 -1 -48 9 -9 220 196 266 258 16 22 49 64 74 94 25 29 52 68 60 85 14 28
21 31 61 31 l45 0 6 -65 c3 -36 11 -75 17 -87 7 -12 12 -30 12 -41 0 -21 18
-86 50 -187 11 -33 25 -104 32 -158 9 -75 15 -97 26 -95 14 3 61 73 114 170
12 23 27 47 31 53 11 14 62 111 84 160 9 22 31 67 48 100 66 125 94 180 99
195 3 8 10 22 15 30 11 18 91 189 116 248 37 86 93 74 80 -18 -4 -25 -10 -49
-15 -55 -4 -5 -18 -35 -31 -65 -12 -30 -41 -86 -64 -125 -58 -97 -165 -315
-165 -335 0 -9 -7 -25 -15 -36 -8 -10 -15 -26 -15 -34 0 -8 -18 -46 -39 -83
-22 -37 -42 -76 -46 -87 -11 -35 -109 -193 -160 -258 -45 -58 -52 -63 -84 -60
-28 2 -41 11 -63 43 -24 36 -29 54 -39 170 -6 72 -17 173 -25 225 -34 240 -51
264 -117 163 -40 -60 -147 -180 -325 -363 -56 -58 -108 -120 -114 -137 -13
-35 -30 -41 -71 -22 -44 20 -52 49 -37 131 7 40 16 79 21 88 16 27 41 104 49
150 5 25 13 63 19 85 6 22 11 59 11 83 0 23 7 59 15 79 8 19 15 45 15 56 0 12
6 39 14 62 37 107 65 274 66 385 0 112 9 146 43 180 35 35 48 37 69 13z m3391
-89 c49 -25 66 -44 95 -104 24 -50 26 -64 24 -156 -2 -55 -7 -127 -13 -160 -5
-32 -13 -90 -18 -129 -5 -38 -15 -83 -21 -100 -6 -16 -16 -70 -20 -120 -14
-139 -36 -255 -60 -315 -12 -30 -24 -64 -28 -75 -3 -11 -16 -37 -29 -58 -13
-20 -40 -68 -59 -105 -65 -120 -154 -215 -219 -233 -79 -22 -201 13 -242 70
-10 14 -27 54 -36 89 -15 53 -16 76 -7 154 12 104 15 122 35 193 24 88 77 269
85 290 5 11 18 54 30 95 31 106 49 157 77 220 54 119 61 136 73 165 7 17 21
63 31 103 22 83 46 121 103 163 34 25 49 29 103 29 39 0 76 -6 96 -16z m1062
-64 c17 -19 17 -23 -4 -117 -29 -128 -52 -200 -111 -353 -12 -30 -24 -64 -27
-75 -3 -11 -11 -33 -18 -50 -38 -89 -45 -107 -45 -123 0 -10 -4 -22 -9 -28
-10 -9 -81 -219 -81 -237 0 -22 -75 -195 -102 -236 -39 -59 -32 -75 30 -67 26
4 67 9 92 11 25 3 87 10 138 16 97 11 171 5 176 -14 2 -7 8 -27 14 -45 10 -31
9 -34 -16 -43 -14 -6 -101 -10 -192 -10 -91 0 -205 -1 -253 -2 -86 -2 -90 -1
-113 26 -20 24 -23 35 -18 65 4 21 11 46 17 57 6 11 14 36 18 55 4 19 33 99
63 178 31 79 56 151 56 160 1 28 37 124 90 237 16 33 49 121 74 195 25 74 57
167 72 205 14 39 28 79 31 90 4 11 12 29 20 40 7 11 13 31 13 46 0 14 3 29 7
32 14 14 61 6 78 -13z m-2324 -2 c31 -9 47 -23 76 -67 l37 -56 2 -220 c0 -124
6 -231 11 -245 13 -31 -7 -87 -49 -141 -15 -20 -28 -40 -28 -43 0 -6 -16 -30
-117 -181 -18 -28 -33 -57 -33 -65 0 -8 -7 -24 -15 -34 -8 -11 -15 -36 -15
-55 0 -32 -9 -45 -79 -112 l-78 -76 -86 -8 c-75 -6 -91 -4 -138 16 -75 31
-114 62 -145 115 -25 42 -26 52 -22 132 7 117 26 183 97 332 74 156 178 332
357 601 48 71 111 116 168 118 10 1 36 -4 57 -11z m3333 -56 c77 -17 78 -18
93 -57 8 -22 16 -51 17 -65 1 -24 -2 -25 -64 -28 -39 -2 -90 4 -125 14 -101
28 -99 29 -107 -51 -5 -38 -15 -87 -23 -108 -8 -20 -15 -49 -15 -63 0 -27 -22
-102 -46 -162 -17 -41 -18 -82 -1 -83 6 0 46 0 87 1 42 1 88 -3 102 -9 32 -12
75 -98 58 -115 -15 -15 -96 -9 -145 9 -24 10 -63 15 -95 13 -59 -3 -56 0 -80
-103 -5 -22 -19 -83 -31 -135 -12 -52 -23 -126 -23 -165 l-1 -70 45 -5 c53 -6
253 4 292 15 21 5 29 3 34 -9 9 -22 -23 -86 -44 -87 -9 -1 -57 -3 -107 -5 -49
-2 -101 -4 -115 -5 -14 0 -43 1 -65 4 -22 3 -52 5 -67 6 -19 1 -32 11 -47 37
-19 31 -20 41 -11 70 7 19 16 67 20 107 28 231 50 370 76 462 45 164 97 412
101 485 7 111 17 120 128 119 44 0 115 -8 159 -17z m959 -59 c9 -27 20 -68 25
-93 6 -25 19 -81 30 -125 19 -77 34 -163 47 -287 4 -32 11 -61 17 -64 5 -3 19
-27 30 -53 18 -40 21 -64 20 -176 -2 -134 8 -183 27 -133 5 14 15 29 20 33 6
3 11 21 11 40 0 19 4 36 9 40 5 3 12 20 16 38 4 17 13 52 20 77 18 58 32 120
60 255 26 126 70 285 91 333 8 18 14 43 14 55 0 24 35 87 48 87 19 0 43 -40
44 -71 1 -19 -4 -86 -10 -149 -6 -63 -9 -130 -6 -150 4 -23 -2 -62 -15 -106
-11 -38 -23 -103 -27 -144 -4 -41 -13 -90 -20 -109 -8 -18 -14 -42 -14 -51 0
-10 -6 -31 -14 -47 -18 -37 -40 -88 -60 -140 -9 -24 -22 -60 -30 -80 -8 -21
-29 -77 -46 -125 -38 -104 -90 -172 -124 -162 -52 16 -63 39 -75 157 -6 62
-11 147 -11 187 0 41 -7 111 -16 155 -28 145 -45 229 -59 295 -8 36 -17 85
-20 110 -7 54 -29 123 -41 127 -5 2 -17 -18 -27 -45 -10 -26 -22 -54 -27 -64
-17 -31 -110 -315 -110 -334 0 -27 -30 -155 -43 -179 -5 -10 -15 -42 -22 -70
-7 -27 -20 -75 -30 -105 -9 -30 -19 -80 -22 -110 -6 -59 -17 -80 -41 -80 -49
0 -68 77 -35 142 9 18 20 40 24 50 14 29 37 131 45 193 6 55 46 185 80 262 8
17 14 38 14 47 0 8 6 33 14 53 13 36 28 87 57 193 7 25 16 72 19 105 10 83 37
200 55 235 13 26 21 30 54 30 38 0 40 -2 54 -47z m-4732 -1950 c6 -16 17 -41
24 -58 7 -16 16 -58 19 -91 5 -60 13 -100 37 -194 6 -25 15 -123 19 -218 4
-95 10 -175 13 -178 11 -12 37 13 95 91 33 44 98 121 144 170 45 50 110 127
142 172 43 57 71 86 98 98 21 9 43 25 48 35 26 49 68 64 104 37 18 -13 18 -16
-7 -58 -20 -36 -27 -67 -36 -164 -7 -66 -16 -149 -22 -185 -5 -36 -14 -92 -19
-125 -5 -33 -19 -157 -30 -275 -12 -118 -27 -244 -35 -280 -8 -39 -12 -89 -8
-126 4 -48 2 -63 -12 -77 -24 -25 -50 -21 -87 12 -30 27 -33 34 -31 83 1 29
11 98 23 153 12 55 27 129 34 165 7 36 16 71 20 78 4 7 11 49 17 95 11 104 33
245 49 319 20 90 8 99 -48 38 -26 -29 -51 -61 -57 -70 -5 -10 -35 -45 -65 -78
-58 -64 -120 -144 -120 -156 0 -15 -66 -95 -87 -105 -13 -6 -26 -25 -31 -43
-7 -30 -12 -33 -50 -36 -50 -4 -96 26 -112 72 -6 17 -15 125 -20 241 -15 323
-36 455 -73 455 -8 0 -17 -12 -20 -27 -2 -16 -15 -53 -27 -83 -12 -30 -25 -71
-29 -90 -4 -19 -13 -45 -19 -57 -7 -12 -12 -37 -12 -56 0 -19 -13 -69 -28
-113 -16 -43 -37 -110 -46 -149 -38 -149 -104 -360 -130 -409 -16 -32 -44 -55
-68 -56 -9 0 -28 14 -43 32 -21 25 -25 38 -21 64 6 27 50 136 101 249 12 26
28 68 76 205 6 19 16 44 20 55 22 52 67 188 104 310 15 50 38 118 51 152 30
78 109 203 129 203 9 0 20 -12 26 -27z m2004 -127 c53 -19 55 -49 5 -76 -52
-27 -198 -52 -337 -58 l-123 -4 -20 -33 c-11 -18 -20 -48 -20 -66 -1 -19 -7
-63 -15 -99 -8 -36 -14 -79 -15 -96 0 -17 -7 -45 -16 -62 -8 -18 -14 -46 -12
-64 l3 -33 140 -2 c144 -2 205 -9 205 -21 0 -4 -5 -24 -11 -44 -7 -29 -15 -38
-32 -39 -12 0 -62 -4 -112 -9 -91 -8 -177 2 -203 23 -11 8 -17 6 -25 -8 -33
-56 -129 -428 -131 -505 l-1 -35 73 -3 c41 -2 115 2 165 9 51 6 142 14 204 16
110 5 112 5 137 -20 38 -38 35 -81 -6 -108 -31 -19 -41 -20 -143 -12 -134 9
-398 9 -441 -1 -28 -7 -32 -5 -44 24 -13 32 -9 131 9 235 25 140 39 204 47
216 4 7 11 31 15 54 4 22 12 55 18 73 49 144 79 263 107 422 14 80 25 171 26
202 1 67 10 78 82 102 36 11 88 16 185 17 75 0 156 4 181 8 64 12 61 12 105
-3z m775 -59 c22 -17 50 -64 50 -82 0 -8 14 -44 30 -78 17 -35 30 -67 30 -71
0 -5 6 -22 14 -39 33 -75 124 -364 135 -427 4 -25 13 -63 18 -85 22 -81 33
-142 42 -228 5 -48 10 -90 13 -92 4 -4 31 84 63 200 25 91 47 170 61 210 8 23
14 50 14 62 0 12 5 25 10 28 6 3 10 13 10 22 0 9 8 34 19 57 40 87 51 117 51
134 0 10 5 23 11 29 6 6 15 29 20 50 27 128 59 236 73 252 26 29 75 46 88 33
9 -9 8 -18 0 -37 -7 -14 -12 -43 -12 -63 0 -21 -5 -43 -10 -48 -6 -6 -17 -48
-24 -95 -14 -85 -47 -196 -84 -281 -12 -26 -26 -69 -31 -95 -29 -138 -41 -183
-61 -233 -12 -30 -25 -73 -30 -95 -4 -22 -13 -69 -19 -105 -51 -266 -107 -389
-160 -348 -25 20 -31 31 -31 61 0 15 -7 42 -16 58 -9 18 -19 79 -25 146 -5 64
-13 132 -19 152 -11 43 -94 295 -108 331 -5 14 -17 50 -26 80 -35 121 -90 280
-96 280 -6 0 -36 -226 -43 -325 -2 -27 -12 -75 -21 -105 -9 -30 -21 -80 -27
-110 -7 -30 -15 -64 -20 -75 -18 -42 -41 -111 -48 -145 -8 -36 -15 -52 -63
-158 -15 -34 -28 -65 -28 -70 0 -4 -18 -27 -38 -51 -31 -35 -43 -42 -60 -37
-18 6 -22 15 -22 49 0 23 5 60 11 82 6 22 14 58 19 80 4 22 12 54 18 70 35
102 72 261 72 306 0 20 6 58 14 85 7 27 21 83 31 124 10 41 25 86 32 100 7 14
13 34 13 46 0 11 4 24 9 30 5 5 14 41 20 79 12 77 27 144 43 190 6 17 13 55
16 85 6 76 31 100 72 67z"/>
<path d="M4214 4821 c-58 -42 -78 -70 -98 -136 -10 -33 -25 -74 -32 -92 -8
-17 -14 -36 -14 -41 0 -11 -35 -74 -63 -112 -69 -97 -101 -158 -117 -222 -5
-18 -18 -58 -30 -88 -20 -53 -46 -132 -70 -215 -6 -22 -13 -110 -16 -195 -5
-149 -4 -156 18 -195 29 -49 77 -74 144 -75 96 0 184 84 239 230 9 25 21 53
26 62 19 38 49 124 49 143 0 11 11 65 25 120 13 55 29 132 34 170 5 39 14 90
20 115 21 94 34 209 38 328 4 112 2 126 -18 162 -18 32 -68 70 -92 70 -2 0
-22 -13 -43 -29z"/>
<path d="M2980 4793 c-44 -16 -104 -94 -164 -213 -35 -69 -80 -149 -100 -178
-19 -30 -42 -75 -50 -100 -8 -26 -24 -72 -36 -102 -11 -30 -25 -82 -30 -115
-6 -33 -14 -83 -19 -112 -5 -28 -11 -104 -13 -168 -3 -112 -2 -117 21 -136 18
-15 39 -19 91 -19 77 0 86 6 119 72 26 51 30 57 100 167 57 88 121 211 121
231 0 7 6 24 14 38 31 60 38 123 43 358 5 236 4 243 -16 263 -20 20 -50 25
-81 14z"/>
</g>
</svg>
