<?xml version="1.0" standalone="no"?>
<!DOCTYPE svg PUBLIC "-//W3C//DTD SVG 20010904//EN"
 "http://www.w3.org/TR/2001/REC-SVG-20010904/DTD/svg10.dtd">
<svg version="1.0" xmlns="http://www.w3.org/2000/svg"
 width="138.000000pt" height="196.000000pt" viewBox="0 0 138.000000 196.000000"
 preserveAspectRatio="xMidYMid meet">
<metadata>
Created by potrace 1.10, written by Peter Selinger 2001-2011
</metadata>
<g transform="translate(0.000000,196.000000) scale(0.050000,-0.050000)"
fill="#000000" stroke="none">
<path d="M328 3891 c-7 -16 -6 -38 0 -48 7 -11 5 -23 -5 -26 -9 -4 -22 -34
-29 -67 l-12 -60 25 55 c14 31 31 51 37 44 6 -6 15 21 20 60 8 71 -15 97 -36
42z"/>
<path d="M8 2010 c14 -1803 20 -2010 64 -2010 28 0 27 289 -5 1090 -19 463
-21 542 -37 1600 -8 528 -19 965 -24 970 -6 6 -5 -737 2 -1650z"/>
<path d="M1430 3499 c-9 -26 -2 -55 18 -77 18 -19 32 -41 32 -48 0 -22 -139
-73 -167 -62 -27 10 -183 -115 -283 -229 -33 -37 -73 -80 -90 -95 -125 -112
-183 -174 -265 -281 -52 -68 -95 -135 -95 -149 0 -14 -17 -44 -39 -67 -21 -22
-62 -88 -90 -146 -29 -58 -95 -148 -147 -200 -151 -152 -155 -159 -115 -204
19 -21 47 -33 63 -28 15 6 28 1 28 -11 0 -12 -9 -22 -20 -22 -11 0 -20 -35
-20 -79 0 -43 -8 -83 -17 -89 -10 -6 -23 -54 -30 -107 -6 -52 -17 -120 -25
-151 -11 -47 -6 -58 30 -68 31 -8 42 -25 40 -63 -9 -168 151 -576 271 -693 57
-55 203 -150 231 -150 18 0 41 -8 51 -17 73 -67 388 -141 594 -141 117 1 223
-5 236 -13 12 -7 55 0 96 17 40 17 114 41 164 54 136 34 301 172 352 294 33
80 52 91 113 68 74 -29 208 11 219 65 6 24 16 59 25 78 10 24 5 35 -16 35 -16
0 -34 -19 -41 -43 -9 -37 -21 -41 -85 -31 -117 19 -141 114 -30 114 66 0 102
33 102 93 0 24 9 50 20 57 32 20 23 50 -16 50 -36 0 -84 35 -84 62 0 7 27 18
60 25 48 10 60 22 60 63 0 27 9 50 20 50 12 0 10 16 -5 40 -13 22 -40 40 -59
40 -22 0 -40 20 -47 55 -6 30 -19 88 -28 129 -10 46 -8 81 5 94 40 40 39 225
-2 235 -40 11 -124 178 -125 250 0 26 -13 64 -29 85 -35 47 -20 78 32 61 25
-8 38 -2 38 17 0 29 -148 309 -181 343 -11 10 -19 40 -19 65 0 31 -15 49 -49
58 -27 6 -55 29 -62 50 -6 21 -28 38 -47 38 -53 0 -142 91 -142 144 0 63 -44
124 -224 314 -165 173 -186 185 -206 121z m173 -307 c13 8 16 -11 10 -50 -9
-56 -5 -61 38 -54 35 7 51 -2 61 -34 7 -24 23 -50 35 -58 12 -8 15 -21 6 -30
-9 -9 -33 4 -53 29 -42 52 -126 63 -107 14 7 -17 24 -27 38 -21 14 5 41 -8 60
-29 19 -21 64 -49 100 -62 68 -25 103 -86 63 -111 -12 -7 -25 -2 -30 11 -15
45 -39 4 -28 -50 9 -51 11 -52 38 -15 26 35 30 36 48 4 10 -19 32 -30 47 -24
37 14 151 -106 151 -158 0 -15 19 -45 42 -66 l42 -38 -67 -16 c-154 -38 -338
-44 -358 -12 -8 12 -32 17 -54 10 -27 -9 -44 -3 -52 19 -8 19 -22 25 -38 16
-14 -9 -43 -14 -65 -12 -22 2 -29 -1 -15 -7 14 -6 20 -20 14 -30 -6 -10 11
-18 39 -18 27 0 54 -7 59 -15 9 -15 -46 -24 -151 -26 -30 0 -60 -9 -67 -20 -6
-10 7 -19 30 -19 22 0 41 -10 41 -21 0 -12 -17 -16 -38 -10 -21 7 -44 3 -51
-8 -33 -53 -85 -60 -76 -10 11 57 -23 66 -53 14 -12 -19 -21 -24 -21 -11 -1
13 8 29 19 36 37 23 0 51 -40 30 -51 -27 -60 -25 -60 11 0 48 -51 89 -109 89
-33 0 -51 11 -51 31 0 35 -178 24 -201 -12 -7 -12 -14 11 -15 49 -3 85 20 105
68 57 34 -33 35 -33 20 15 -38 126 -40 154 -5 110 41 -52 83 -5 50 56 -18 33
-15 36 21 25 32 -10 39 -6 31 16 -14 35 23 63 42 31 10 -16 18 -16 28 0 7 12
37 24 67 26 62 5 74 36 14 36 -41 0 -55 48 -20 70 11 7 20 3 20 -9 0 -11 18
-21 40 -21 31 0 40 13 40 60 0 33 9 60 20 60 11 0 20 10 20 21 0 12 14 35 30
52 27 27 30 26 30 -2 0 -17 14 -31 30 -31 17 0 30 -9 30 -20 0 -11 10 -20 22
-20 13 0 18 18 12 40 -7 26 0 40 18 40 15 0 28 14 28 30 0 34 -31 40 -50 10
-7 -12 -22 -15 -33 -8 -11 7 0 23 26 37 26 13 52 17 58 8 5 -8 32 -4 60 10 40
21 52 21 65 -1 9 -15 26 -21 37 -14z m-528 -931 c154 -89 101 -202 -126 -270
-222 -66 -501 83 -404 216 62 85 415 121 530 54z m887 -44 c209 -111 120 -233
-162 -222 -245 10 -454 198 -263 236 29 6 76 18 103 28 103 35 202 22 322 -42z
m-601 -191 c59 -34 78 -64 91 -136 3 -22 21 -119 38 -215 55 -299 10 -518 -68
-331 -23 56 -29 60 -36 26 -24 -99 -126 -74 -126 31 0 72 -33 77 -63 10 -29
-64 -68 -77 -109 -37 -41 42 -24 195 33 308 22 42 53 128 69 191 45 172 82
206 171 153z m870 -61 c7 -30 22 -76 35 -101 17 -35 16 -61 -5 -110 -15 -35
-26 -100 -24 -143 1 -43 -7 -85 -20 -93 -12 -7 -15 -25 -6 -39 11 -19 20 -14
32 19 29 79 87 45 84 -48 -1 -44 8 -87 20 -96 13 -9 3 -11 -22 -4 -67 19 -58
-46 10 -73 54 -21 55 -21 10 -38 -45 -18 -45 -56 2 -116 34 -44 -34 -77 -87
-43 -20 13 -22 19 -5 20 14 0 25 10 25 21 0 12 -9 16 -20 9 -11 -7 -14 1 -8
19 17 43 -9 108 -30 75 -22 -36 -2 -145 29 -157 21 -8 22 -21 4 -59 -12 -28
-34 -45 -49 -39 -14 5 -26 -4 -26 -21 0 -19 10 -25 25 -16 14 8 -4 -14 -39
-48 -40 -39 -60 -75 -53 -94 8 -22 2 -27 -20 -18 -18 6 -50 -7 -77 -33 l-46
-44 45 10 c50 12 50 12 33 -34 -26 -66 -135 -103 -123 -42 5 28 2 57 -8 63
-15 9 -26 -34 -19 -77 1 -8 -11 -15 -28 -15 -36 0 -40 -33 -5 -47 14 -6 -2 -9
-35 -8 -33 2 -91 -13 -128 -31 -38 -19 -73 -30 -78 -25 -15 15 79 90 141 114
32 12 55 36 55 58 0 20 14 50 30 66 17 17 30 40 30 52 0 11 14 21 30 21 17 0
30 4 30 8 0 5 5 23 12 40 9 23 0 32 -30 32 -23 0 -42 11 -42 25 1 33 51 235
70 280 8 21 6 35 -8 35 -12 0 -22 -16 -23 -35 0 -33 -1 -33 -21 0 -11 19 -13
46 -5 60 9 14 17 34 19 45 2 11 10 54 18 95 10 50 7 75 -8 75 -12 0 -22 -9
-22 -20 0 -11 -9 -20 -20 -20 -33 0 -23 37 22 82 48 48 2 107 -67 86 -23 -7
-39 2 -47 26 -20 64 -39 92 -59 84 -10 -5 -17 -15 -14 -23 3 -8 -9 -15 -26
-15 -17 0 -26 9 -19 20 7 11 5 20 -4 20 -19 0 -64 135 -50 150 6 5 20 -10 32
-34 12 -23 35 -47 50 -52 15 -5 22 -1 16 9 -15 24 5 51 60 82 48 26 106 14
132 -28 23 -39 49 -33 64 13 15 47 61 53 77 10 15 -39 73 -16 73 30 0 20 -11
40 -25 45 -40 13 46 87 110 93 8 1 20 -23 26 -53z m-1711 -13 c0 -15 25 -35
55 -43 41 -12 46 -17 20 -24 -23 -5 -34 -26 -33 -61 2 -30 7 -39 11 -21 11 41
71 58 142 39 131 -35 72 -225 -71 -229 -47 -1 -59 -26 -69 -151 -6 -80 -55
-112 -55 -36 0 27 -13 55 -30 61 -40 15 -38 -26 3 -85 26 -38 28 -55 10 -85
-32 -51 -29 -97 6 -97 33 0 71 -59 71 -110 0 -29 -5 -29 -42 -3 -49 34 -103
129 -87 154 12 20 -41 132 -68 142 -10 4 -24 28 -32 55 -11 34 -9 43 9 32 14
-8 32 -3 42 12 27 43 21 58 -22 58 -22 0 -40 12 -40 27 0 18 16 24 50 18 49
-10 69 21 30 45 -11 7 -20 26 -20 42 0 17 9 25 20 18 12 -8 15 21 7 79 -11 84
-9 91 31 91 36 0 41 8 30 50 -8 31 -4 50 10 50 12 0 22 -13 22 -28z m440 -165
c0 -17 -18 -35 -40 -41 -41 -11 -48 -27 -41 -93 3 -30 -3 -32 -35 -15 -59 31
-46 115 26 160 65 40 90 37 90 -11z m-117 -443 c7 -102 19 -210 26 -240 70
-304 453 -500 625 -319 91 96 98 120 124 415 26 285 37 326 88 336 42 8 61
-152 50 -421 -10 -246 -43 -322 -230 -520 -59 -62 -349 -31 -394 42 -7 10 -35
25 -64 32 -29 7 -66 26 -81 42 -16 15 -45 40 -64 54 -41 29 -144 179 -179 261
-26 60 -34 477 -10 502 61 60 96 0 109 -184z m397 -120 c0 -9 -11 -27 -24 -40
-13 -13 -18 -29 -11 -36 16 -15 75 41 75 71 0 11 10 21 22 21 13 0 18 -18 12
-41 -9 -33 -2 -40 33 -35 32 4 52 -11 77 -62 38 -77 29 -117 -19 -78 -27 22
-29 20 -16 -20 8 -26 3 -70 -12 -104 -30 -68 -67 -81 -51 -19 9 34 6 37 -17
18 -37 -30 -74 53 -47 105 24 45 22 74 -2 36 -15 -23 -19 -18 -20 25 0 30 -9
55 -20 55 -21 0 -27 -35 -23 -124 2 -29 -7 -60 -19 -67 -29 -18 -58 28 -43 68
9 22 3 26 -22 17 -41 -16 -42 0 -2 40 17 17 25 36 19 43 -7 6 -20 -1 -30 -17
-25 -40 -44 -14 -53 69 -8 72 8 88 46 50 14 -14 29 -11 46 10 27 32 101 43
101 15z m-701 -266 c-12 -23 -18 -61 -12 -83 10 -37 8 -38 -19 -12 -32 32 -4
137 36 137 10 0 7 -19 -5 -42z m101 -137 c0 -10 18 -24 40 -31 41 -13 57 -70
20 -70 -11 0 -20 10 -20 22 0 12 -14 17 -31 10 -19 -7 -26 -3 -18 9 7 11 2 34
-12 50 -17 20 -17 29 -1 29 12 0 22 -8 22 -19z"/>
<path d="M1545 2869 c-33 -36 -32 -69 4 -69 37 0 49 22 33 63 -10 27 -16 28
-37 6z"/>
<path d="M960 2695 c0 -26 -10 -57 -22 -69 -28 -28 -6 -68 31 -54 30 12 38
141 9 159 -10 6 -18 -10 -18 -36z"/>
<path d="M1792 2508 c-10 -26 -19 -27 -41 -9 -23 19 -26 16 -17 -19 16 -59 95
-47 98 15 3 52 -22 60 -40 13z"/>
<path d="M629 2178 c-17 -27 3 -44 88 -78 72 -29 102 -10 103 65 0 41 -167 52
-191 13z"/>
<path d="M920 2122 c0 -34 3 -62 7 -62 4 0 35 10 70 22 61 21 88 78 38 78 -14
0 -45 6 -70 13 -40 10 -45 4 -45 -51z"/>
<path d="M1588 2177 c-15 -24 42 -77 84 -77 23 0 48 43 48 82 0 26 -115 22
-132 -5z"/>
<path d="M1832 2136 c-16 -82 6 -102 84 -74 74 25 77 33 29 71 -87 69 -100 69
-113 3z"/>
<path d="M1760 1782 c0 -10 27 -27 60 -39 62 -22 77 -8 36 33 -28 28 -96 32
-96 6z"/>
<path d="M272 3348 c-8 -21 -1 -48 17 -66 28 -27 31 -27 31 9 -1 63 -32 100
-48 57z"/>
<path d="M400 400 c-25 -46 -6 -51 45 -12 43 32 45 52 6 52 -16 0 -39 -18 -51
-40z"/>
</g>
</svg>
