<?xml version="1.0" standalone="no"?>
<!DOCTYPE svg PUBLIC "-//W3C//DTD SVG 20010904//EN"
 "http://www.w3.org/TR/2001/REC-SVG-20010904/DTD/svg10.dtd">
<svg version="1.0" xmlns="http://www.w3.org/2000/svg"
 width="300.000000pt" height="145.000000pt" viewBox="0 0 300.000000 145.000000"
 preserveAspectRatio="xMidYMid meet">
<metadata>
Created by potrace 1.10, written by Peter Selinger 2001-2011
</metadata>
<g transform="translate(0.000000,145.000000) scale(0.100000,-0.100000)"
fill="#000000" stroke="none">
<path d="M152 1358 c-7 -7 -12 -17 -12 -23 0 -7 -9 -20 -19 -29 -24 -22 -32
-63 -15 -77 9 -7 14 -8 14 -1 0 6 -6 12 -12 14 -7 3 -2 7 10 10 13 4 28 0 37
-9 8 -8 15 -10 15 -4 0 13 -38 34 -49 26 -5 -3 -8 3 -7 12 3 20 33 24 56 8 13
-9 13 -8 1 7 -7 10 -17 15 -22 12 -10 -6 -11 4 0 30 6 17 9 16 39 -9 18 -15
30 -30 27 -35 -3 -4 4 -6 15 -3 11 3 20 13 20 22 0 13 -2 13 -9 2 -5 -8 -14
-10 -21 -6 -9 6 -6 13 11 27 l24 19 -23 -6 c-13 -4 -29 -1 -37 5 -8 7 -15 9
-15 4 0 -5 -4 -3 -8 3 -6 10 -11 10 -20 1z m49 -25 c13 -16 12 -17 -3 -4 -10
7 -18 15 -18 17 0 8 8 3 21 -13z"/>
<path d="M2732 1350 c-16 -10 -33 -16 -36 -13 -3 4 -6 1 -6 -6 0 -8 8 -11 18
-9 15 4 18 1 14 -19 -3 -16 -7 -20 -12 -13 -5 8 -9 8 -13 -3 -3 -8 -3 -17 0
-20 9 -9 33 4 33 19 0 8 7 11 18 8 10 -4 13 -3 5 3 -6 4 -13 17 -15 28 -2 15
2 19 16 17 11 -2 15 1 11 7 -3 6 1 11 10 11 9 0 14 -3 12 -7 -3 -5 11 -9 30
-10 20 -1 41 -7 46 -12 6 -6 16 -11 22 -11 5 0 3 5 -5 10 -13 9 -13 10 0 10
34 1 -24 22 -69 25 -34 3 -57 -2 -79 -15z"/>
<path d="M263 1325 c0 -8 4 -12 9 -9 5 3 6 10 3 15 -9 13 -12 11 -12 -6z"/>
<path d="M294 1325 c2 -11 9 -19 15 -17 6 1 11 -2 11 -8 0 -5 -4 -10 -10 -10
-5 0 -10 -3 -10 -7 0 -5 15 -8 34 -8 27 0 32 3 24 13 -6 7 -13 10 -15 8 -3 -3
-16 7 -28 22 -20 23 -23 24 -21 7z"/>
<path d="M1455 1330 c-3 -6 1 -7 10 -4 9 4 15 2 13 -2 -5 -16 40 -66 45 -52 4
10 6 10 6 0 1 -7 -6 -20 -14 -29 -8 -8 -13 -19 -10 -24 4 -5 1 -9 -4 -9 -17 0
-13 -30 5 -37 22 -8 44 15 25 27 -10 6 -12 12 -5 22 17 22 11 52 -18 86 -28
33 -42 39 -53 22z m50 -30 c10 -11 16 -20 13 -20 -3 0 -13 9 -23 20 -10 11
-16 20 -13 20 3 0 13 -9 23 -20z m20 -118 c-3 -3 -11 0 -18 7 -9 10 -8 11 6 5
10 -3 15 -9 12 -12z"/>
<path d="M2795 1329 c-11 -17 1 -21 15 -4 8 9 8 15 2 15 -6 0 -14 -5 -17 -11z"/>
<path d="M1406 1301 c-16 -9 -32 -23 -34 -30 -3 -8 0 -11 7 -7 6 4 11 0 11 -9
0 -10 -5 -13 -12 -9 -9 5 -9 3 1 -9 7 -9 17 -14 22 -11 12 7 11 -3 -1 -26 -7
-14 -6 -20 7 -24 9 -4 18 -4 21 -1 3 3 0 5 -6 5 -7 0 -12 8 -12 18 0 14 2 15
10 2 5 -8 10 -10 10 -5 0 6 -7 21 -16 34 -14 19 -14 27 -4 47 7 13 17 21 21
18 4 -2 10 0 13 5 11 18 -9 18 -38 2z"/>
<path d="M2647 1305 c-8 -8 -17 -11 -21 -8 -14 14 -5 -22 10 -38 14 -15 14
-17 -3 -15 -10 0 -21 8 -24 16 -4 8 -7 1 -6 -18 0 -17 6 -37 14 -44 19 -15 49
-18 51 -4 10 63 9 74 -7 71 -31 -5 -33 8 -6 31 16 13 23 24 17 24 -6 0 -17 -7
-25 -15z m23 -64 c0 -5 -9 -19 -21 -32 -14 -17 -19 -19 -15 -7 6 19 -9 34 -17
18 -3 -6 -4 -5 -3 2 2 7 13 12 25 11 11 -2 21 2 21 7 0 6 2 10 5 10 3 0 5 -4
5 -9z"/>
<path d="M2823 1308 c-6 -7 -12 -20 -16 -29 -5 -14 0 -14 35 3 22 11 37 22 34
26 -4 3 -12 0 -18 -6 -7 -7 -18 -12 -26 -12 -12 0 -12 3 -2 15 7 8 10 15 7 15
-2 0 -9 -6 -14 -12z"/>
<path d="M1441 1281 c-25 -19 -24 -48 3 -70 20 -16 8 -51 -21 -62 -32 -12 -56
-12 -48 1 4 6 12 7 18 4 8 -4 7 -2 -1 7 -11 12 -14 12 -22 -1 -14 -21 -12 -30
4 -30 8 0 22 -3 32 -7 12 -4 15 -3 10 5 -5 8 6 10 39 7 27 -3 45 -1 45 6 0 5
-4 8 -9 5 -5 -3 -15 1 -22 10 -11 13 -9 23 11 60 24 44 24 44 5 64 -19 18 -21
19 -44 1z m39 -11 c9 -16 7 -24 -5 -37 -15 -15 -18 -15 -33 0 -14 15 -14 18 3
37 22 25 22 25 35 0z m-15 -120 c3 -5 -1 -10 -10 -10 -9 0 -13 5 -10 10 3 6 8
10 10 10 2 0 7 -4 10 -10z"/>
<path d="M2889 1295 c-1 -3 -2 -9 -3 -14 0 -5 -4 -13 -8 -16 -4 -4 -3 -16 2
-26 8 -14 6 -19 -11 -24 -15 -5 -18 -9 -9 -15 20 -12 3 -49 -20 -43 -11 3 -17
10 -13 16 3 6 1 7 -6 3 -9 -6 -9 -11 0 -22 17 -21 35 -17 53 11 9 14 14 25 10
25 -3 0 1 12 11 26 9 15 12 24 7 20 -6 -4 -10 2 -9 14 1 11 5 20 9 20 4 0 8 7
8 15 0 14 -18 22 -21 10z"/>
<path d="M1826 1272 c-6 -10 41 -56 68 -66 16 -5 16 -9 5 -24 -13 -15 -12 -16
4 -3 14 11 17 11 17 0 1 -9 4 -8 11 4 6 10 8 21 5 24 -3 4 -6 0 -6 -7 0 -9 -8
-6 -22 8 -13 11 -27 21 -33 21 -5 1 -10 7 -10 14 0 6 9 11 20 9 16 -2 17 -1 5
7 -26 15 -58 22 -64 13z m29 -12 c3 -5 1 -10 -4 -10 -6 0 -11 5 -11 10 0 6 2
10 4 10 3 0 8 -4 11 -10z"/>
<path d="M2753 1253 c0 -15 2 -20 7 -13 10 16 30 4 30 -18 0 -15 -2 -15 -11
-2 -9 13 -10 12 -5 -3 5 -15 2 -17 -14 -12 -12 4 -20 2 -20 -5 0 -7 -7 -9 -16
-6 -15 6 -15 4 -3 -10 13 -16 12 -17 -12 -11 -22 6 -25 3 -25 -15 1 -11 -5
-23 -13 -26 -8 -2 -11 0 -8 5 3 5 -5 10 -19 11 -13 1 -24 -3 -24 -9 0 -6 6 -9
14 -6 7 3 18 1 24 -5 13 -13 55 9 46 24 -4 7 -3 8 4 4 6 -4 17 2 24 14 7 11
20 20 28 20 9 0 21 5 28 12 14 14 16 48 3 48 -5 0 -16 7 -24 14 -13 13 -14 12
-14 -11z"/>
<path d="M372 1250 c-15 -24 -15 -30 -1 -30 5 0 7 5 4 10 -3 6 -2 10 3 10 18
0 21 -29 4 -39 -14 -8 -15 -12 -4 -22 6 -7 12 -10 12 -6 0 4 9 3 19 -3 14 -7
22 -7 26 1 4 6 13 8 21 5 8 -3 14 -1 14 5 0 6 5 7 10 4 6 -3 10 -1 10 5 0 12
-38 5 -54 -11 -5 -4 -18 -3 -28 2 -16 8 -17 13 -7 25 9 11 9 18 1 26 -6 6 -8
17 -5 24 8 21 -11 17 -25 -6z"/>
<path d="M2110 1260 c-8 -5 -7 -12 5 -24 9 -9 19 -16 23 -16 3 0 1 5 -6 12 -7
7 -12 15 -12 19 0 11 181 2 214 -10 26 -10 46 -8 35 3 -19 19 -233 32 -259 16z"/>
<path d="M235 1250 c-3 -5 1 -10 10 -10 9 0 13 5 10 10 -3 6 -8 10 -10 10 -2
0 -7 -4 -10 -10z"/>
<path d="M610 1244 c-79 -21 -80 -22 -28 -20 25 0 41 4 35 8 -10 6 41 5 97 -1
6 -1 1 -8 -10 -16 -18 -14 -17 -15 7 -6 17 6 30 6 36 0 13 -13 93 7 93 22 0
15 -47 29 -93 28 -46 -1 -38 -4 37 -14 31 -4 45 -10 36 -15 -7 -4 -22 -6 -34
-4 -12 1 -32 5 -46 7 -14 2 -35 9 -47 15 -12 7 -23 12 -25 11 -2 0 -28 -7 -58
-15z"/>
<path d="M1075 1242 c-14 -9 -17 -52 -4 -52 6 0 8 4 4 9 -3 5 -1 12 5 16 5 3
10 0 10 -7 0 -9 3 -9 10 2 20 32 4 53 -25 32z m25 -10 c0 -5 -7 -9 -15 -9 -8
0 -12 4 -9 9 3 4 9 8 15 8 5 0 9 -4 9 -8z"/>
<path d="M1652 1240 c-38 -9 -49 -17 -37 -27 4 -5 10 -2 12 5 8 21 19 13 21
-15 1 -21 -1 -24 -8 -13 -7 12 -9 10 -7 -7 0 -12 4 -20 8 -17 4 2 10 -2 12 -8
3 -7 4 4 3 25 -2 37 1 40 39 38 20 -1 20 -1 0 8 -20 8 -20 8 0 13 32 9 -7 7
-43 -2z"/>
<path d="M2710 1245 c0 -5 5 -17 10 -25 5 -8 10 -10 10 -5 0 6 -5 17 -10 25
-5 8 -10 11 -10 5z"/>
<path d="M286 1232 c-9 -15 4 -42 20 -42 17 0 17 10 0 33 -8 10 -17 14 -20 9z"/>
<path d="M1246 1233 c-3 -4 -16 -8 -28 -10 -12 -2 -27 -8 -33 -13 -7 -5 -16
-6 -20 -2 -5 4 -5 2 -2 -4 7 -11 53 -1 82 18 6 3 22 5 38 3 15 -2 25 1 21 6
-6 11 -48 12 -58 2z"/>
<path d="M1720 1228 c0 -5 7 -8 15 -4 8 3 15 1 15 -5 0 -6 4 -8 9 -5 5 4 12 0
14 -6 4 -9 6 -10 6 -1 1 14 -11 23 -39 28 -11 2 -20 -1 -20 -7z"/>
<path d="M1920 1236 c0 -2 7 -6 15 -10 8 -3 15 -1 15 4 0 6 -7 10 -15 10 -8 0
-15 -2 -15 -4z"/>
<path d="M1966 1232 c-3 -5 6 -7 20 -4 16 3 30 -1 36 -9 8 -12 9 -11 5 1 -4
17 -52 26 -61 12z"/>
<path d="M2165 1230 c-19 -8 -19 -9 3 -9 12 -1 22 4 22 9 0 6 -1 10 -2 9 -2 0
-12 -4 -23 -9z"/>
<path d="M2296 1229 c3 -5 10 -7 15 -4 5 4 9 -2 9 -12 0 -14 2 -15 9 -4 6 9
11 10 15 2 9 -13 26 -15 26 -2 0 5 -12 12 -27 16 -46 13 -53 14 -47 4z"/>
<path d="M2394 1233 c14 -4 15 -7 6 -13 -8 -5 -2 -11 19 -18 18 -7 29 -7 26
-2 -4 6 1 10 10 10 9 0 13 -4 10 -10 -3 -5 0 -11 7 -12 7 0 18 -2 23 -2 6 -1
16 -5 23 -9 6 -5 12 -4 12 1 0 8 -32 24 -108 53 -13 5 -28 8 -35 8 -7 -1 -3
-4 7 -6z"/>
<path d="M213 1214 c-4 -11 -8 -12 -13 -4 -6 10 -12 10 -26 0 -17 -10 -17 -11
-1 -6 11 3 20 0 23 -9 4 -8 10 -15 16 -15 5 0 7 4 4 9 -3 5 5 8 19 7 15 0 23
-6 21 -13 -3 -7 1 -10 10 -6 10 4 12 9 5 16 -5 5 -7 16 -4 23 4 10 -3 14 -21
14 -15 0 -29 -7 -33 -16z m39 -6 c-9 -9 -15 -9 -24 0 -9 9 -7 12 12 12 19 0
21 -3 12 -12z"/>
<path d="M849 1206 c-19 -13 -43 -26 -54 -29 -12 -3 -7 -5 12 -4 17 1 29 5 26
11 -4 5 1 7 11 3 17 -7 76 17 76 30 0 3 -3 3 -7 0 -3 -4 -11 -3 -18 3 -7 6
-23 2 -46 -14z m31 -6 c-24 -15 -36 -11 -14 4 10 8 21 12 24 10 2 -3 -2 -9
-10 -14z"/>
<path d="M930 1222 c0 -4 11 -9 25 -10 14 -1 25 3 25 8 0 6 -11 10 -25 10 -14
0 -25 -4 -25 -8z"/>
<path d="M1025 1220 c3 -5 8 -10 11 -10 2 0 4 5 4 10 0 6 -5 10 -11 10 -5 0
-7 -4 -4 -10z"/>
<path d="M1320 1219 c0 -7 3 -9 7 -6 3 4 15 -1 25 -10 15 -13 21 -14 31 -4 9
10 8 11 -7 5 -13 -5 -17 -4 -12 4 4 7 3 12 -3 12 -5 0 -16 3 -25 6 -10 4 -16
1 -16 -7z"/>
<path d="M2045 1220 c3 -5 8 -10 11 -10 2 0 4 5 4 10 0 6 -5 10 -11 10 -5 0
-7 -4 -4 -10z"/>
<path d="M527 1209 c7 -7 15 -10 18 -7 3 3 -2 9 -12 12 -14 6 -15 5 -6 -5z"/>
<path d="M659 1207 c6 -8 9 -17 6 -21 -3 -3 0 -2 6 3 12 10 4 31 -13 31 -7 0
-7 -4 1 -13z"/>
<path d="M1560 1205 c-10 -12 -9 -15 4 -15 10 0 15 4 12 9 -4 5 0 12 6 14 8 4
9 6 2 6 -6 1 -17 -6 -24 -14z"/>
<path d="M1988 1213 c7 -3 16 -2 19 1 4 3 -2 6 -13 5 -11 0 -14 -3 -6 -6z"/>
<path d="M2070 1211 c0 -15 29 -33 41 -25 9 5 7 11 -6 21 -22 15 -35 17 -35 4z
m35 -19 c-3 -3 -11 0 -18 7 -9 10 -8 11 6 5 10 -3 15 -9 12 -12z"/>
<path d="M2205 1211 c-3 -5 -1 -12 5 -16 5 -3 10 1 10 9 0 18 -6 21 -15 7z"/>
<path d="M2271 1213 c-1 -17 16 -25 25 -12 4 7 3 9 -4 5 -5 -3 -13 0 -15 6 -4
9 -6 10 -6 1z"/>
<path d="M2825 1211 c-3 -5 -1 -12 5 -16 5 -3 10 1 10 9 0 18 -6 21 -15 7z"/>
<path d="M625 1200 c3 -5 8 -10 11 -10 2 0 4 5 4 10 0 6 -5 10 -11 10 -5 0 -7
-4 -4 -10z"/>
<path d="M730 1190 c0 -19 3 -21 12 -12 9 9 9 15 0 24 -9 9 -12 7 -12 -12z"/>
<path d="M1670 1200 c0 -7 7 -10 15 -7 8 4 17 2 20 -3 4 -6 2 -10 -4 -10 -6 0
-15 -8 -20 -18 -7 -14 -6 -19 4 -19 7 0 11 6 8 14 -6 15 -2 16 21 7 9 -3 14
-9 12 -13 -3 -4 7 -7 22 -8 18 -1 22 1 11 5 -9 4 -15 15 -13 24 3 21 -1 23
-43 33 -23 4 -33 3 -33 -5z m67 -24 c0 -8 -6 -12 -14 -9 -7 3 -10 9 -7 14 8
14 21 11 21 -5z"/>
<path d="M1790 1200 c0 -5 5 -10 11 -10 5 0 7 5 4 10 -3 6 -8 10 -11 10 -2 0
-4 -4 -4 -10z"/>
<path d="M130 1180 c-6 -11 -8 -20 -6 -20 3 0 10 9 16 20 6 11 8 20 6 20 -3 0
-10 -9 -16 -20z"/>
<path d="M970 1192 c8 -2 22 -10 30 -17 8 -6 26 -12 40 -12 14 -1 20 1 13 4
-7 2 -10 10 -7 16 3 8 -11 13 -43 13 -27 1 -41 -1 -33 -4z m60 -12 c0 -5 -4
-10 -10 -10 -5 0 -10 5 -10 10 0 6 5 10 10 10 6 0 10 -4 10 -10z"/>
<path d="M1125 1190 c4 -6 11 -8 16 -5 14 9 11 15 -7 15 -8 0 -12 -5 -9 -10z"/>
<path d="M1240 1190 c-11 -8 -8 -9 14 -6 16 3 31 8 34 11 10 9 -33 5 -48 -5z"/>
<path d="M1304 1187 c-4 -7 -4 -9 1 -5 4 4 14 0 21 -10 10 -14 15 -15 26 -4
11 11 10 12 -6 6 -13 -5 -17 -4 -13 3 4 6 0 13 -8 17 -8 3 -17 0 -21 -7z"/>
<path d="M1822 1188 c6 -17 58 -23 58 -8 0 7 -7 10 -15 6 -8 -3 -15 -1 -15 4
0 6 -7 10 -16 10 -9 0 -14 -6 -12 -12z"/>
<path d="M2377 1193 c-14 -14 -7 -32 10 -26 11 4 13 8 5 11 -7 2 -10 8 -6 13
6 10 0 12 -9 2z"/>
<path d="M536 1173 c-4 -11 -1 -11 14 -3 24 13 25 17 5 17 -8 0 -16 -6 -19
-14z"/>
<path d="M1100 1180 c0 -5 5 -10 11 -10 5 0 7 5 4 10 -3 6 -8 10 -11 10 -2 0
-4 -4 -4 -10z"/>
<path d="M1190 1178 c-12 -8 -11 -9 4 -4 15 5 18 2 14 -19 -6 -30 -2 -32 11
-6 14 25 -7 45 -29 29z"/>
<path d="M1600 1183 c0 -4 5 -15 10 -23 8 -13 10 -13 10 2 0 9 -4 20 -10 23
-5 3 -10 3 -10 -2z"/>
<path d="M2125 1180 c-3 -5 1 -10 9 -10 9 0 16 5 16 10 0 6 -4 10 -9 10 -6 0
-13 -4 -16 -10z"/>
<path d="M2178 1183 c-10 -3 -18 -8 -18 -12 0 -9 37 -8 45 1 9 9 -7 15 -27 11z"/>
<path d="M2295 1181 c-6 -11 13 -26 22 -17 4 3 1 6 -6 6 -7 0 -9 5 -6 10 3 6
4 10 1 10 -3 0 -7 -4 -11 -9z"/>
<path d="M2415 1180 c-3 -5 -1 -10 4 -10 6 0 11 5 11 10 0 6 -2 10 -4 10 -3 0
-8 -4 -11 -10z"/>
<path d="M2590 1180 c0 -5 7 -10 16 -10 8 0 12 5 9 10 -3 6 -10 10 -16 10 -5
0 -9 -4 -9 -10z"/>
<path d="M156 1167 c-16 -12 -16 -14 -2 -26 8 -7 19 -10 24 -7 9 5 49 -31 45
-41 -1 -3 -7 -10 -15 -14 -7 -5 -8 -9 -3 -9 6 0 16 4 24 9 15 10 6 52 -12 48
-6 -1 -12 7 -14 18 -3 17 -2 18 7 5 10 -13 11 -13 7 0 -2 9 -13 14 -27 12 -14
-2 -20 0 -16 7 9 15 4 14 -18 -2z m14 -17 c0 -5 -2 -10 -4 -10 -3 0 -8 5 -11
10 -3 6 -1 10 4 10 6 0 11 -4 11 -10z"/>
<path d="M624 1168 c-4 -7 -4 -10 1 -6 4 4 15 2 24 -5 14 -11 14 -10 2 6 -16
20 -18 21 -27 5z"/>
<path d="M675 1170 c-3 -5 1 -10 9 -10 10 0 13 -6 10 -15 -4 -10 0 -15 12 -14
11 0 14 3 6 6 -6 2 -10 8 -7 13 3 4 -2 13 -9 19 -10 8 -16 9 -21 1z"/>
<path d="M755 1170 c-3 -5 -1 -10 4 -10 6 0 11 5 11 10 0 6 -2 10 -4 10 -3 0
-8 -4 -11 -10z"/>
<path d="M879 1175 c-1 -3 -2 -11 -3 -17 0 -7 -10 -14 -21 -16 -11 -2 -25 -8
-32 -14 -6 -5 -30 -9 -52 -10 -23 0 -44 -4 -46 -8 -3 -5 10 -7 29 -6 54 5 59
-3 55 -90 l-4 -79 45 -1 c25 -1 35 0 22 3 -12 2 -20 8 -17 13 3 5 19 5 35 0
16 -5 55 -5 87 0 32 4 77 6 100 5 24 -2 45 0 48 5 3 4 -39 7 -92 4 -124 -4
-156 -4 -161 0 -2 2 4 21 13 41 8 21 13 40 11 42 -2 3 2 20 10 39 8 20 10 34
4 34 -5 0 -10 -9 -10 -21 0 -11 -4 -18 -8 -15 -4 2 -12 -11 -18 -29 -6 -19 -7
-32 -2 -29 4 3 8 0 8 -5 0 -6 -4 -11 -10 -11 -5 0 -13 -15 -18 -32 -10 -39
-36 -44 -39 -8 l-2 25 9 -25 c5 -16 6 4 3 53 -5 68 -4 79 13 91 10 8 23 11 29
6 6 -4 16 -2 23 6 9 10 10 14 1 14 -7 0 -5 8 6 20 16 18 16 20 2 20 -10 0 -18
-2 -18 -5z"/>
<path d="M963 1159 c-2 -19 22 -38 33 -26 6 6 -17 47 -26 47 -3 0 -6 -9 -7
-21z"/>
<path d="M1070 1169 c0 -5 5 -7 10 -4 6 3 10 8 10 11 0 2 -4 4 -10 4 -5 0 -10
-5 -10 -11z"/>
<path d="M1572 1153 c-1 -22 0 -24 8 -13 12 18 13 40 2 40 -4 0 -9 -12 -10
-27z"/>
<path d="M1937 1166 c-22 -17 -10 -27 18 -15 11 4 14 8 7 8 -7 1 -10 6 -7 11
8 13 4 12 -18 -4z"/>
<path d="M2029 1178 c-7 -23 -4 -35 7 -35 10 0 11 4 3 13 -7 9 -5 14 8 17 17
4 17 5 1 6 -10 0 -18 0 -19 -1z"/>
<path d="M2240 1173 c0 -5 -10 -15 -22 -21 -13 -6 -18 -11 -12 -11 16 -1 50
27 41 35 -4 4 -7 3 -7 -3z"/>
<path d="M2271 1168 c-1 -10 -6 -18 -12 -18 -5 0 -7 -5 -3 -11 9 -15 28 16 20
34 -2 7 -5 4 -5 -5z"/>
<path d="M2445 1170 c3 -6 13 -10 21 -10 8 0 14 -4 14 -10 0 -5 10 -10 23 -10
22 0 22 0 -3 13 -41 21 -62 28 -55 17z"/>
<path d="M2548 1173 c6 -2 18 -2 25 0 6 3 1 5 -13 5 -14 0 -19 -2 -12 -5z"/>
<path d="M295 1160 c-3 -5 -1 -19 6 -31 10 -20 13 -20 20 -6 6 9 17 14 27 11
14 -5 14 -4 2 4 -9 7 -18 8 -26 1 -14 -12 -29 5 -19 21 3 6 4 10 1 10 -3 0 -8
-4 -11 -10z"/>
<path d="M1271 1165 c-1 -18 14 -31 36 -31 12 0 19 4 17 8 -3 4 -14 8 -24 8
-10 0 -21 6 -23 13 -3 6 -6 8 -6 2z"/>
<path d="M1533 1162 c-14 -2 -21 -10 -20 -22 1 -10 5 -16 9 -14 5 3 6 10 3 15
-3 5 0 6 8 3 8 -3 18 0 22 6 9 14 5 17 -22 12z"/>
<path d="M1983 1155 c0 -8 4 -12 9 -9 5 3 6 10 3 15 -9 13 -12 11 -12 -6z"/>
<path d="M2756 1162 c-3 -2 -2 -11 1 -20 4 -10 2 -13 -5 -8 -6 3 -13 2 -17 -4
-4 -6 -11 -8 -16 -5 -14 9 -32 -41 -25 -70 4 -14 12 -25 19 -24 33 4 36 -3 10
-26 -19 -17 -22 -23 -9 -19 15 6 17 3 12 -13 -4 -13 -2 -20 8 -20 11 0 12 6 6
23 -6 14 -5 26 0 29 5 3 11 -5 13 -17 3 -13 4 -4 4 19 0 23 -5 39 -10 36 -11
-7 -47 26 -47 44 0 8 4 11 10 8 6 -3 7 1 4 10 -4 9 -3 15 2 14 5 -1 11 -1 14
1 26 10 49 8 44 -4 -3 -7 7 -21 21 -30 25 -17 25 -16 13 3 -6 11 -15 18 -20
15 -4 -3 -6 10 -5 29 2 22 -1 34 -10 34 -7 0 -15 -2 -17 -5z"/>
<path d="M236 1152 c-3 -5 1 -15 9 -22 20 -16 19 -47 -1 -58 -12 -7 -13 -11
-5 -17 18 -10 37 1 44 24 3 13 1 19 -5 15 -6 -4 -8 1 -4 13 7 21 -27 62 -38
45z m25 -19 c13 -16 12 -17 -3 -4 -17 13 -22 21 -14 21 2 0 10 -8 17 -17z"/>
<path d="M369 1146 c14 -17 81 -20 81 -4 0 5 -11 6 -24 2 -13 -3 -35 0 -48 7
-21 11 -22 11 -9 -5z"/>
<path d="M1115 1151 c-3 -5 -2 -12 3 -15 5 -3 9 1 9 9 0 17 -3 19 -12 6z"/>
<path d="M1800 1158 c0 -2 9 -11 20 -21 11 -9 20 -13 20 -7 0 5 -9 14 -20 20
-11 6 -20 9 -20 8z"/>
<path d="M2117 1149 c7 -7 15 -10 18 -7 3 3 -2 9 -12 12 -14 6 -15 5 -6 -5z"/>
<path d="M590 1140 c-9 -6 -10 -10 -3 -10 6 0 15 5 18 10 8 12 4 12 -15 0z"/>
<path d="M628 1138 c5 -5 16 -8 23 -6 8 3 3 7 -10 11 -17 4 -21 3 -13 -5z"/>
<path d="M756 1138 c7 -11 34 -10 34 1 0 6 -9 9 -19 8 -11 0 -17 -5 -15 -9z"/>
<path d="M800 1140 c0 -5 5 -10 11 -10 5 0 7 5 4 10 -3 6 -8 10 -11 10 -2 0
-4 -4 -4 -10z"/>
<path d="M1018 1138 c5 -5 16 -8 23 -6 8 3 3 7 -10 11 -17 4 -21 3 -13 -5z"/>
<path d="M1870 1142 c0 -4 9 -8 20 -9 11 -1 20 2 20 8 0 5 -9 9 -20 9 -11 0
-20 -4 -20 -8z"/>
<path d="M2060 1146 c0 -2 11 -6 25 -8 13 -3 22 -1 19 3 -5 9 -44 13 -44 5z"/>
<path d="M2310 1146 c0 -2 7 -7 16 -10 8 -3 12 -2 9 4 -6 10 -25 14 -25 6z"/>
<path d="M2550 1146 c0 -2 7 -6 15 -10 8 -3 15 -1 15 4 0 6 -7 10 -15 10 -8 0
-15 -2 -15 -4z"/>
<path d="M368 1109 c18 -5 30 -13 28 -18 -3 -4 7 -6 22 -2 25 5 25 6 4 9 -12
2 -20 8 -17 13 4 5 -11 9 -32 8 l-38 -1 33 -9z"/>
<path d="M445 1110 c16 -5 33 -6 37 -2 4 4 -9 9 -30 9 -37 2 -37 2 -7 -7z"/>
<path d="M500 1113 c0 -5 16 -8 35 -9 19 0 35 3 35 8 0 4 -16 8 -35 8 -19 0
-35 -3 -35 -7z"/>
<path d="M590 1110 c0 -5 5 -10 10 -10 6 0 10 5 10 10 0 6 -4 10 -10 10 -5 0
-10 -4 -10 -10z"/>
<path d="M625 1110 c-3 -4 6 -15 19 -23 17 -12 22 -22 19 -41 -4 -20 -1 -26
12 -26 20 0 17 -31 -4 -38 -9 -3 -11 0 -6 8 5 8 4 11 -3 6 -5 -3 -13 0 -15 6
-4 10 -6 10 -6 1 -1 -7 9 -19 22 -27 33 -22 64 -83 49 -98 -7 -7 -12 -17 -12
-23 0 -5 5 -3 10 5 8 13 10 12 10 -2 0 -10 8 -18 17 -18 9 0 14 -3 10 -6 -3
-4 -19 -2 -34 3 -20 7 -38 6 -62 -4 -18 -8 -31 -17 -28 -20 4 -3 14 -2 24 2
16 7 59 12 138 15 16 1 17 3 5 10 -13 8 -13 10 2 10 9 0 19 -6 21 -12 4 -10 6
-10 6 -1 1 7 9 10 19 7 15 -5 15 -4 -1 6 -11 7 -33 9 -59 5 -45 -8 -63 6 -47
36 6 11 5 20 -1 24 -6 3 -6 15 0 29 10 28 -12 124 -32 138 -10 8 -10 11 0 15
17 7 15 20 -3 20 -20 0 -19 -20 5 -64 22 -41 30 -146 8 -108 -6 11 -15 23 -20
26 -6 3 -3 9 5 12 9 3 13 14 10 31 -3 16 -10 23 -20 19 -11 -4 -13 0 -8 20 4
13 2 28 -4 31 -5 4 -8 12 -5 19 5 14 -32 21 -41 7z"/>
<path d="M845 1103 c-4 -10 -9 -34 -11 -53 -3 -28 -1 -25 11 15 14 49 14 72 0
38z"/>
<path d="M930 1110 c0 -5 5 -10 10 -10 6 0 10 5 10 10 0 6 -4 10 -10 10 -5 0
-10 -4 -10 -10z"/>
<path d="M960 1110 c0 -6 14 -9 30 -8 17 1 30 6 30 10 0 4 -13 8 -30 8 -16 0
-30 -5 -30 -10z"/>
<path d="M1043 1113 c9 -2 25 -2 35 0 9 3 1 5 -18 5 -19 0 -27 -2 -17 -5z"/>
<path d="M1178 1113 c7 -3 16 -2 19 1 4 3 -2 6 -13 5 -11 0 -14 -3 -6 -6z"/>
<path d="M1266 1108 c5 -8 103 -3 111 6 3 2 -22 4 -55 3 -33 -1 -58 -5 -56 -9z"/>
<path d="M1465 1110 c3 -5 8 -10 11 -10 2 0 4 5 4 10 0 6 -5 10 -11 10 -5 0
-7 -4 -4 -10z"/>
<path d="M1520 1109 c-19 -6 -13 -8 23 -4 46 5 47 4 36 -17 -9 -16 -13 -18
-20 -7 -4 7 -12 10 -16 5 -4 -5 -2 -11 5 -13 20 -8 14 -51 -9 -64 -12 -6 -18
-14 -13 -18 23 -15 8 -36 -24 -36 -22 0 -39 -7 -48 -19 -22 -31 -16 -42 7 -12
12 15 24 25 26 22 3 -3 -4 -17 -16 -32 -26 -34 -27 -49 -2 -27 11 9 18 20 15
25 -3 4 5 12 18 17 26 10 71 56 84 86 4 11 9 39 9 63 2 39 0 42 -24 41 -14 -1
-37 -5 -51 -10z m51 -98 c-12 -22 -24 -41 -26 -41 -3 0 1 13 10 30 8 16 15 39
15 52 0 16 3 19 11 11 8 -8 5 -22 -10 -52z"/>
<path d="M1618 1113 c6 -2 18 -2 25 0 6 3 1 5 -13 5 -14 0 -19 -2 -12 -5z"/>
<path d="M1668 1113 c7 -3 16 -2 19 1 4 3 -2 6 -13 5 -11 0 -14 -3 -6 -6z"/>
<path d="M1708 1113 c6 -2 18 -2 25 0 6 3 1 5 -13 5 -14 0 -19 -2 -12 -5z"/>
<path d="M1825 1104 c15 -6 31 -17 36 -25 7 -11 9 -9 9 8 0 12 8 23 18 26 9 2
-7 4 -36 3 -49 -1 -51 -2 -27 -12z"/>
<path d="M1946 1111 c-3 -3 23 -6 57 -5 60 1 61 1 38 -17 -13 -11 -32 -19 -42
-19 -11 0 -30 -17 -46 -41 -22 -34 -24 -42 -12 -50 8 -5 29 -8 47 -5 36 5 39
-1 16 -30 -14 -18 -14 -18 -3 6 l12 25 -24 -25 c-19 -19 -21 -27 -12 -33 7 -4
18 -5 24 -2 12 8 55 102 73 160 l13 40 -69 2 c-37 1 -70 -2 -72 -6z m115 -35
c-6 -8 -11 -18 -9 -22 1 -5 -6 -22 -16 -39 -9 -16 -14 -21 -11 -10 16 45 17
55 6 55 -7 0 -10 -4 -7 -9 10 -16 -19 -60 -44 -65 -33 -6 -44 6 -24 30 15 18
15 18 4 -3 -7 -16 -7 -23 0 -23 5 0 11 8 11 18 1 9 2 24 3 32 0 8 8 14 16 13
8 -2 29 8 45 21 31 25 46 27 26 2z"/>
<path d="M2118 1113 c7 -3 16 -2 19 1 4 3 -2 6 -13 5 -11 0 -14 -3 -6 -6z"/>
<path d="M2176 1111 c-8 -12 -3 -61 5 -61 4 0 12 14 18 30 8 24 16 30 40 30
37 0 37 -2 10 -39 -22 -31 -27 -113 -10 -181 l9 -35 1 35 c1 26 4 31 11 19 14
-23 1 -59 -22 -59 -10 0 -16 4 -13 10 3 6 -1 7 -10 4 -30 -12 -63 5 -70 36 -6
30 -21 47 -32 37 -11 -11 9 -89 25 -94 9 -4 17 -2 19 4 3 8 14 8 36 2 48 -14
68 -11 74 10 5 20 35 39 30 19 -2 -11 55 -36 86 -37 9 -1 17 4 17 10 0 6 -9 8
-21 4 -14 -5 -19 -3 -15 3 8 13 -29 26 -45 16 -8 -4 -9 -3 -5 4 7 11 -51 48
-68 44 -10 -3 -4 134 7 144 14 14 21 -7 9 -26 -7 -11 -11 -39 -11 -62 l2 -43
6 49 c5 33 15 55 30 67 13 11 17 19 10 19 -11 0 -11 2 0 13 10 9 15 9 18 0 3
-8 11 -7 31 3 15 8 33 14 40 14 6 0 12 4 12 10 0 6 -11 5 -27 -3 -21 -9 -27
-9 -31 1 -3 9 -14 5 -38 -13 l-35 -27 7 27 c6 25 5 26 -32 23 -29 -2 -42 -9
-52 -28 l-13 -25 4 28 c4 28 2 34 -7 18z m-35 -236 c6 -20 6 -26 -1 -19 -5 5
-12 25 -15 44 -5 36 -1 29 16 -25z"/>
<path d="M2482 1107 c13 -4 31 -6 40 -3 10 2 21 0 24 -6 3 -5 14 -8 24 -5 23
6 45 -33 35 -62 -3 -11 -3 -21 2 -21 13 0 15 58 2 66 -8 4 -7 9 2 15 11 7 10
9 -4 9 -10 0 -16 4 -13 8 2 4 -27 8 -65 8 -49 0 -63 -3 -47 -9z m95 -3 c-3 -3
-12 -4 -19 -1 -8 3 -5 6 6 6 11 1 17 -2 13 -5z"/>
<path d="M2620 1113 c13 -6 13 -100 0 -108 -5 -3 -10 -12 -9 -18 0 -9 2 -8 6
1 2 6 9 9 14 6 6 -3 9 18 7 57 -2 41 -7 63 -16 65 -7 1 -8 0 -2 -3z"/>
<path d="M1240 1094 c0 -8 -4 -12 -10 -9 -5 3 -10 1 -10 -4 0 -6 -7 -11 -15
-11 -19 0 -19 -14 0 -30 9 -7 15 -22 13 -33 -3 -21 -35 -32 -53 -17 -5 4 -28
4 -50 0 l-40 -8 40 -1 c44 0 82 -6 112 -15 17 -6 20 -1 21 36 2 47 -6 48 -10
1 -1 -18 -5 -30 -9 -28 -3 3 -4 16 -1 31 3 16 -1 30 -9 35 -12 8 -12 10 1 18
10 7 17 6 22 -2 4 -7 8 2 8 21 0 17 -2 32 -5 32 -3 0 -5 -7 -5 -16z"/>
<path d="M1400 1100 c0 -5 5 -10 10 -10 6 0 10 5 10 10 0 6 -4 10 -10 10 -5 0
-10 -4 -10 -10z"/>
<path d="M2745 1100 c3 -5 8 -10 11 -10 2 0 4 5 4 10 0 6 -5 10 -11 10 -5 0
-7 -4 -4 -10z"/>
<path d="M300 1084 c0 -11 -6 -26 -12 -33 -10 -11 -10 -13 0 -7 11 7 17 -12
13 -37 -1 -5 3 -6 7 -3 5 3 8 24 6 47 -4 44 -14 67 -14 33z"/>
<path d="M341 996 l1 -104 29 33 c16 18 29 40 29 49 0 9 6 16 13 16 6 1 0 7
-15 16 -28 15 -48 42 -48 66 0 9 3 9 10 -2 8 -13 10 -13 10 1 0 9 -7 20 -15
23 -14 5 -16 -8 -14 -98z m52 -13 c-6 -14 -34 -26 -42 -17 -3 3 3 12 13 20 17
12 18 14 3 14 -9 0 -17 7 -17 15 0 14 3 13 24 -2 13 -10 21 -23 19 -30z m-19
-37 c-10 -8 -21 -12 -24 -10 -5 6 21 24 34 24 6 0 1 -6 -10 -14z"/>
<path d="M1444 1089 c15 -9 16 -13 5 -20 -11 -7 -10 -9 3 -9 10 0 26 -10 38
-22 11 -12 20 -20 21 -17 1 2 2 18 4 36 2 26 -1 31 -16 30 -11 -1 -19 -5 -19
-10 0 -5 7 -6 16 -3 8 3 12 2 9 -4 -10 -17 -33 -11 -40 10 -3 11 -14 20 -23
20 -15 -1 -15 -2 2 -11z"/>
<path d="M1750 1090 c-9 -6 -10 -10 -3 -10 6 0 15 5 18 10 8 12 4 12 -15 0z"/>
<path d="M2146 1087 c3 -10 9 -15 12 -12 3 3 0 11 -7 18 -10 9 -11 8 -5 -6z"/>
<path d="M162 1062 c-12 -36 -6 -44 8 -9 7 17 9 18 9 5 1 -10 6 -18 11 -18 14
0 13 13 -3 35 -13 17 -15 16 -25 -13z"/>
<path d="M1017 1070 c3 -11 12 -20 19 -20 11 0 10 5 -3 20 -10 11 -18 20 -19
20 -1 0 0 -9 3 -20z"/>
<path d="M1073 1083 c9 -2 23 -2 30 0 6 3 -1 5 -18 5 -16 0 -22 -2 -12 -5z"/>
<path d="M1128 1083 c7 -3 16 -2 19 1 4 3 -2 6 -13 5 -11 0 -14 -3 -6 -6z"/>
<path d="M1337 1084 c-4 -4 -7 -11 -7 -16 0 -13 50 -6 53 7 2 12 -36 19 -46 9z
m36 -11 c-7 -2 -19 -2 -25 0 -7 3 -2 5 12 5 14 0 19 -2 13 -5z"/>
<path d="M1700 1079 c0 -5 -5 -7 -10 -4 -6 3 -14 -4 -19 -17 -5 -15 -5 -25 2
-30 15 -9 27 0 27 19 0 9 8 22 18 29 16 13 16 13 0 14 -10 0 -18 -5 -18 -11z
m-13 -41 c-3 -8 -6 -5 -6 6 -1 11 2 17 5 13 3 -3 4 -12 1 -19z"/>
<path d="M1761 1069 c-13 -10 -29 -19 -37 -19 -8 0 -14 -4 -14 -9 0 -5 8 -7
18 -5 22 6 68 41 62 47 -3 3 -16 -3 -29 -14z"/>
<path d="M2736 1077 c3 -10 9 -15 12 -12 3 3 0 11 -7 18 -10 9 -11 8 -5 -6z"/>
<path d="M498 1072 c-10 -2 -18 -10 -18 -18 0 -13 2 -13 16 0 22 22 41 20 21
-2 -10 -10 -17 -22 -17 -25 0 -9 38 -3 47 8 5 4 2 5 -4 1 -8 -4 -13 -1 -13 7
0 8 9 17 20 20 11 3 20 1 20 -5 0 -5 5 -6 10 -3 6 3 10 1 10 -5 0 -6 4 -9 9
-6 5 4 12 0 14 -6 4 -10 6 -10 6 -1 2 27 -69 47 -121 35z"/>
<path d="M2439 1075 c-3 -2 -14 -6 -25 -8 -33 -7 -54 -19 -48 -28 3 -5 -1 -9
-9 -9 -17 0 -27 -21 -27 -55 0 -26 53 -71 70 -60 5 3 10 1 10 -4 0 -6 5 -11
10 -11 18 0 10 18 -10 25 -25 8 -48 53 -42 80 9 42 29 56 84 59 14 0 24 4 21
9 -5 8 -27 10 -34 2z m-84 -78 c-4 -15 2 -33 16 -52 l23 -30 -27 24 c-25 23
-35 59 -20 74 11 12 14 8 8 -16z"/>
<path d="M2496 1053 c11 -46 26 -56 65 -44 l34 11 -36 -4 c-34 -4 -36 -3 -31
21 3 15 -1 29 -9 34 -24 15 -30 10 -23 -18z m22 -19 c-3 -14 -5 -12 -10 9 -3
19 -2 25 4 19 6 -6 8 -18 6 -28z"/>
<path d="M2650 1010 c0 -38 4 -70 9 -70 5 0 7 21 4 48 -3 30 -1 42 5 34 5 -7
7 -24 4 -38 -3 -15 0 -24 8 -24 7 0 10 6 7 14 -3 7 0 19 6 25 7 7 7 11 1 11
-14 0 -36 48 -29 61 4 5 1 9 -4 9 -7 0 -11 -27 -11 -70z"/>
<path d="M990 1060 c0 -5 5 -10 10 -10 6 0 10 5 10 10 0 6 -4 10 -10 10 -5 0
-10 -4 -10 -10z"/>
<path d="M1060 1060 c0 -5 5 -10 10 -10 6 0 10 5 10 10 0 6 -4 10 -10 10 -5 0
-10 -4 -10 -10z"/>
<path d="M1138 1063 c7 -3 16 -2 19 1 4 3 -2 6 -13 5 -11 0 -14 -3 -6 -6z"/>
<path d="M1826 1051 c-9 -9 -13 -21 -9 -25 4 -3 -2 -6 -13 -5 -33 3 -54 -1
-54 -10 0 -5 14 -8 32 -5 34 4 87 47 70 58 -5 3 -17 -3 -26 -13z m24 5 c0 -2
-8 -10 -17 -17 -16 -13 -17 -12 -4 4 13 16 21 21 21 13z"/>
<path d="M1898 1058 c7 -7 12 -16 12 -22 0 -5 -3 -6 -7 -3 -8 9 -44 -23 -38
-33 3 -5 -3 -6 -13 -3 -12 3 -19 -1 -19 -10 0 -25 53 0 76 36 21 34 19 47 -7
47 -12 0 -13 -3 -4 -12z m-5 -43 c-3 -9 -8 -14 -10 -11 -3 3 -2 9 2 15 9 16
15 13 8 -4z"/>
<path d="M2130 1045 c1 -16 7 -38 15 -48 13 -18 14 -17 29 11 14 26 14 31 1
36 -9 3 -18 5 -21 5 -4 0 -11 5 -15 13 -6 9 -9 3 -9 -17z m40 -27 c0 -13 -23
-5 -28 10 -2 7 2 10 12 6 9 -3 16 -11 16 -16z"/>
<path d="M256 1032 c-2 -4 4 -13 15 -20 22 -14 25 -7 5 14 -8 8 -17 11 -20 6z"/>
<path d="M1052 1033 c-10 -4 -9 -8 4 -18 15 -10 20 -10 31 1 8 7 19 11 26 9
26 -8 87 -12 87 -6 0 7 -34 12 -90 13 -8 1 -24 -3 -34 -7 -14 -6 -17 -5 -12 3
8 13 7 13 -12 5z"/>
<path d="M1345 1031 c4 -3 22 -6 41 -7 20 -2 33 0 30 3 -2 3 -21 6 -41 8 -19
1 -33 -1 -30 -4z"/>
<path d="M1430 1028 c0 -4 8 -8 19 -8 10 0 24 -7 31 -15 7 -8 17 -15 23 -15 6
0 -1 10 -14 23 -23 21 -59 31 -59 15z"/>
<path d="M2770 1029 c0 -5 5 -7 10 -4 6 3 10 8 10 11 0 2 -4 4 -10 4 -5 0 -10
-5 -10 -11z"/>
<path d="M2800 1029 c0 -5 5 -7 10 -4 6 3 10 8 10 11 0 2 -4 4 -10 4 -5 0 -10
-5 -10 -11z"/>
<path d="M205 1020 c-3 -5 -1 -10 4 -10 6 0 11 5 11 10 0 6 -2 10 -4 10 -3 0
-8 -4 -11 -10z"/>
<path d="M560 1021 c0 -9 34 -21 60 -21 13 0 13 2 0 9 -8 6 -17 8 -21 5 -4 -2
-10 0 -14 6 -8 12 -25 13 -25 1z"/>
<path d="M997 1015 c-4 -8 -3 -16 1 -19 4 -3 9 4 9 15 2 23 -3 25 -10 4z"/>
<path d="M157 1007 c-6 -16 2 -37 14 -37 6 0 8 4 5 9 -4 5 -2 11 3 13 5 1 3 8
-4 15 -10 9 -14 9 -18 0z"/>
<path d="M1020 1005 c0 -8 4 -15 10 -15 5 0 7 7 4 15 -4 8 -8 15 -10 15 -2 0
-4 -7 -4 -15z"/>
<path d="M2812 1013 c-6 -2 -10 -9 -7 -14 4 -5 0 -6 -8 -3 -11 4 -19 -6 -28
-33 -7 -21 -12 -42 -10 -48 1 -5 -1 -7 -5 -2 -4 4 -15 0 -25 -9 -10 -9 -19
-11 -23 -5 -4 5 4 17 16 25 12 9 18 16 12 16 -11 0 -51 -39 -46 -46 10 -16 -2
-12 -16 6 -18 22 -18 20 -20 -83 -1 -59 2 -108 6 -111 4 -2 6 21 4 52 -2 40 0
53 7 42 5 -8 7 -18 4 -24 -3 -5 -1 -6 5 -2 6 3 13 2 17 -4 3 -5 -2 -10 -12
-11 -14 0 -15 -2 -3 -6 8 -3 18 -11 22 -17 5 -7 8 -6 8 4 0 11 3 10 11 -4 8
-13 8 -20 1 -25 -6 -4 -7 -12 -3 -20 6 -9 10 -6 14 10 6 23 1 35 -45 91 -21
27 -22 28 -4 65 16 32 20 35 25 20 6 -17 8 -16 19 8 7 15 15 25 18 22 4 -3 -1
-19 -9 -35 -9 -18 -11 -35 -6 -43 7 -11 9 -10 9 4 0 22 36 95 60 122 13 15 35
69 27 64 -1 0 -8 -3 -15 -6z m-22 -53 c-6 -11 -13 -20 -16 -20 -2 0 0 9 6 20
6 11 13 20 16 20 2 0 0 -9 -6 -20z m-117 -79 c2 -10 1 -25 -4 -32 -6 -10 -9
-4 -9 19 0 36 5 42 13 13z"/>
<path d="M243 996 c3 -8 -2 -20 -10 -28 -15 -11 -16 -11 -10 5 3 9 2 17 -3 17
-20 0 -9 -27 25 -60 40 -39 54 -34 33 10 -12 25 -17 28 -22 15 -3 -9 -11 -13
-16 -10 -8 5 -7 12 2 22 16 19 19 43 6 43 -6 0 -8 -6 -5 -14z m32 -67 c11 -16
1 -19 -13 -3 -7 8 -8 14 -3 14 5 0 13 -5 16 -11z"/>
<path d="M1416 1001 c-3 -5 -16 -7 -29 -4 -19 4 -19 3 -5 -6 17 -12 48 -5 48
10 0 12 -7 12 -14 0z"/>
<path d="M1715 1003 c-11 -3 -23 -10 -27 -17 -5 -7 -8 -6 -8 3 0 11 -4 9 -14
-5 -9 -12 -11 -23 -5 -30 6 -8 -5 -17 -36 -28 -25 -10 -45 -21 -45 -26 0 -4
18 0 40 11 21 10 43 19 49 19 5 0 11 10 13 22 2 12 13 28 26 34 20 10 42 26
31 23 -2 -1 -13 -4 -24 -6z"/>
<path d="M2085 991 c3 -11 1 -22 -5 -26 -7 -4 -9 -28 -5 -66 3 -40 1 -59 -6
-59 -6 0 -9 6 -6 13 3 9 -4 13 -22 12 -14 0 -29 4 -33 10 -4 5 -42 11 -85 11
-43 1 -69 -2 -58 -6 11 -4 46 -6 77 -6 31 1 54 -2 52 -6 -4 -6 37 -24 45 -19
2 2 7 -3 11 -10 5 -6 16 -9 25 -5 14 5 16 17 13 69 -2 53 0 62 14 61 10 -1 14
4 11 12 -3 8 -9 14 -15 14 -5 0 -6 5 -3 10 3 6 1 10 -5 10 -7 0 -9 -8 -5 -19z"/>
<path d="M310 981 c0 -7 -4 -9 -10 -6 -5 3 -10 1 -10 -4 0 -6 4 -11 9 -11 13
0 25 20 17 27 -3 4 -6 1 -6 -6z"/>
<path d="M499 975 c18 -8 38 -15 44 -15 6 0 19 -8 30 -17 11 -10 17 -12 13 -5
-4 6 -3 12 2 12 20 0 20 -29 1 -51 -10 -12 -17 -25 -14 -28 4 -3 10 1 15 9 6
8 10 11 10 5 0 -5 7 -2 15 9 10 13 11 24 5 36 -13 24 -89 60 -126 60 l-29 -1
34 -14z"/>
<path d="M1300 986 c0 -5 11 -21 25 -38 14 -16 25 -23 25 -16 0 8 -11 25 -25
38 -14 13 -25 20 -25 16z"/>
<path d="M1790 979 c0 -4 -15 -5 -33 -2 -24 3 -37 0 -50 -14 -14 -16 -14 -20
-3 -20 8 0 14 5 13 10 -1 5 4 12 12 15 9 3 11 0 6 -8 -6 -10 -4 -11 6 -4 8 5
21 9 29 10 43 3 50 5 50 12 0 5 -7 9 -15 9 -8 0 -15 -4 -15 -8z"/>
<path d="M2423 980 c-13 -5 -23 -13 -23 -18 0 -16 24 -32 48 -32 19 0 22 -3
14 -13 -8 -10 -6 -13 11 -14 26 -2 40 17 25 35 -7 8 -13 9 -18 2 -4 -7 -12 -6
-25 3 -32 24 -9 39 50 32 29 -4 55 -3 58 1 7 12 -113 15 -140 4z m12 -38 c-8
-8 -25 10 -19 20 4 6 9 5 15 -3 4 -7 6 -15 4 -17z m55 -22 c0 -5 -5 -10 -11
-10 -5 0 -7 5 -4 10 3 6 8 10 11 10 2 0 4 -4 4 -10z"/>
<path d="M422 964 c10 -10 20 -16 22 -13 3 3 -5 11 -17 18 -21 13 -21 12 -5
-5z"/>
<path d="M183 963 c-10 -3 -10 -9 0 -24 16 -25 27 -24 22 2 -5 26 -7 27 -22
22z"/>
<path d="M1260 960 c0 -5 4 -10 9 -10 5 0 17 -7 25 -16 9 -8 16 -11 16 -6 0 5
-11 17 -25 26 -14 9 -25 12 -25 6z"/>
<path d="M1425 950 c-4 -12 -5 -24 -2 -27 3 -2 8 5 12 17 4 12 5 24 2 27 -3 2
-8 -5 -12 -17z"/>
<path d="M2617 949 c4 -13 8 -18 11 -10 2 7 -1 18 -6 23 -8 8 -9 4 -5 -13z"/>
<path d="M456 944 c-3 -9 -6 -26 -6 -39 0 -19 5 -24 28 -23 15 1 37 -2 49 -6
12 -4 24 -2 28 4 5 9 -32 15 -82 13 -8 -1 -13 11 -12 26 0 23 1 24 9 6 8 -19
9 -19 9 2 1 27 -15 39 -23 17z"/>
<path d="M1160 950 c0 -6 -5 -8 -12 -4 -7 4 -8 3 -4 -4 4 -7 1 -12 -6 -12 -8
-1 -6 -6 6 -15 19 -15 19 -15 -2 -15 -12 0 -22 -4 -22 -10 0 -5 -6 -10 -14
-10 -8 0 -31 -16 -52 -35 -20 -19 -42 -35 -48 -36 -6 0 5 -5 24 -11 31 -9 33
-11 18 -22 -26 -19 -40 -64 -28 -87 9 -16 7 -19 -15 -19 -14 0 -41 -7 -61 -15
-19 -8 -41 -12 -48 -9 -8 3 -16 -4 -21 -18 -7 -21 -7 -22 -12 -3 -4 12 4 27
21 42 14 12 26 29 26 37 0 8 3 22 6 30 6 15 7 15 18 1 15 -21 51 -8 85 29 19
21 21 26 8 26 -9 0 -19 -4 -22 -10 -9 -15 -27 -12 -20 3 4 6 -3 2 -14 -11 -13
-15 -28 -21 -43 -18 -20 3 -23 -1 -25 -28 -3 -38 -24 -54 -63 -51 -34 3 -39
-8 -12 -25 12 -8 14 -13 4 -16 -7 -3 -19 -13 -27 -21 -9 -8 -22 -12 -30 -9 -9
3 -12 0 -8 -10 6 -17 -6 -18 -29 0 -21 15 -23 27 -5 22 6 -1 9 -1 5 1 -12 7
-9 38 5 52 10 10 9 11 -5 6 -9 -4 -27 0 -40 9 -12 9 -19 16 -14 16 4 0 -1 8
-13 18 -20 16 -21 18 -5 40 11 16 19 20 28 13 20 -17 54 -8 65 16 11 23 31 32
31 13 0 -5 5 -10 12 -10 8 0 6 6 -5 17 -16 16 -18 15 -45 -10 -33 -32 -36 -32
-56 -11 -17 17 -36 11 -36 -12 0 -17 -12 -18 -28 -2 -7 7 -12 8 -12 4 0 -13
34 -66 42 -66 4 0 5 -7 2 -15 -6 -14 5 -19 31 -16 6 1 2 -5 -8 -13 -12 -9 -14
-16 -8 -21 6 -3 14 1 17 9 3 9 10 13 16 10 5 -4 5 -11 -2 -19 -6 -7 -8 -20 -4
-29 3 -9 1 -16 -5 -16 -6 0 -8 -7 -5 -15 4 -10 0 -15 -15 -15 -12 0 -21 -4
-21 -8 0 -5 -10 -14 -22 -20 -15 -7 -17 -11 -8 -11 13 -1 13 -2 0 -12 -12 -8
-10 -9 7 -4 12 3 24 1 28 -5 6 -10 -7 -14 -32 -11 -7 1 -13 -3 -13 -8 0 -12
-39 -35 -47 -28 -2 3 0 14 6 25 10 19 9 19 -24 9 -21 -6 -35 -17 -35 -26 0
-11 3 -12 8 -4 5 8 13 9 22 3 10 -7 11 -10 3 -10 -7 0 -13 -3 -13 -8 0 -10 80
-11 81 -1 1 8 3 17 8 37 2 4 6 -1 10 -12 7 -17 8 -17 23 -2 26 25 32 19 9 -10
-15 -20 -18 -30 -11 -40 6 -7 7 -14 3 -16 -16 -8 -113 4 -113 14 0 6 -7 5 -15
-2 -11 -10 -19 -10 -27 -2 -15 15 -42 3 -29 -12 6 -7 28 -11 52 -9 36 3 40 1
29 -12 -7 -8 -9 -15 -5 -15 4 0 14 8 21 18 12 15 15 15 24 2 5 -8 10 -10 10
-4 0 6 12 11 28 11 54 -1 112 7 112 15 0 4 -18 8 -40 8 -26 0 -40 5 -40 13 1
14 34 57 45 57 4 0 18 9 32 20 30 23 51 27 34 6 -9 -11 -9 -15 1 -20 7 -3 4
-4 -8 -1 -15 4 -24 -1 -32 -20 -10 -22 -9 -25 14 -31 19 -5 32 -1 47 15 16 16
18 21 7 22 -18 1 27 17 53 18 9 1 17 -4 17 -10 0 -5 -4 -8 -9 -5 -10 7 -43
-28 -35 -37 10 -10 174 128 174 147 0 5 -6 2 -13 -9 -11 -13 -16 -15 -22 -6
-4 7 -2 18 4 24 6 6 11 15 11 19 0 15 -27 8 -86 -22 l-59 -31 38 35 c51 45
158 73 170 44 4 -10 6 -10 6 0 1 7 5 11 10 7 5 -3 13 0 17 6 5 8 1 10 -13 7
-13 -3 -24 1 -31 13 -28 44 -8 78 83 136 46 30 75 34 93 13 11 -13 11 -12 3 7
-15 29 -13 42 2 22 11 -15 15 -15 32 -3 14 10 15 14 4 15 -9 0 -7 4 6 10 16 7
14 8 -12 5 -24 -3 -30 -1 -26 10 3 8 10 11 16 7 6 -4 7 -1 2 7 -6 10 -12 8
-27 -9 -10 -13 -18 -29 -18 -37 0 -8 -5 -14 -11 -14 -5 0 -7 5 -4 11 4 6 -1
17 -11 24 -15 11 -16 14 -4 15 12 0 13 2 1 9 -7 5 -11 15 -8 22 3 9 11 1 20
-21 9 -19 17 -30 17 -25 1 6 3 18 5 27 2 9 -8 24 -21 33 -14 9 -24 11 -24 5z
m5 -80 c1 -16 -62 -53 -76 -44 -5 3 -9 -4 -9 -15 0 -12 -4 -21 -10 -21 -5 0
-10 7 -10 16 0 9 -5 13 -12 9 -7 -4 3 7 22 24 19 17 43 31 53 31 11 0 15 5 11
11 -4 7 1 10 12 7 11 -2 19 -10 19 -18z m80 0 c3 -5 1 -10 -4 -10 -6 0 -11 5
-11 10 0 6 2 10 4 10 3 0 8 -4 11 -10z m-279 -128 c-17 -16 -18 -16 -5 5 7 12
15 20 18 17 3 -2 -3 -12 -13 -22z m-141 -167 c-17 -13 -25 -24 -19 -25 5 0 16
6 24 13 12 10 12 9 0 -6 -7 -10 -19 -16 -27 -13 -8 3 -25 -2 -39 -10 -13 -9
-27 -14 -30 -12 -7 7 6 38 16 38 5 0 15 6 22 13 32 31 62 47 72 37 7 -7 1 -18
-19 -35z m134 29 c-11 -13 -10 -17 4 -26 16 -8 13 -14 -25 -43 -28 -22 -48
-30 -57 -25 -8 4 -26 4 -40 -1 -16 -6 -28 -6 -34 0 -6 6 -9 12 -6 14 20 16
160 97 168 97 2 0 -3 -7 -10 -16z m-230 -26 c1 7 6 10 12 7 6 -5 4 -12 -8 -20
-10 -7 -22 -11 -26 -8 -5 3 -6 -4 -2 -17 6 -20 5 -21 -14 -11 -23 13 -29 33
-9 29 7 -2 17 7 23 19 9 21 10 21 17 5 4 -9 7 -11 7 -4z m-54 -50 c14 -6 25
-18 25 -26 0 -12 -7 -9 -27 9 -16 13 -30 25 -32 27 -12 7 12 0 34 -10z m105
-68 c-30 -8 -32 -7 -24 13 5 14 10 15 27 5 22 -12 22 -12 -3 -18z m90 16 c0
-2 -8 -10 -17 -17 -16 -13 -17 -12 -4 4 13 16 21 21 21 13z"/>
<path d="M1573 945 c4 -8 -5 -23 -21 -36 -23 -18 -23 -19 -2 -5 14 9 35 21 48
26 28 12 29 24 1 15 -15 -5 -19 -4 -15 4 4 6 2 11 -4 11 -7 0 -10 -7 -7 -15z"/>
<path d="M1880 950 c-13 -8 -12 -10 3 -10 9 0 17 5 17 10 0 12 -1 12 -20 0z"/>
<path d="M1364 943 c4 -7 16 -18 26 -23 16 -9 18 -8 14 5 -4 9 -9 13 -12 11
-3 -3 -12 0 -20 7 -13 9 -14 9 -8 0z"/>
<path d="M1761 941 c-13 -3 -27 -15 -31 -26 -4 -11 -9 -15 -13 -8 -7 11 -44 6
-63 -8 -6 -5 -13 -6 -16 -3 -3 3 -21 -3 -40 -13 -29 -16 -34 -22 -27 -41 5
-12 4 -24 -1 -27 -5 -3 -6 -13 -3 -23 4 -10 -2 -7 -15 8 -16 20 -17 26 -6 28
17 4 18 19 2 25 -10 3 -10 8 2 23 14 19 14 19 -7 1 -18 -16 -22 -16 -30 -4 -7
14 -10 14 -28 0 -19 -15 -19 -15 4 -8 16 5 21 4 17 -4 -5 -7 -2 -10 6 -9 8 2
13 -6 13 -19 0 -21 40 -73 57 -73 5 0 6 11 2 25 -5 21 -3 25 17 25 20 0 28
-11 47 -58 13 -31 25 -63 29 -69 10 -24 -36 -14 -52 10 -8 13 -26 29 -39 35
-23 10 -24 10 -20 -24 2 -19 2 -34 0 -34 -19 0 -36 16 -36 34 0 12 -6 30 -12
39 -12 16 -13 15 -14 -8 -1 -14 1 -23 5 -21 4 3 7 -4 7 -15 0 -12 -7 -19 -18
-19 -10 0 -18 7 -18 15 0 8 -5 15 -11 15 -5 0 -7 5 -4 10 7 11 -24 13 -49 4
-9 -3 -16 -15 -16 -25 0 -17 -3 -18 -20 -9 -23 12 -29 -4 -6 -17 12 -7 12 -11
-3 -29 l-17 -21 -11 23 c-7 16 -8 24 -1 24 6 0 8 11 6 24 -3 15 -1 23 6 20 6
-2 19 14 28 37 12 27 13 39 5 36 -7 -2 -12 -8 -13 -13 -2 -24 -21 -49 -36 -50
-24 -2 -23 21 2 46 19 19 19 20 1 20 -21 0 -31 -19 -31 -56 0 -15 6 -24 15
-24 8 0 15 -6 15 -14 0 -15 -59 -24 -117 -18 -44 5 -38 25 11 32 27 4 40 12
51 34 21 39 19 44 -12 48 -21 2 -28 8 -26 23 1 14 -2 11 -10 -7 -12 -31 -41
-37 -51 -12 -12 31 -99 -7 -115 -49 -11 -29 4 -57 32 -57 37 0 50 20 29 44
-16 18 -16 19 1 13 10 -4 27 -7 38 -7 13 0 19 -7 19 -21 0 -14 -12 -25 -40
-37 -24 -11 -40 -25 -42 -37 -2 -11 -8 -20 -14 -20 -16 0 -148 -111 -174 -147
-27 -36 -20 -45 25 -31 32 10 34 10 24 -8 -5 -10 -19 -19 -30 -19 -11 0 -18
-4 -14 -10 3 -5 12 -7 19 -4 8 3 17 1 21 -5 4 -8 12 -8 25 -1 10 5 27 7 37 4
17 -5 17 -5 1 8 -9 8 -17 20 -19 28 -3 17 60 145 67 137 3 -3 -4 -20 -15 -38
-27 -44 -28 -79 -1 -79 36 0 118 131 100 160 -7 11 -17 7 -47 -15 -36 -28 -37
-28 -20 -5 10 14 20 33 24 43 3 9 10 17 15 17 5 0 6 -4 3 -10 -4 -6 5 -7 23
-4 28 6 30 4 28 -23 -1 -16 -8 -40 -17 -54 -21 -34 -43 -89 -37 -95 3 -3 8 6
12 20 4 18 11 23 22 19 11 -4 12 -9 5 -16 -6 -6 -11 -19 -11 -29 0 -28 37 -23
44 6 7 29 -3 86 -16 86 -5 0 -4 9 2 21 6 11 10 25 7 32 -4 12 34 47 51 47 13
0 23 -53 11 -65 -5 -5 -9 -1 -9 13 0 13 -6 22 -15 22 -20 0 -29 -59 -16 -106
6 -22 11 -54 11 -71 0 -30 -3 -33 -32 -34 -52 -2 -62 1 -77 21 -13 19 -14 19
-42 0 -35 -26 -29 -46 14 -43 17 1 34 2 37 3 3 1 40 2 83 2 42 0 77 2 77 4 0
2 -9 13 -20 24 -15 15 -20 16 -20 6 0 -8 6 -17 13 -19 6 -3 2 -6 -10 -6 -19
-1 -21 2 -13 28 4 16 6 32 3 35 -3 3 0 13 8 22 12 15 14 15 19 -6 3 -13 10
-25 17 -27 19 -7 23 25 9 74 -22 75 -28 109 -20 101 4 -4 12 0 19 9 16 22 41
11 47 -21 6 -28 -6 -36 -16 -11 -10 28 -26 15 -26 -22 0 -46 13 -68 40 -69 22
-1 27 20 10 46 -8 12 -10 9 -10 -12 0 -16 -4 -28 -9 -28 -11 0 -21 36 -20 70
1 17 3 19 6 8 8 -30 38 -20 56 17 11 22 24 35 36 35 21 0 61 -44 61 -66 0 -8
5 -14 10 -14 6 0 10 9 10 21 0 11 -4 17 -10 14 -18 -11 -11 11 11 34 12 12 24
20 27 16 4 -3 5 -53 3 -111 -1 -59 1 -104 7 -104 5 0 7 19 5 43 -7 63 6 167
21 167 7 0 16 -28 23 -72 6 -40 14 -83 18 -96 6 -17 4 -21 -7 -17 -8 3 -21 -1
-28 -10 -8 -9 -8 -15 -2 -15 6 0 14 5 18 12 7 12 22 -12 23 -38 1 -15 -41 -26
-53 -14 -6 6 -18 10 -28 10 -15 0 -18 9 -20 58 l-1 57 -6 -65 c-6 -68 6 -93
33 -71 9 7 16 7 23 0 8 -8 20 -7 44 5 35 17 50 20 48 9 -3 -20 2 -27 10 -14 7
12 13 12 24 3 7 -7 17 -8 21 -4 8 7 11 8 44 11 14 2 13 4 -4 11 -16 6 -25 24
-34 62 -17 73 -27 88 -55 88 -29 0 -30 -8 -10 -74 20 -64 19 -68 -7 -64 -18 2
-22 9 -20 28 1 13 -4 55 -13 92 -20 88 -19 108 3 108 21 -1 58 -27 49 -36 -4
-4 -13 -2 -21 5 -11 9 -15 8 -20 -5 -4 -10 -2 -22 3 -27 12 -12 47 -4 44 11
-4 18 14 15 21 -4 3 -8 10 -13 15 -10 5 4 11 1 14 -6 2 -7 3 -3 1 9 -2 11 -7
28 -10 37 -5 12 0 16 18 16 20 0 25 -5 25 -27 0 -31 37 -139 57 -166 12 -16
16 -16 42 -3 31 17 54 7 54 -23 0 -14 2 -14 10 -1 7 12 11 10 19 -10 5 -14 10
-18 10 -9 1 8 -5 21 -11 27 -10 10 -10 15 1 22 18 10 2 37 -70 121 -40 47 -53
55 -74 51 -18 -3 -25 0 -25 12 0 18 -1 18 63 21 45 2 63 -10 32 -21 -8 -4 -15
-9 -15 -14 0 -4 32 -44 71 -89 57 -66 75 -81 98 -81 29 0 57 -22 47 -38 -3 -5
7 -8 22 -8 15 1 33 -3 41 -9 10 -7 13 -7 8 1 -4 7 11 9 48 6 33 -3 55 0 55 6
0 25 -171 152 -205 152 -27 0 -16 -17 38 -62 86 -71 87 -72 63 -81 -8 -3 -26
6 -41 20 -20 21 -24 22 -18 7 6 -17 5 -17 -10 -5 -9 7 -14 17 -11 22 5 8 -35
58 -86 105 -14 13 -20 24 -14 24 5 0 15 -5 21 -11 12 -12 43 -6 43 8 -1 13
-90 76 -97 69 -4 -4 1 -20 11 -36 20 -35 14 -38 -16 -10 -12 11 -23 18 -26 16
-4 -5 70 -75 81 -76 4 0 7 -7 7 -15 0 -8 6 -15 13 -16 6 0 22 -12 33 -27 l21
-27 -23 -1 c-16 -1 -39 15 -76 55 -81 85 -79 83 -66 119 19 49 50 43 138 -28
41 -33 86 -65 100 -73 58 -30 179 -113 179 -123 1 -6 13 -16 27 -22 14 -7 23
-8 19 -2 -3 5 3 10 15 10 14 0 19 -4 14 -12 -6 -10 -3 -9 8 0 9 8 25 13 35 12
10 -1 23 -1 28 0 22 5 40 5 45 -1 3 -4 11 -1 18 7 10 11 7 13 -18 10 -29 -3
-34 2 -31 34 1 11 0 12 -6 3 -6 -8 -14 -9 -23 -3 -20 13 -30 12 -30 -2 0 -6 3
-9 6 -5 6 5 34 -16 34 -26 0 -2 -23 -5 -51 -6 -46 -1 -57 3 -136 56 -46 32
-92 63 -101 68 -72 44 -115 75 -103 75 11 0 11 3 1 15 -14 17 0 21 16 5 6 -6
17 -5 32 6 19 13 20 18 10 37 -7 12 -11 26 -10 30 1 5 -2 6 -7 3 -5 -4 -8 -19
-7 -34 5 -35 -2 -46 -20 -31 -11 9 -12 15 -3 26 7 7 9 16 5 20 -3 3 -6 1 -6
-5 0 -7 -8 -12 -17 -12 -16 0 -16 2 -3 11 13 9 13 10 -1 6 -16 -5 -56 31 -51
46 1 5 -2 6 -7 2 -6 -3 -15 4 -21 15 -6 11 -15 18 -21 15 -5 -4 -9 -2 -9 3 0
5 -13 25 -30 43 -16 19 -30 37 -30 40 0 3 -25 12 -55 19 -43 10 -55 17 -55 33
0 16 5 18 29 15 17 -2 28 -1 25 3 -2 4 2 10 8 12 19 8 -12 6 -41 -2z m-62 -47
c-11 -13 -9 -14 14 -9 18 5 27 3 27 -4 0 -7 6 -11 13 -10 24 3 35 -1 41 -16 4
-12 -5 -15 -49 -15 -43 0 -55 3 -55 15 0 9 -7 18 -15 21 -22 9 -18 22 8 27 12
2 24 5 26 6 2 0 -2 -6 -10 -15z m-49 -25 c0 -4 7 -6 16 -2 12 4 15 1 13 -12
-6 -26 -25 -29 -32 -5 -7 26 -27 26 -27 0 0 -11 5 -20 10 -20 6 0 10 -4 10 -9
0 -4 -10 -6 -23 -4 -27 5 -31 41 -7 59 15 12 40 8 40 -7z m190 -31 c0 -5 -4
-6 -10 -3 -9 6 -14 -8 -11 -28 1 -5 -13 -7 -30 -5 -18 2 -34 -2 -36 -8 -2 -6
12 -32 32 -58 19 -25 35 -48 35 -50 0 -2 -13 -6 -30 -10 -93 -19 -83 -22 -111
38 -18 39 -22 56 -14 56 8 0 20 3 28 6 17 6 31 -24 32 -70 0 -16 5 -31 11 -33
8 -3 9 11 3 48 -9 55 -25 83 -42 72 -5 -3 -20 -7 -32 -9 -17 -1 -22 2 -18 16
6 21 26 27 102 29 59 2 74 7 66 22 -3 5 1 6 9 3 9 -3 16 -10 16 -16z m50 -69
c0 -15 4 -19 16 -15 23 9 53 -20 47 -45 -3 -10 0 -19 6 -19 6 0 11 4 11 10 0
19 45 -36 46 -57 2 -21 -1 -20 -39 12 -43 37 -101 55 -119 37 -8 -8 -23 4 -55
45 -23 30 -43 56 -43 57 0 2 14 0 31 -2 20 -3 34 0 40 9 6 10 9 11 9 2 0 -7 4
-13 9 -13 5 0 7 10 4 23 l-6 22 22 -22 c11 -12 21 -32 21 -44z m-710 12 c0
-14 32 -23 44 -11 5 5 22 10 37 10 27 0 27 0 13 -30 -12 -23 -22 -30 -45 -30
-17 0 -28 5 -26 12 3 17 -82 33 -97 18 -8 -8 -6 -14 8 -22 14 -8 15 -12 6 -18
-35 -22 -54 24 -22 52 25 23 82 36 82 19z m433 -94 c13 -21 13 -22 -12 -22
-21 0 -26 5 -27 27 -1 31 17 28 39 -5z m-151 1 c-1 -9 4 -18 12 -20 11 -2 13
-8 7 -17 -8 -12 -12 -12 -26 2 -9 10 -25 17 -35 17 -13 0 -17 5 -13 21 7 26
60 24 55 -3z m-243 -35 c-9 -9 -15 -11 -23 -3 -5 5 -21 10 -35 11 -22 0 -23 2
-7 8 10 4 32 5 48 3 23 -4 26 -7 17 -19z m76 7 c-3 -5 -10 -10 -16 -10 -5 0
-9 5 -9 10 0 6 7 10 16 10 8 0 12 -4 9 -10z m382 -7 c-4 -3 -2 -12 5 -20 20
-25 2 -23 -20 2 l-22 25 22 0 c12 0 18 -3 15 -7z m290 -42 c4 0 9 -4 11 -10 7
-20 -14 -11 -41 17 -15 15 -27 32 -27 38 0 5 12 -3 25 -19 13 -15 28 -27 32
-26z m-194 5 c18 4 32 -6 68 -48 50 -58 74 -97 65 -105 -3 -3 -12 -1 -19 5
-13 11 -47 10 -66 -2 -12 -8 -34 28 -53 84 -19 55 -26 77 -21 68 3 -5 14 -5
26 -2z m-705 -28 c-14 -18 -35 -53 -47 -76 -12 -24 -25 -42 -28 -39 -2 3 -20
-1 -38 -9 -19 -8 -37 -14 -41 -14 -7 0 167 169 175 170 2 0 -8 -15 -21 -32z
m67 -26 c-35 -69 -85 -117 -85 -81 0 30 86 143 101 133 4 -2 -3 -26 -16 -52z
m134 2 c11 7 27 -81 17 -91 -3 -4 -6 6 -6 20 0 29 -17 35 -39 15 -11 -11 -13
-9 -8 10 3 12 2 22 -2 22 -7 0 -8 26 -2 70 1 8 8 0 16 -18 8 -18 19 -31 24
-28z m371 46 c13 -8 13 -10 -2 -10 -9 0 -20 5 -23 10 -8 13 5 13 25 0z m-450
-76 c11 -28 3 -74 -12 -74 -6 0 -7 8 -3 18 12 28 11 47 -2 45 -15 -3 -15 -1
-7 21 8 22 13 20 24 -10z m487 -11 c8 -44 7 -40 18 -76 5 -19 3 -32 -5 -40
-10 -9 -11 -9 -6 1 4 7 2 12 -6 12 -8 0 -15 11 -16 26 -1 14 -6 33 -11 42 -4
9 -11 29 -15 45 -5 22 -3 27 13 27 15 0 22 -9 28 -37z m421 -10 c15 -9 46 -34
69 -55 l43 -38 -43 0 c-27 0 -37 3 -28 9 13 9 8 15 -94 106 -30 27 -30 27 -2
11 15 -9 39 -24 55 -33z m-1098 -77 c0 -7 -9 -16 -21 -19 -20 -5 -20 -5 -3 14
20 23 24 23 24 5z m118 -8 c11 -14 9 -16 -23 -15 l-36 1 23 17 c12 10 23 17
23 16 0 -1 6 -9 13 -19z m967 -6 c-3 -3 -11 0 -18 7 -9 10 -8 11 6 5 10 -3 15
-9 12 -12z"/>
<path d="M2587 939 c-13 -8 -15 -14 -7 -29 6 -12 16 -17 26 -13 12 4 14 -1 9
-26 -6 -37 12 -42 21 -6 7 29 -12 59 -33 51 -7 -3 -13 -1 -13 3 0 5 6 11 13
14 6 2 10 7 7 10 -3 3 -13 1 -23 -4z"/>
<path d="M1838 933 c7 -3 16 -2 19 1 4 3 -2 6 -13 5 -11 0 -14 -3 -6 -6z"/>
<path d="M220 920 c0 -6 6 -13 14 -16 9 -4 13 -20 11 -55 -2 -39 -9 -57 -29
-78 -24 -25 -25 -29 -11 -41 8 -7 15 -8 15 -3 0 6 16 27 35 47 34 36 46 78 25
91 -5 3 -8 -7 -5 -24 2 -18 -2 -35 -11 -42 -11 -9 -14 -8 -14 3 0 8 5 19 11
25 8 8 8 17 0 31 -14 27 -14 35 2 26 6 -4 1 5 -12 19 -27 30 -31 32 -31 17z
m30 -133 c0 -2 -12 -14 -27 -28 l-28 -24 24 28 c23 25 31 32 31 24z"/>
<path d="M1273 915 c0 -8 4 -12 9 -9 5 3 6 10 3 15 -9 13 -12 11 -12 -6z"/>
<path d="M1519 913 c-13 -16 -12 -17 4 -4 16 13 21 21 13 21 -2 0 -10 -8 -17
-17z"/>
<path d="M1871 921 c-10 -6 1 -9 32 -9 25 1 44 5 41 10 -7 11 -55 10 -73 -1z"/>
<path d="M1825 910 c-3 -5 -1 -10 4 -10 6 0 11 5 11 10 0 6 -2 10 -4 10 -3 0
-8 -4 -11 -10z"/>
<path d="M1003 903 c9 -2 23 -2 30 0 6 3 -1 5 -18 5 -16 0 -22 -2 -12 -5z"/>
<path d="M1055 900 c3 -5 10 -10 16 -10 5 0 9 5 9 10 0 6 -7 10 -16 10 -8 0
-12 -4 -9 -10z"/>
<path d="M1363 892 c3 -14 1 -20 -5 -15 -6 3 -8 2 -5 -4 3 -5 -4 -9 -16 -8
-12 1 -22 7 -22 12 0 22 -14 24 -24 4 -10 -17 -9 -20 4 -15 9 4 17 -1 21 -10
5 -13 9 -14 20 -5 10 8 14 8 14 1 0 -6 -8 -15 -17 -21 -25 -14 60 -36 86 -22
10 6 20 9 22 7 2 -1 11 5 21 15 15 16 15 17 -2 22 -14 3 -17 1 -13 -11 4 -10
2 -13 -5 -8 -7 4 -12 14 -12 22 0 8 -4 14 -10 14 -5 0 -10 7 -10 15 0 8 -5 15
-11 15 -5 0 -7 -4 -4 -10 10 -17 -7 -11 -22 8 -13 16 -14 15 -10 -6z m51 -38
c9 -8 16 -19 16 -24 0 -12 -32 -17 -65 -9 -16 4 -25 7 -19 8 7 0 14 10 17 21
6 24 30 26 51 4z"/>
<path d="M304 892 c-7 -4 -8 -15 -3 -27 7 -19 8 -19 8 3 1 15 5 21 13 16 7 -4
8 -3 4 4 -8 14 -8 14 -22 4z"/>
<path d="M921 891 c-8 -5 -9 -11 -3 -15 5 -3 12 1 16 9 6 17 6 18 -13 6z"/>
<path d="M955 890 c3 -5 8 -10 11 -10 2 0 4 5 4 10 0 6 -5 10 -11 10 -5 0 -7
-4 -4 -10z"/>
<path d="M1330 890 c0 -5 5 -10 11 -10 5 0 7 5 4 10 -3 6 -8 10 -11 10 -2 0
-4 -4 -4 -10z"/>
<path d="M988 883 c7 -3 16 -2 19 1 4 3 -2 6 -13 5 -11 0 -14 -3 -6 -6z"/>
<path d="M342 826 l3 -56 24 31 c17 22 29 29 45 25 12 -3 28 0 36 5 13 9 12
10 -2 5 -10 -3 -30 1 -45 9 -27 14 -49 11 -25 -4 9 -5 7 -12 -9 -27 l-21 -19
5 38 c3 20 1 40 -5 43 -5 4 -8 -16 -6 -50z"/>
<path d="M856 871 c-18 -7 -18 -8 -3 -14 9 -3 17 -2 17 3 0 6 5 10 11 10 5 0
7 -4 4 -10 -3 -6 1 -7 10 -3 13 5 14 7 3 14 -15 10 -17 10 -42 0z"/>
<path d="M2590 859 c0 -5 5 -7 10 -4 6 3 10 8 10 11 0 2 -4 4 -10 4 -5 0 -10
-5 -10 -11z"/>
<path d="M2524 851 c-3 -3 -22 -4 -44 -3 -23 2 -40 -2 -40 -8 0 -5 20 -10 45
-10 25 0 45 4 45 9 0 4 11 6 25 3 14 -2 25 0 25 6 0 9 -47 12 -56 3z"/>
<path d="M1267 843 c-13 -12 -7 -23 12 -23 11 0 22 4 25 9 4 5 -4 7 -16 3 -14
-3 -19 -2 -14 6 8 13 3 16 -7 5z"/>
<path d="M476 832 c-3 -5 1 -13 10 -16 8 -3 12 -2 9 4 -3 6 -2 10 4 10 5 0 11
-6 13 -12 4 -10 10 -10 29 -1 21 10 22 12 4 12 -11 1 -30 4 -41 7 -12 3 -24 1
-28 -4z"/>
<path d="M1494 832 c3 -6 2 -13 -4 -17 -5 -3 -10 -1 -10 4 0 6 -5 11 -11 11
-8 0 -8 -5 1 -15 7 -8 16 -15 20 -15 13 0 20 29 8 36 -6 4 -8 3 -4 -4z"/>
<path d="M321 816 c-1 -11 -4 -17 -7 -13 -7 7 -64 -56 -64 -72 0 -6 5 -11 11
-11 5 0 8 4 5 9 -3 5 1 14 8 20 10 9 16 9 21 1 4 -6 -1 -17 -11 -24 -12 -9
-14 -15 -6 -20 7 -4 12 -3 12 3 0 6 6 8 13 5 17 -6 16 34 -1 45 -7 4 -8 12 -2
21 9 13 10 13 10 0 1 -8 6 -4 11 9 5 13 8 29 5 35 -2 6 -5 2 -5 -8z"/>
<path d="M2029 823 c-1 -5 -1 -11 0 -15 0 -5 -3 -8 -9 -8 -5 0 -10 -8 -10 -17
1 -16 2 -16 12 2 13 21 19 45 12 45 -2 0 -5 -3 -5 -7z"/>
<path d="M2087 824 c-3 -4 2 -18 13 -31 19 -24 17 -53 -2 -53 -6 0 -5 6 2 15
9 10 9 15 1 15 -6 0 -11 -5 -11 -11 0 -6 -7 -8 -16 -5 -10 4 -14 2 -11 -6 2
-7 10 -12 16 -10 6 1 11 -10 11 -24 0 -16 5 -24 12 -22 7 3 13 11 13 19 0 8 4
24 9 37 5 16 3 29 -7 40 -9 9 -16 21 -15 25 0 13 -8 18 -15 11z"/>
<path d="M2141 807 c-11 -18 -11 -20 0 -9 15 14 43 16 34 2 -3 -5 -1 -10 4
-10 6 0 11 -6 11 -13 0 -7 9 -30 19 -51 16 -31 17 -37 4 -32 -14 6 -14 3 1
-19 10 -16 12 -25 5 -25 -8 0 -8 -4 1 -15 7 -9 10 -18 7 -22 -4 -3 1 -12 11
-20 16 -14 16 -14 -3 -8 -45 16 -55 17 -55 6 0 -7 4 -10 9 -7 14 9 41 -5 41
-21 0 -8 5 -11 10 -8 6 3 10 1 10 -5 0 -6 5 -8 10 -5 6 3 10 -1 10 -10 0 -13
-5 -13 -40 5 -22 11 -45 19 -52 18 -7 -2 -12 3 -10 10 1 8 -2 11 -7 8 -11 -7
-24 22 -15 35 3 5 0 9 -5 9 -6 0 -11 -8 -11 -17 0 -15 -2 -16 -10 -3 -5 8 -10
11 -10 5 0 -5 -4 -4 -9 4 -7 10 -4 19 7 28 25 18 11 16 -34 -6 -31 -15 -35
-21 -22 -26 9 -4 22 -4 28 0 5 3 13 -1 16 -9 3 -9 12 -16 19 -16 8 0 23 -12
34 -26 17 -22 23 -24 36 -14 10 9 15 9 15 1 0 -6 6 -11 14 -11 7 0 35 -11 61
-25 26 -14 50 -23 53 -20 8 7 -3 16 -25 19 -19 3 -32 36 -14 36 6 0 12 -1 14
-2 1 -1 12 4 24 10 21 12 22 11 16 -25 -3 -21 -3 -35 1 -31 4 3 10 20 12 36 4
24 0 33 -17 42 -13 7 -19 8 -15 2 3 -6 2 -13 -3 -16 -5 -4 -12 2 -14 11 -4 17
-5 17 -6 1 -1 -19 -18 -23 -39 -9 -11 6 -9 15 6 42 27 46 36 79 23 79 -6 0
-11 -11 -11 -25 0 -14 -5 -25 -11 -25 -6 0 -9 7 -5 15 3 8 0 15 -6 15 -6 0 -9
3 -5 6 3 3 -3 16 -14 27 -13 14 -16 24 -9 31 15 15 12 46 -5 46 -8 0 -22 11
-30 24 -22 34 -39 38 -54 13z m89 -57 c0 -19 -18 -19 -23 -1 -3 14 -1 18 9 14
8 -3 14 -9 14 -13z m19 -100 c14 -42 14 -44 0 -49 -8 -2 -10 2 -6 13 4 9 2 16
-4 16 -6 0 -7 5 -4 10 4 6 1 17 -5 25 -8 9 -8 15 -2 15 5 0 15 -14 21 -30z"/>
<path d="M2263 824 c4 -4 -1 -13 -11 -20 -9 -7 -13 -16 -8 -21 5 -4 11 -2 13
5 3 6 12 12 20 12 14 0 14 -2 0 -18 -20 -21 -22 -32 -6 -32 5 0 8 4 4 9 -8 13
8 21 24 12 10 -6 9 -11 -3 -24 -11 -10 -13 -18 -6 -22 6 -4 9 -12 7 -18 -2 -7
2 -20 11 -29 10 -12 11 -18 4 -18 -7 0 -12 -5 -12 -12 0 -8 6 -6 17 4 13 13
14 20 5 31 -10 11 -9 17 3 27 9 7 13 23 11 36 -3 13 0 24 5 24 5 0 9 7 9 16 0
8 4 13 9 9 5 -3 13 0 16 6 5 7 14 0 26 -18 10 -15 19 -22 19 -15 0 7 5 10 10
7 6 -3 10 -3 10 2 -1 4 -16 18 -35 30 l-35 22 -22 -29 c-26 -36 -35 -37 -50
-6 -6 14 -18 28 -27 31 -8 3 -12 3 -8 -1z m57 -79 c-6 -8 -8 -20 -4 -27 5 -10
4 -10 -5 -2 -13 12 -5 44 11 44 6 0 5 -6 -2 -15z"/>
<path d="M2575 819 c-4 -6 -4 -13 -1 -16 3 -4 6 -1 6 7 0 10 3 10 15 0 13 -11
14 -10 9 4 -7 18 -20 21 -29 5z"/>
<path d="M2619 803 c-1 -16 -2 -49 -1 -76 0 -26 -3 -45 -8 -42 -5 3 -7 13 -4
23 5 14 4 15 -5 2 -6 -8 -11 -12 -11 -8 0 3 -3 15 -6 25 -5 15 -4 16 6 3 10
-13 11 -13 7 0 -2 8 -10 14 -16 13 -15 -4 -14 20 2 36 8 9 8 12 0 7 -6 -3 -19
2 -29 11 -18 19 -48 27 -38 11 3 -5 8 -7 12 -4 6 7 31 -40 35 -65 2 -9 9 -25
17 -34 15 -18 21 -55 9 -55 -4 0 -4 -13 1 -29 9 -31 3 -78 -11 -87 -5 -3 -8
-15 -8 -27 1 -17 2 -18 6 -4 6 24 16 21 35 -10 12 -19 18 -23 18 -12 0 9 -7
22 -15 29 -13 11 -13 14 -1 24 16 13 28 94 15 102 -6 3 -5 12 3 22 11 14 10
15 -6 9 -15 -6 -17 -5 -8 6 6 7 11 46 11 85 -1 70 -8 99 -10 45z m0 -213 c-2
-30 -8 -51 -16 -54 -11 -4 -11 -1 -2 15 6 11 8 38 5 60 -4 26 -2 38 5 34 5 -4
9 -29 8 -55z"/>
<path d="M437 802 c-9 -10 -14 -22 -10 -26 5 -5 -1 -6 -12 -4 -13 2 -19 10
-17 23 2 11 2 18 0 15 -20 -26 -31 -44 -24 -38 5 4 15 0 23 -8 14 -13 17 -13
34 2 10 9 18 19 17 23 -2 22 5 22 17 1 8 -14 14 -20 15 -14 0 5 -6 18 -13 28
-12 16 -14 16 -30 -2z"/>
<path d="M576 812 c-3 -5 1 -9 9 -9 8 0 12 4 9 9 -3 4 -7 8 -9 8 -2 0 -6 -4
-9 -8z"/>
<path d="M2446 809 c3 -5 9 -7 14 -4 4 3 11 0 13 -5 3 -6 4 -5 3 1 -1 7 -10
13 -19 15 -9 1 -15 -2 -11 -7z"/>
<path d="M2714 792 c18 -20 34 -28 45 -24 14 5 14 4 1 -14 -8 -10 -10 -16 -6
-12 10 8 36 -9 36 -23 0 -5 -11 -14 -24 -20 -15 -7 -22 -17 -19 -25 3 -8 0
-21 -7 -29 -7 -8 -10 -27 -7 -42 l6 -28 -14 30 c-12 26 -11 32 3 49 16 18 16
19 -1 13 -11 -4 -20 -1 -23 8 -4 8 -11 15 -17 15 -5 0 -3 -8 7 -19 9 -10 14
-25 10 -35 -4 -10 4 -32 19 -54 13 -20 30 -46 36 -57 11 -18 11 -18 5 5 -6 24
-5 24 9 5 13 -17 13 -22 1 -41 -13 -20 -13 -22 8 -27 12 -4 24 -4 27 -2 2 3
-2 5 -10 5 -12 0 -11 2 1 11 13 9 12 10 -2 5 -10 -3 -18 -1 -18 4 0 6 5 10 11
10 14 0 1 39 -23 64 -24 26 -34 64 -19 79 6 6 11 19 11 30 0 10 5 15 10 12 6
-4 7 -11 4 -17 -4 -7 -2 -8 4 -4 6 4 8 14 5 23 -4 10 -2 14 4 10 17 -10 24 22
11 46 -12 24 -57 62 -73 62 -5 0 -17 4 -25 9 -8 5 -2 -5 14 -22z m30 -8 c5
-14 4 -15 -9 -4 -17 14 -19 20 -6 20 5 0 12 -7 15 -16z m14 -229 c-3 -3 -9 2
-12 12 -6 14 -5 15 5 6 7 -7 10 -15 7 -18z"/>
<path d="M887 803 c-12 -12 -7 -21 14 -26 15 -4 18 -2 10 7 -6 7 -8 16 -4 19
3 4 2 7 -4 7 -5 0 -13 -3 -16 -7z"/>
<path d="M546 792 c-3 -6 -1 -14 5 -17 14 -9 20 -2 10 14 -6 8 -11 9 -15 3z"/>
<path d="M1422 788 c-21 -21 -13 -38 18 -38 33 0 35 3 20 31 -12 22 -21 24
-38 7z m31 -11 c3 -8 -3 -14 -14 -14 -19 -2 -25 8 -12 20 10 11 20 8 26 -6z"/>
<path d="M2500 786 c0 -10 -5 -14 -12 -10 -7 4 -8 3 -4 -4 4 -7 3 -12 -3 -12
-5 0 -12 4 -16 10 -3 5 -14 2 -25 -7 -17 -15 -17 -18 -2 -42 10 -18 11 -22 2
-13 -24 21 -29 13 -14 -18 9 -16 20 -30 26 -30 7 0 6 5 -1 14 -9 11 -8 15 6
20 13 5 14 9 5 15 -13 8 -6 41 8 41 16 0 21 -39 9 -59 -10 -15 -10 -23 -1 -34
10 -11 9 -17 -2 -26 -9 -7 -17 -8 -20 -2 -3 5 0 12 6 14 7 3 2 6 -11 6 l-25 1
27 -28 c26 -27 26 -29 10 -44 -11 -9 -30 -14 -46 -11 -26 3 -28 1 -25 -23 2
-15 10 -29 18 -31 13 -4 13 -3 0 6 -12 9 -13 12 -1 20 11 7 11 9 0 14 -9 4
-10 6 -2 6 7 1 17 -7 22 -18 10 -17 51 -37 49 -22 0 3 1 9 2 14 1 4 3 13 4 20
1 6 7 11 14 10 7 -2 12 2 12 8 0 6 -7 8 -16 5 -14 -5 -15 -4 -5 8 10 11 8 17
-6 25 -10 6 -15 11 -10 12 4 1 12 3 17 4 6 1 13 3 16 4 4 0 2 7 -4 14 -11 13
-9 102 3 130 4 10 5 21 1 24 -3 4 -6 -1 -6 -11z m-27 -236 c-5 -20 -15 -25
-26 -13 -5 4 18 30 30 33 0 0 -1 -9 -4 -20z"/>
<path d="M1487 779 c7 -7 15 -10 18 -7 3 3 -2 9 -12 12 -14 6 -15 5 -6 -5z"/>
<path d="M599 775 c-1 -3 -2 -10 -3 -17 -1 -15 -23 -22 -31 -9 -8 15 -25 14
-25 -1 0 -6 3 -8 7 -5 3 4 12 2 20 -4 10 -9 17 -8 29 2 14 12 15 8 11 -34 -3
-29 -1 -45 5 -41 5 3 7 8 4 11 -3 3 -1 13 4 23 6 11 4 26 -5 43 -7 14 -11 28
-7 31 3 3 2 6 -1 6 -4 0 -8 -2 -8 -5z"/>
<path d="M807 768 c5 -7 8 -25 7 -40 -2 -15 2 -31 8 -34 8 -5 9 -1 5 12 -7 18
-6 18 6 2 8 -10 17 -15 20 -11 4 3 2 12 -4 20 -9 10 -8 13 1 13 7 0 10 7 6 15
-3 8 -1 15 4 15 6 0 10 5 10 10 0 6 -9 5 -21 -2 -17 -10 -23 -10 -26 0 -3 6
-9 12 -15 12 -7 0 -7 -4 -1 -12z m38 -28 c-3 -5 -10 -10 -16 -10 -5 0 -9 5 -9
10 0 6 7 10 16 10 8 0 12 -4 9 -10z"/>
<path d="M2164 751 c0 -17 4 -31 9 -31 4 0 5 12 3 26 -7 38 -14 40 -12 5z"/>
<path d="M2373 760 c3 -11 1 -23 -4 -26 -13 -8 -11 -21 4 -21 9 0 14 13 14 34
0 18 -5 33 -10 33 -5 0 -7 -9 -4 -20z"/>
<path d="M450 747 c0 -15 -5 -27 -12 -27 -9 0 -9 -3 0 -12 14 -14 16 -48 2
-48 -20 0 1 -26 23 -27 20 -2 20 -1 4 8 -9 6 -14 15 -10 22 8 13 7 96 -1 104
-3 4 -6 -6 -6 -20z"/>
<path d="M495 760 c-3 -5 -1 -10 4 -10 6 0 11 5 11 10 0 6 -2 10 -4 10 -3 0
-8 -4 -11 -10z"/>
<path d="M770 761 c0 -6 4 -12 8 -15 5 -3 9 1 9 9 0 8 -4 15 -9 15 -4 0 -8 -4
-8 -9z"/>
<path d="M876 745 c-3 -8 -1 -15 4 -15 6 0 10 7 10 15 0 8 -2 15 -4 15 -2 0
-6 -7 -10 -15z"/>
<path d="M390 740 c0 -7 -7 -9 -16 -6 -9 3 -12 2 -9 -5 4 -6 13 -8 20 -5 28
10 20 -20 -12 -51 l-34 -32 5 -113 c2 -62 5 -121 6 -130 2 -25 20 -33 20 -9 0
21 15 29 22 12 2 -4 12 1 23 12 20 20 20 20 -5 7 -21 -10 -23 -10 -12 1 6 7
12 22 12 34 0 15 3 16 9 7 6 -11 10 -10 15 4 3 9 4 19 1 22 -3 3 -5 0 -5 -7 0
-7 -5 -9 -10 -6 -6 3 -13 -2 -17 -12 -9 -25 -33 -47 -41 -39 -3 4 -7 50 -8
104 -1 53 0 82 3 65 4 -34 12 -40 29 -23 6 6 10 -4 11 -31 2 -48 7 -56 26 -41
8 7 17 10 21 7 3 -3 1 1 -4 7 -9 10 -13 10 -20 -2 -7 -11 -10 -3 -10 28 0 36
-4 45 -20 49 -20 5 -25 26 -6 23 28 -5 44 103 20 127 -9 10 -14 11 -14 3z m7
-96 c-9 -10 -47 -12 -47 -3 0 5 7 9 15 9 9 0 19 8 23 18 6 16 7 16 10 -1 2
-10 2 -21 -1 -23z"/>
<path d="M710 721 c0 -34 13 -47 28 -28 14 17 4 57 -14 57 -9 0 -14 -11 -14
-29z m23 -1 c3 -11 1 -23 -4 -26 -5 -3 -9 6 -9 20 0 31 6 34 13 6z"/>
<path d="M1986 742 c-3 -5 1 -9 9 -9 8 0 12 4 9 9 -3 4 -7 8 -9 8 -2 0 -6 -4
-9 -8z"/>
<path d="M2519 738 c7 -10 10 -18 5 -18 -4 0 -3 -5 4 -12 16 -16 15 -31 0 -22
-10 6 -10 5 -1 -7 10 -12 10 -18 0 -28 -10 -11 -8 -11 10 -2 19 9 20 15 13 42
-5 18 -7 37 -3 43 3 6 3 8 -2 4 -4 -4 -15 -2 -24 5 -14 11 -14 10 -2 -5z"/>
<path d="M493 733 c-16 -6 -17 -33 -2 -33 5 0 7 5 4 10 -3 6 -2 10 4 10 5 0
13 -4 16 -10 9 -15 22 -12 29 6 3 9 2 12 -5 9 -5 -4 -15 -2 -22 3 -7 5 -18 7
-24 5z"/>
<path d="M675 730 c3 -5 8 -10 11 -10 2 0 4 5 4 10 0 6 -5 10 -11 10 -5 0 -7
-4 -4 -10z"/>
<path d="M2026 726 c3 -9 11 -16 16 -16 13 0 5 23 -10 28 -7 2 -10 -2 -6 -12z"/>
<path d="M2251 726 c-9 -10 -8 -15 3 -19 10 -4 14 0 13 14 -2 23 -1 23 -16 5z"/>
<path d="M173 713 c-4 -9 -1 -19 5 -21 7 -2 10 -7 7 -12 -5 -8 57 -60 72 -60
4 0 -3 9 -17 20 -14 11 -20 20 -14 20 6 0 21 -12 35 -27 13 -14 18 -23 12 -19
-7 4 -13 2 -13 -3 0 -6 5 -11 10 -11 6 0 10 -5 10 -12 0 -6 -3 -9 -6 -5 -4 3
-11 1 -18 -6 -106 -115 -113 -133 -75 -181 23 -30 59 -52 59 -37 0 5 -9 13
-20 16 -11 4 -18 11 -14 16 7 13 44 -19 44 -38 0 -7 7 -13 16 -13 8 0 12 -4 9
-10 -3 -6 -1 -10 4 -10 15 0 14 18 -3 27 -21 13 -24 35 -10 75 10 30 10 36 0
32 -7 -3 -13 -11 -14 -19 -1 -8 -3 -22 -4 -30 -1 -10 -5 -11 -13 -5 -6 5 -20
8 -30 6 -24 -4 -35 11 -34 44 l1 25 9 -25 c8 -22 8 -20 4 8 -3 24 -1 32 8 29
6 -2 11 -11 9 -18 -1 -8 6 -3 16 10 17 21 20 21 25 7 4 -10 12 -14 17 -11 6 4
19 1 28 -7 15 -12 16 -11 3 5 -7 9 -20 17 -29 17 -13 0 -13 2 1 18 10 10 17
22 17 26 0 5 -9 -2 -20 -15 -23 -28 -27 -13 -4 19 8 12 12 22 7 22 -4 0 0 5
10 11 9 5 17 19 17 30 0 24 -56 84 -65 70 -3 -6 -9 -11 -13 -11 -10 0 -32 52
-26 61 3 5 3 9 -1 9 -3 0 -9 -8 -12 -17z m65 -188 c-13 -19 -27 -35 -32 -35
-8 0 0 14 33 53 23 28 23 19 -1 -18z"/>
<path d="M780 716 c0 -9 -5 -16 -11 -16 -8 0 -8 -4 0 -14 9 -11 9 -15 -1 -19
-8 -3 -6 -6 5 -6 12 -1 17 5 15 17 -1 9 1 22 5 29 4 6 3 14 -3 18 -5 3 -10 -1
-10 -9z"/>
<path d="M340 712 c0 -5 7 -9 15 -9 8 0 12 4 9 9 -3 4 -9 8 -15 8 -5 0 -9 -4
-9 -8z"/>
<path d="M560 699 c0 -11 4 -18 10 -14 5 3 7 12 3 20 -7 21 -13 19 -13 -6z"/>
<path d="M259 701 c11 -7 11 -9 0 -14 -9 -4 -7 -6 5 -6 11 -1 16 -4 13 -8 -10
-9 13 -33 32 -33 14 1 14 2 -2 11 -12 7 -16 17 -12 32 4 15 3 18 -3 9 -7 -11
-10 -11 -15 2 -4 9 -12 16 -19 16 -10 0 -10 -2 1 -9z"/>
<path d="M875 700 c3 -5 8 -10 11 -10 2 0 4 5 4 10 0 6 -5 10 -11 10 -5 0 -7
-4 -4 -10z"/>
<path d="M2146 701 c-3 -5 1 -14 9 -21 15 -12 11 -35 -5 -25 -4 3 -3 -6 3 -19
7 -14 14 -23 16 -21 9 10 10 65 1 70 -6 4 -8 11 -5 16 4 5 2 9 -4 9 -5 0 -12
-4 -15 -9z"/>
<path d="M210 689 c0 -5 5 -7 10 -4 6 3 10 8 10 11 0 2 -4 4 -10 4 -5 0 -10
-5 -10 -11z"/>
<path d="M312 680 c0 -14 2 -19 5 -12 2 6 2 18 0 25 -3 6 -5 1 -5 -13z"/>
<path d="M496 691 c-6 -10 -1 -50 7 -58 16 -15 35 -11 30 7 -3 10 0 21 6 24
20 13 12 31 -14 32 -14 1 -27 -1 -29 -5z m26 -36 c-2 -14 -6 -25 -7 -25 -1 0
-5 11 -7 25 -3 16 -1 25 7 25 8 0 10 -9 7 -25z"/>
<path d="M2369 680 c-1 -11 -2 -27 -3 -37 0 -9 5 -18 12 -21 11 -3 12 0 3 16
-6 10 -7 22 -4 26 11 11 12 36 2 36 -5 0 -10 -9 -10 -20z"/>
<path d="M2656 663 c-10 -11 -7 -75 4 -68 5 3 7 20 3 37 -4 22 -3 29 6 24 6
-4 8 -12 5 -18 -4 -7 -2 -8 4 -4 7 4 12 11 12 16 0 10 -26 20 -34 13z"/>
<path d="M550 650 c0 -5 5 -10 11 -10 5 0 7 5 4 10 -3 6 -8 10 -11 10 -2 0 -4
-4 -4 -10z"/>
<path d="M617 633 c4 -9 2 -14 -3 -11 -5 4 -9 -7 -9 -23 -1 -33 7 -36 26 -12
10 11 10 14 2 9 -16 -9 -16 -5 -3 28 7 21 6 26 -5 26 -9 0 -12 -6 -8 -17z"/>
<path d="M788 643 c7 -3 16 -2 19 1 4 3 -2 6 -13 5 -11 0 -14 -3 -6 -6z"/>
<path d="M1390 631 c-5 -11 -10 -45 -10 -75 0 -43 5 -61 20 -76 40 -40 62 -15
55 61 -7 65 -14 92 -29 101 -17 12 -25 9 -36 -11z m45 -51 c0 -22 2 -40 5 -40
3 0 4 -16 2 -35 -4 -36 -9 -40 -29 -27 -16 10 -25 106 -12 139 14 37 34 15 34
-37z"/>
<path d="M2540 630 c0 -5 0 -13 1 -16 0 -4 -4 -10 -9 -13 -7 -4 -6 -12 2 -22
10 -15 13 -14 23 7 9 20 8 24 -4 24 -13 0 -13 3 -3 15 9 10 9 15 1 15 -6 0
-11 -4 -11 -10z"/>
<path d="M430 610 c0 -16 34 -28 65 -23 24 4 27 2 15 -7 -13 -10 -13 -11 2 -6
10 3 20 1 23 -4 10 -16 -63 -15 -79 1 -6 5 -17 9 -25 9 -12 0 -11 -3 2 -18 10
-10 14 -22 10 -25 -3 -4 -1 -7 5 -7 7 0 12 5 12 10 0 6 12 10 26 10 14 0 22
-4 19 -10 -3 -5 8 -2 24 8 17 9 26 19 21 20 -15 5 -12 23 8 39 15 13 14 13 -8
2 -36 -18 -89 -19 -83 -2 3 8 -2 13 -16 13 -12 0 -21 -4 -21 -10z"/>
<path d="M1018 613 c7 -3 16 -2 19 1 4 3 -2 6 -13 5 -11 0 -14 -3 -6 -6z"/>
<path d="M2287 613 c-12 -12 -7 -22 8 -17 8 4 15 10 15 15 0 11 -14 12 -23 2z"/>
<path d="M2358 603 c7 -3 16 -2 19 1 4 3 -2 6 -13 5 -11 0 -14 -3 -6 -6z"/>
<path d="M303 581 c-7 -11 -8 -23 -2 -32 5 -8 9 -9 10 -4 0 6 5 -1 9 -15 7
-23 8 -22 9 10 1 46 -11 65 -26 41z m17 -11 c0 -5 -5 -10 -11 -10 -5 0 -7 5
-4 10 3 6 8 10 11 10 2 0 4 -4 4 -10z"/>
<path d="M2676 578 c3 -5 10 -6 15 -3 13 9 11 12 -6 12 -8 0 -12 -4 -9 -9z"/>
<path d="M2646 564 c-4 -10 -3 -20 3 -22 5 -2 8 -9 5 -16 -3 -7 3 -19 13 -27
10 -7 15 -9 11 -5 -4 5 -3 15 3 22 9 10 7 15 -5 20 -9 3 -14 9 -12 13 3 4 1
13 -3 20 -6 10 -10 8 -15 -5z"/>
<path d="M1472 550 c0 -14 2 -19 5 -12 2 6 2 18 0 25 -3 6 -5 1 -5 -13z"/>
<path d="M2697 563 c-4 -3 -7 -11 -7 -16 0 -6 3 -7 7 -4 3 4 13 1 22 -6 14
-11 15 -10 1 8 -8 11 -15 21 -16 23 0 1 -4 -1 -7 -5z"/>
<path d="M1708 543 c5 -10 17 -37 27 -60 24 -57 36 -55 17 2 -8 25 -19 42 -24
39 -5 -3 -8 2 -6 11 2 10 -3 20 -9 22 -9 3 -11 -1 -5 -14z"/>
<path d="M2560 550 c0 -5 5 -10 11 -10 5 0 7 5 4 10 -3 6 -8 10 -11 10 -2 0
-4 -4 -4 -10z"/>
<path d="M2500 540 c0 -5 1 -12 3 -14 1 -2 -7 -14 -18 -27 l-20 -24 27 24 27
23 4 -33 c3 -25 4 -21 4 14 0 32 -4 47 -14 47 -7 0 -13 -4 -13 -10z"/>
<path d="M2541 534 c0 -11 3 -14 6 -6 3 7 2 16 -1 19 -3 4 -6 -2 -5 -13z"/>
<path d="M578 533 c-10 -2 -18 -9 -18 -14 0 -6 8 -5 20 1 11 6 20 13 20 15 0
3 -1 4 -2 4 -2 -1 -11 -3 -20 -6z"/>
<path d="M2305 520 c3 -5 10 -10 16 -10 5 0 9 5 9 10 0 6 -7 10 -16 10 -8 0
-12 -4 -9 -10z"/>
<path d="M490 511 c17 -5 21 -9 12 -15 -6 -4 -16 -5 -20 -2 -5 3 -9 -1 -9 -8
0 -18 20 -15 40 6 15 14 15 17 1 22 -9 3 -23 6 -32 5 -10 -1 -6 -4 8 -8z"/>
<path d="M2704 497 c1 -15 -5 -22 -18 -22 -11 0 -21 -6 -23 -12 -3 -7 0 -13 7
-13 6 0 8 5 5 10 -11 17 11 11 28 -8 10 -10 14 -23 10 -27 -5 -5 0 -3 10 4 14
11 15 16 5 29 -7 8 -12 23 -10 33 2 9 -1 20 -6 23 -5 3 -8 -5 -8 -17z"/>
<path d="M2730 505 c0 -8 4 -15 10 -15 5 0 7 7 4 15 -4 8 -8 15 -10 15 -2 0
-4 -7 -4 -15z"/>
<path d="M1332 498 c5 -15 28 -23 28 -10 0 5 -7 13 -16 16 -10 4 -14 1 -12 -6z"/>
<path d="M316 487 c3 -10 9 -15 12 -12 3 3 0 11 -7 18 -10 9 -11 8 -5 -6z"/>
<path d="M1472 470 c0 -19 2 -27 5 -17 2 9 2 25 0 35 -3 9 -5 1 -5 -18z"/>
<path d="M2411 484 c0 -11 3 -14 6 -6 3 7 2 16 -1 19 -3 4 -6 -2 -5 -13z"/>
<path d="M2355 481 c-3 -5 -1 -12 5 -16 5 -3 10 1 10 9 0 18 -6 21 -15 7z"/>
<path d="M232 445 c0 -16 2 -22 5 -12 2 9 2 23 0 30 -3 6 -5 -1 -5 -18z"/>
<path d="M1350 447 c0 -15 5 -27 11 -27 6 0 8 7 5 17 -6 15 -4 15 14 -2 11
-10 20 -20 20 -22 0 -3 -22 -2 -50 2 -36 5 -50 4 -50 -5 0 -7 7 -10 15 -6 8 3
25 2 38 -2 12 -5 42 -3 67 4 38 11 41 13 16 13 -18 1 -41 12 -58 28 l-28 27 0
-27z"/>
<path d="M2575 447 c-5 -20 -11 -25 -19 -17 -9 7 -13 6 -13 -4 0 -8 8 -13 19
-11 10 2 18 -2 18 -8 1 -7 9 -2 19 11 11 12 22 18 24 12 4 -7 5 -6 4 1 -2 6
-6 9 -9 7 -4 -2 -14 6 -22 17 -14 19 -15 19 -21 -8z m19 -12 c3 -8 1 -15 -4
-15 -6 0 -10 7 -10 15 0 8 2 15 4 15 2 0 6 -7 10 -15z"/>
<path d="M319 440 c-1 -19 -4 -31 -9 -47 -1 -5 -2 -12 -1 -16 1 -5 -4 -7 -11
-5 -7 3 -13 10 -13 16 0 5 -3 13 -6 16 -3 3 -6 -1 -6 -10 0 -8 13 -24 29 -35
15 -11 28 -16 28 -10 0 6 -5 11 -11 11 -5 0 -8 4 -4 9 8 14 18 91 11 91 -3 0
-7 -9 -7 -20z"/>
<path d="M2755 449 c-4 -6 -5 -12 -2 -15 2 -3 7 2 10 11 7 17 1 20 -8 4z"/>
<path d="M2515 441 c-3 -5 -1 -12 5 -16 5 -3 10 1 10 9 0 18 -6 21 -15 7z"/>
<path d="M2775 440 c-3 -5 -4 -14 -1 -19 3 -5 -1 -11 -9 -15 -8 -3 -15 0 -15
7 0 7 -9 1 -19 -12 -10 -14 -16 -31 -13 -40 3 -9 1 -12 -6 -7 -7 4 -12 2 -12
-6 0 -21 16 -39 30 -36 8 2 14 -3 15 -11 0 -8 9 -15 19 -17 16 -2 13 3 -12 29
l-31 31 39 43 c39 42 49 63 31 63 -6 0 -13 -4 -16 -10z m-25 -49 c0 -5 -7 -12
-16 -15 -14 -5 -15 -4 -4 9 14 17 20 19 20 6z"/>
<path d="M799 427 c-15 -11 -15 -14 -1 -26 13 -12 14 -12 10 0 -3 8 2 19 11
26 9 7 12 12 6 12 -5 0 -17 -5 -26 -12z"/>
<path d="M2645 430 c-4 -6 -2 -17 5 -25 8 -10 8 -15 -1 -21 -10 -6 -9 -9 2
-13 11 -4 13 -13 8 -31 l-7 -25 -2 25 -2 25 -7 -25 c-5 -16 -13 -24 -24 -22
-24 4 -21 -3 11 -24 26 -17 27 -17 12 1 -13 17 -13 18 0 13 21 -8 35 12 35 50
-1 22 3 31 12 28 7 -3 13 -1 13 4 0 6 -9 10 -21 10 -14 0 -19 5 -16 15 7 17
-9 30 -18 15z"/>
<path d="M450 410 c6 -11 13 -20 16 -20 2 0 0 9 -6 20 -6 11 -13 20 -16 20 -2
0 0 -9 6 -20z"/>
<path d="M1780 421 c0 -16 28 -20 40 -5 8 9 9 14 2 14 -6 0 -13 -6 -15 -12 -4
-10 -6 -10 -6 0 -1 14 -21 17 -21 3z"/>
<path d="M1846 418 c3 -4 12 -8 20 -8 8 0 14 4 14 8 0 4 -9 8 -19 8 -11 0 -17
-4 -15 -8z"/>
<path d="M1940 423 c0 -5 16 -8 36 -9 20 0 40 -7 45 -15 7 -12 9 -11 9 2 0 17
-27 29 -67 29 -13 0 -23 -3 -23 -7z"/>
<path d="M2233 415 c0 -8 4 -12 9 -9 4 3 8 9 8 15 0 5 -4 9 -8 9 -5 0 -9 -7
-9 -15z"/>
<path d="M830 410 c-13 -8 -12 -10 3 -10 9 0 17 5 17 10 0 12 -1 12 -20 0z"/>
<path d="M885 409 c-11 -16 -1 -19 13 -3 7 8 8 14 3 14 -5 0 -13 -5 -16 -11z"/>
<path d="M2617 388 c3 -17 2 -19 -5 -10 -7 11 -10 10 -16 -3 -4 -12 -1 -16 12
-13 18 3 31 48 14 48 -6 0 -8 -10 -5 -22z"/>
<path d="M1821 384 c0 -11 3 -14 6 -6 3 7 2 16 -1 19 -3 4 -6 -2 -5 -13z"/>
<path d="M1991 384 c0 -11 3 -14 6 -6 3 7 2 16 -1 19 -3 4 -6 -2 -5 -13z"/>
<path d="M2191 386 c-9 -11 -9 -16 1 -22 7 -4 10 -4 6 1 -4 4 -3 14 3 22 6 7
9 13 6 13 -2 0 -10 -6 -16 -14z"/>
<path d="M2380 390 c-9 -6 -10 -10 -3 -10 6 0 15 5 18 10 8 12 4 12 -15 0z"/>
<path d="M1080 380 c0 -5 5 -10 11 -10 5 0 7 5 4 10 -3 6 -8 10 -11 10 -2 0
-4 -4 -4 -10z"/>
<path d="M1390 380 c0 -5 5 -10 11 -10 5 0 7 5 4 10 -3 6 -8 10 -11 10 -2 0
-4 -4 -4 -10z"/>
<path d="M1605 381 c-3 -5 -1 -12 5 -16 5 -3 10 1 10 9 0 18 -6 21 -15 7z"/>
<path d="M1727 383 c-10 -9 -9 -23 1 -23 5 0 9 7 9 15 0 17 -1 18 -10 8z"/>
<path d="M1787 383 c-10 -9 -9 -23 1 -23 5 0 9 7 9 15 0 17 -1 18 -10 8z"/>
<path d="M1850 380 c-8 -5 -10 -10 -5 -10 6 0 17 5 25 10 8 5 11 10 5 10 -5 0
-17 -5 -25 -10z"/>
<path d="M2040 380 c-9 -6 -10 -10 -3 -10 6 0 15 5 18 10 8 12 4 12 -15 0z"/>
<path d="M2126 373 c-6 -14 -5 -15 5 -6 7 7 10 15 7 18 -3 3 -9 -2 -12 -12z"/>
<path d="M2230 380 c-9 -6 -10 -10 -3 -10 6 0 15 5 18 10 8 12 4 12 -15 0z"/>
<path d="M2520 386 c0 -2 7 -9 15 -16 13 -11 14 -10 9 4 -5 14 -24 23 -24 12z"/>
<path d="M1570 369 c0 -5 5 -7 10 -4 6 3 10 8 10 11 0 2 -4 4 -10 4 -5 0 -10
-5 -10 -11z"/>
<path d="M1645 370 c-3 -5 -1 -10 4 -10 6 0 11 5 11 10 0 6 -2 10 -4 10 -3 0
-8 -4 -11 -10z"/>
<path d="M1956 372 c-3 -5 1 -9 9 -9 8 0 15 4 15 9 0 4 -4 8 -9 8 -6 0 -12 -4
-15 -8z"/>
<path d="M711 353 c6 -7 21 -12 33 -12 20 2 20 2 -2 6 -12 2 -20 8 -18 12 3 4
-1 8 -9 8 -11 0 -12 -4 -4 -14z"/>
<path d="M825 359 c-4 -6 -5 -12 -2 -15 2 -3 7 2 10 11 7 17 1 20 -8 4z"/>
<path d="M1319 353 c-13 -16 -12 -17 4 -4 16 13 21 21 13 21 -2 0 -10 -8 -17
-17z"/>
<path d="M2141 348 c-14 -23 -14 -23 8 -4 22 20 25 26 13 26 -4 0 -13 -10 -21
-22z"/>
<path d="M351 353 c1 -16 18 -47 18 -36 1 9 9 9 31 1 36 -12 103 8 78 23 -7 5
-17 9 -23 9 -5 0 -4 -4 3 -9 11 -7 10 -10 -3 -15 -20 -7 -65 3 -65 15 0 5 -7
5 -17 2 -11 -4 -14 -3 -9 5 4 7 2 12 -3 12 -6 0 -11 -3 -10 -7z"/>
<path d="M635 350 c-3 -5 -1 -10 4 -10 6 0 11 5 11 10 0 6 -2 10 -4 10 -3 0
-8 -4 -11 -10z"/>
<path d="M1146 351 c-20 -8 -20 -8 0 -13 24 -6 46 1 38 13 -6 10 -12 10 -38 0z"/>
<path d="M1220 356 c0 -2 7 -7 16 -10 8 -3 12 -2 9 4 -6 10 -25 14 -25 6z"/>
<path d="M1429 347 c16 -20 12 -27 -18 -30 -11 -1 -21 -5 -21 -10 0 -5 9 -5
20 -2 23 7 59 -20 37 -28 -8 -4 -7 -6 3 -6 13 -1 13 -2 0 -12 -10 -7 -11 -9
-2 -7 8 2 13 8 13 13 0 6 8 18 16 28 15 16 14 17 -13 18 -29 1 -29 1 -4 9 14
4 19 8 11 9 -8 1 -24 9 -35 19 -20 16 -20 16 -7 -1z"/>
<path d="M1480 350 c0 -6 7 -10 15 -10 8 0 15 2 15 4 0 2 -7 6 -15 10 -8 3
-15 1 -15 -4z"/>
<path d="M1530 350 c-9 -6 -10 -10 -3 -10 6 0 15 5 18 10 8 12 4 12 -15 0z"/>
<path d="M1680 350 c8 -5 20 -10 25 -10 6 0 3 5 -5 10 -8 5 -19 10 -25 10 -5
0 -3 -5 5 -10z"/>
<path d="M1810 350 c-8 -5 -10 -10 -5 -10 6 0 17 5 25 10 8 5 11 10 5 10 -5 0
-17 -5 -25 -10z"/>
<path d="M2000 350 c-9 -6 -10 -10 -3 -10 6 0 15 5 18 10 8 12 4 12 -15 0z"/>
<path d="M2064 349 c-3 -5 6 -9 20 -9 31 0 34 6 6 13 -11 3 -23 1 -26 -4z"/>
<path d="M2266 352 c-3 -5 1 -9 9 -9 8 0 12 4 9 9 -3 4 -7 8 -9 8 -2 0 -6 -4
-9 -8z"/>
<path d="M548 343 c6 -2 18 -2 25 0 6 3 1 5 -13 5 -14 0 -19 -2 -12 -5z"/>
<path d="M598 343 c7 -3 16 -2 19 1 4 3 -2 6 -13 5 -11 0 -14 -3 -6 -6z"/>
<path d="M1348 343 c7 -3 16 -2 19 1 4 3 -2 6 -13 5 -11 0 -14 -3 -6 -6z"/>
<path d="M1388 343 c7 -3 16 -2 19 1 4 3 -2 6 -13 5 -11 0 -14 -3 -6 -6z"/>
<path d="M1590 345 c4 -18 -12 -55 -23 -55 -6 0 -7 -3 -4 -6 4 -4 12 -2 19 3
7 6 27 14 43 18 19 5 25 9 15 13 -8 2 -23 12 -33 21 -10 8 -18 11 -17 6z m25
-25 c3 -5 -1 -10 -10 -10 -9 0 -13 5 -10 10 3 6 8 10 10 10 2 0 7 -4 10 -10z"/>
<path d="M1736 343 c-4 -5 -24 -14 -44 -20 l-37 -12 37 5 c35 4 38 3 47 -28 8
-30 9 -30 10 -7 1 14 7 31 14 39 10 12 9 12 -5 2 -10 -8 -18 -9 -22 -3 -4 5 2
14 11 20 10 6 13 11 7 11 -6 0 -14 -3 -18 -7z"/>
<path d="M1878 343 c7 -3 16 -2 19 1 4 3 -2 6 -13 5 -11 0 -14 -3 -6 -6z"/>
<path d="M2428 343 c6 -2 18 -2 25 0 6 3 1 5 -13 5 -14 0 -19 -2 -12 -5z"/>
<path d="M2528 343 c7 -3 16 -2 19 1 4 3 -2 6 -13 5 -11 0 -14 -3 -6 -6z"/>
<path d="M2572 333 c-5 -9 -20 -17 -33 -19 -13 -1 -27 -3 -31 -3 -5 -1 -8 -6
-8 -12 0 -5 6 -7 12 -3 7 5 21 9 31 9 18 2 65 45 48 45 -6 0 -14 -7 -19 -17z"/>
<path d="M1007 329 c7 -7 15 -10 18 -7 3 3 -2 9 -12 12 -14 6 -15 5 -6 -5z"/>
<path d="M1216 325 c-3 -9 -12 -12 -23 -9 -15 5 -16 4 -3 -5 12 -9 13 -11 1
-11 -8 0 -12 -3 -8 -6 3 -4 18 3 32 14 14 11 21 23 16 26 -5 3 -11 -1 -15 -9z"/>
<path d="M1817 325 c-9 -6 -14 -15 -10 -18 10 -10 25 -8 18 2 -3 5 5 11 17 13
17 2 19 5 8 9 -9 4 -23 1 -33 -6z"/>
<path d="M305 320 c-3 -5 -2 -17 3 -26 8 -14 10 -14 22 1 11 14 11 16 -1 13
-8 -2 -13 3 -11 10 2 14 -4 16 -13 2z"/>
<path d="M650 320 c0 -5 -6 -7 -14 -4 -8 3 -17 1 -21 -5 -3 -7 0 -8 9 -5 10 4
16 1 16 -7 1 -9 4 -8 11 4 6 10 17 16 27 13 9 -3 24 -1 32 4 11 7 5 10 -22 10
-21 0 -38 -4 -38 -10z"/>
<path d="M730 327 c0 -2 6 -10 14 -16 11 -9 16 -9 22 1 4 7 4 10 -1 6 -4 -4
-14 -3 -22 3 -7 6 -13 9 -13 6z"/>
<path d="M1066 319 c4 -7 44 0 44 7 0 2 -11 3 -24 2 -14 -1 -23 -5 -20 -9z"/>
<path d="M1308 316 c-15 -11 -13 -14 20 -26 39 -15 45 -17 63 -19 5 0 7 -7 3
-13 -4 -7 -4 -10 1 -6 4 4 14 0 22 -10 11 -15 12 -13 2 11 -7 15 -17 28 -23
29 -6 0 -16 2 -21 2 -6 1 -20 9 -33 18 -17 11 -20 17 -10 21 7 3 9 6 3 6 -5 0
-18 -5 -27 -13z"/>
<path d="M1496 317 c3 -8 11 -14 19 -14 20 0 19 4 -5 17 -15 8 -18 8 -14 -3z"/>
<path d="M1772 310 c-15 -25 -15 -30 0 -30 6 0 8 3 5 7 -4 3 -2 12 5 20 6 7 9
15 7 18 -3 2 -10 -5 -17 -15z"/>
<path d="M1961 311 c-34 -26 -13 -33 29 -10 23 13 27 17 11 13 -16 -4 -21 -3
-17 5 10 15 5 14 -23 -8z"/>
<path d="M2058 323 c6 -2 12 -11 12 -18 0 -18 31 -28 44 -15 8 8 6 9 -8 4 -15
-6 -17 -4 -11 6 5 8 4 11 -2 7 -6 -4 -13 0 -17 8 -3 8 -11 15 -18 14 -10 0
-10 -2 0 -6z"/>
<path d="M2139 313 c-8 -10 -9 -14 -2 -10 7 4 13 0 16 -10 4 -16 5 -16 6 1 1
12 6 16 16 12 21 -8 19 1 -4 13 -14 8 -22 7 -32 -6z"/>
<path d="M2260 320 c11 -7 11 -10 2 -10 -7 0 -10 -4 -7 -10 3 -5 1 -10 -6 -10
-7 0 -9 -3 -5 -7 8 -8 36 23 36 39 0 4 -8 8 -17 8 -15 0 -16 -2 -3 -10z"/>
<path d="M2775 321 c-3 -5 -1 -12 5 -16 5 -3 10 0 10 7 0 10 2 10 9 0 4 -8 12
-13 17 -12 15 3 15 -15 -2 -35 -8 -11 -13 -14 -9 -7 4 7 -1 12 -11 12 -13 0
-15 -3 -7 -11 6 -6 8 -19 6 -30 -4 -14 -9 -16 -23 -9 -10 6 -27 10 -37 10 -14
0 -12 -3 7 -13 14 -8 24 -20 22 -28 -2 -9 3 -7 17 5 12 11 21 25 21 33 0 7 7
13 16 13 9 0 12 5 8 12 -5 8 -2 9 9 5 9 -3 19 -2 22 3 4 6 11 10 16 10 6 0 8
-4 5 -8 -3 -5 1 -9 9 -9 8 0 15 4 15 9 0 4 -4 8 -9 8 -5 0 -16 6 -23 14 -13
13 -72 46 -82 46 -3 0 -7 -4 -11 -9z m79 -52 c-3 -5 -10 -7 -15 -3 -5 3 -7 10
-3 15 3 5 10 7 15 3 5 -3 7 -10 3 -15z"/>
<path d="M188 313 c-15 -2 -33 -12 -40 -22 -7 -9 -21 -20 -30 -24 -10 -3 -18
-16 -18 -27 0 -11 -4 -20 -9 -20 -14 0 -23 -32 -12 -43 6 -6 13 -1 20 12 7 12
9 21 5 21 -3 0 -1 7 6 15 6 8 8 20 4 26 -4 7 -3 9 4 5 6 -3 18 4 26 16 16 23
19 19 19 -25 0 -13 3 -15 10 -8 18 18 28 12 17 -8 -13 -25 -13 -31 1 -31 5 0
8 4 5 9 -3 5 3 20 15 35 15 19 18 30 10 44 -6 11 -7 22 -4 26 3 3 4 5 2 5 -2
-1 -16 -4 -31 -6z m13 -22 c-11 -7 -10 -10 4 -18 12 -7 14 -13 6 -17 -6 -4
-11 -2 -11 5 0 8 -3 9 -14 0 -11 -9 -13 -7 -11 11 3 29 2 28 23 28 13 0 14 -2
3 -9z m-108 -96 c-3 -9 -8 -14 -10 -11 -3 3 -2 9 2 15 9 16 15 13 8 -4z"/>
<path d="M230 311 c0 -5 6 -11 13 -14 8 -3 14 1 14 9 0 8 -6 14 -14 14 -7 0
-13 -4 -13 -9z"/>
<path d="M477 311 c-13 -5 -12 -8 8 -18 14 -6 23 -7 19 -2 -3 5 0 9 5 9 6 0
11 -5 11 -11 0 -11 69 -43 77 -35 8 8 -8 27 -18 21 -14 -10 -49 5 -49 20 0 7
6 15 13 18 6 2 -2 4 -18 4 -17 0 -38 -3 -48 -6z"/>
<path d="M572 308 c-7 -7 -12 -17 -12 -22 0 -6 5 -3 11 7 6 9 15 14 21 11 7
-4 8 -2 4 4 -9 15 -9 15 -24 0z"/>
<path d="M790 309 c0 -5 5 -7 10 -4 6 3 10 8 10 11 0 2 -4 4 -10 4 -5 0 -10
-5 -10 -11z"/>
<path d="M850 310 c8 -5 20 -10 25 -10 6 0 3 5 -5 10 -8 5 -19 10 -25 10 -5 0
-3 -5 5 -10z"/>
<path d="M917 309 c7 -7 15 -10 18 -7 3 3 -2 9 -12 12 -14 6 -15 5 -6 -5z"/>
<path d="M1116 312 c-3 -5 1 -9 9 -9 8 0 15 4 15 9 0 4 -4 8 -9 8 -6 0 -12 -4
-15 -8z"/>
<path d="M1155 294 c2 -31 20 -51 31 -33 4 7 3 14 -4 17 -7 2 -12 10 -12 17 0
8 -4 16 -8 19 -4 2 -7 -7 -7 -20z"/>
<path d="M1350 310 c0 -5 4 -10 9 -10 6 0 13 5 16 10 3 6 -1 10 -9 10 -9 0
-16 -4 -16 -10z"/>
<path d="M2205 301 c4 -14 3 -21 -2 -18 -5 4 -10 0 -10 -8 0 -10 4 -12 12 -5
7 5 15 6 20 2 4 -4 2 4 -5 18 -18 35 -24 39 -15 11z"/>
<path d="M2321 304 c0 -11 3 -14 6 -6 3 7 2 16 -1 19 -3 4 -6 -2 -5 -13z"/>
<path d="M2370 306 c0 -8 4 -17 9 -20 5 -4 7 3 4 14 -6 23 -13 26 -13 6z"/>
<path d="M693 290 c-8 -12 -9 -21 -3 -25 6 -4 10 -3 9 2 -3 19 2 25 14 15 8
-7 18 -8 27 -1 12 8 11 9 -5 7 -12 -2 -19 2 -17 10 3 19 -12 14 -25 -8z"/>
<path d="M956 299 c8 -13 44 -31 44 -22 0 4 -11 13 -25 20 -14 6 -23 7 -19 2z"/>
<path d="M1864 293 c-8 -14 -15 -14 -42 -5 -18 6 -30 7 -27 3 2 -5 17 -12 32
-16 15 -3 32 -12 36 -18 6 -8 7 -6 4 5 -8 23 3 30 22 15 14 -11 15 -10 1 8 -8
11 -15 21 -15 22 0 1 -5 -5 -11 -14z"/>
<path d="M2473 295 c0 -8 4 -12 9 -9 5 3 6 10 3 15 -9 13 -12 11 -12 -6z"/>
<path d="M2677 290 c-9 -11 -13 -20 -8 -20 11 0 35 29 29 35 -2 2 -12 -4 -21
-15z"/>
<path d="M360 291 c0 -7 -5 -9 -12 -5 -7 4 -8 3 -4 -4 4 -7 2 -12 -3 -12 -6 0
-11 -4 -11 -10 0 -5 3 -10 8 -10 10 0 35 41 28 48 -3 3 -6 0 -6 -7z"/>
<path d="M827 294 c-4 -4 -7 -12 -7 -18 0 -6 5 -4 10 4 9 13 11 13 21 0 9 -12
10 -12 7 -1 -5 17 -21 25 -31 15z"/>
<path d="M1039 283 c-12 -14 -12 -15 0 -9 10 7 12 3 6 -13 -3 -12 -2 -21 4
-21 5 0 18 -3 28 -6 12 -4 11 -1 -4 8 -16 10 -20 17 -13 28 20 32 3 42 -21 13z"/>
<path d="M1529 274 c-5 -15 -12 -31 -16 -37 -3 -5 0 -8 7 -5 7 2 14 11 16 19
1 7 5 22 9 32 4 9 4 17 1 17 -4 0 -11 -12 -17 -26z"/>
<path d="M2417 279 c5 -17 43 -16 43 2 0 5 -7 5 -17 2 -10 -4 -14 -2 -10 4 3
5 0 10 -7 10 -8 0 -11 -8 -9 -18z"/>
<path d="M2560 289 c0 -5 -5 -7 -10 -4 -15 9 -47 -3 -47 -19 0 -8 6 -12 14 -9
7 3 10 9 7 14 -3 5 9 6 26 3 25 -6 29 -4 24 10 -7 18 -14 21 -14 5z"/>
<path d="M2580 297 c0 -3 7 -13 16 -22 13 -12 14 -19 4 -30 -10 -12 -10 -18
-1 -29 10 -11 8 -17 -6 -25 -17 -9 -17 -10 0 -16 9 -4 17 -15 17 -24 0 -12 4
-11 18 7 16 21 20 22 31 8 17 -20 31 -12 24 14 -5 19 -25 40 -22 23 3 -20 -2
-27 -11 -13 -7 11 -10 11 -10 2 0 -7 -5 -10 -12 -6 -7 4 -8 3 -4 -4 4 -7 3
-12 -2 -12 -17 0 -22 13 -9 28 9 12 9 16 0 19 -7 3 -13 9 -13 14 0 6 5 7 10 4
6 -4 10 -3 9 2 -5 29 2 36 17 17 14 -18 15 -18 4 4 -7 13 -14 21 -17 18 -4 -3
-15 1 -25 11 -10 9 -18 13 -18 10z"/>
<path d="M267 270 c-9 -11 -13 -20 -7 -20 5 0 14 9 20 20 6 11 9 20 8 20 -2 0
-11 -9 -21 -20z"/>
<path d="M408 278 c5 -5 16 -8 23 -6 8 3 3 7 -10 11 -17 4 -21 3 -13 -5z"/>
<path d="M450 283 c0 -34 93 -89 172 -102 36 -6 45 -5 41 5 -3 8 -15 11 -31 8
-35 -7 -83 11 -76 29 3 9 -10 20 -38 33 -23 10 -44 17 -47 16 -2 -2 -8 2 -12
10 -7 10 -9 10 -9 1z m90 -55 c0 -14 -15 -8 -45 17 l-30 25 37 -17 c21 -10 38
-21 38 -25z"/>
<path d="M889 281 c-11 -4 -14 -12 -9 -26 7 -20 7 -20 14 1 5 17 12 21 29 16
22 -6 22 -6 -3 -13 l-25 -7 27 -1 c15 -1 29 3 32 8 8 12 -45 30 -65 22z"/>
<path d="M1011 274 c0 -11 3 -14 6 -6 3 7 2 16 -1 19 -3 4 -6 -2 -5 -13z"/>
<path d="M1213 272 c-6 -15 16 -44 28 -37 4 3 6 12 2 20 -3 9 1 15 10 15 9 0
23 3 33 7 11 4 15 3 10 -5 -3 -6 -1 -14 5 -18 8 -4 9 -3 5 4 -11 19 3 14 27
-8 49 -46 163 -93 142 -59 -4 6 -14 8 -23 4 -9 -3 -13 -3 -9 1 4 4 -5 13 -20
21 -14 7 -28 11 -31 8 -3 -3 -12 4 -19 15 -8 11 -19 18 -24 15 -5 -4 -9 -2 -9
3 0 27 -117 40 -127 14z m20 -12 c3 -11 1 -18 -4 -14 -5 3 -9 12 -9 20 0 20 7
17 13 -6z"/>
<path d="M1491 274 c0 -11 3 -14 6 -6 3 7 2 16 -1 19 -3 4 -6 -2 -5 -13z"/>
<path d="M1620 277 c-73 -39 -73 -39 -59 -48 12 -7 11 -9 -1 -10 -8 -1 -18 -1
-22 0 -5 0 -8 -3 -8 -8 0 -6 -8 -8 -18 -6 -11 2 -19 -3 -19 -11 0 -10 4 -11
14 -3 7 6 13 9 13 5 0 -4 13 0 30 9 16 8 29 21 27 28 -1 6 4 11 11 10 6 -2 12
2 12 8 0 5 4 8 9 5 14 -9 38 3 38 19 0 8 -1 15 -1 15 -1 0 -12 -6 -26 -13z"/>
<path d="M1660 281 c0 -5 6 -11 13 -14 8 -3 2 -15 -17 -36 -16 -17 -28 -32
-25 -34 2 -2 20 0 39 4 33 6 33 6 6 8 -24 1 -27 3 -16 16 10 12 15 13 20 4 10
-15 40 28 33 47 -6 15 -53 20 -53 5z m32 -33 c-8 -8 -9 -4 -5 13 4 13 8 18 11
10 2 -7 -1 -18 -6 -23z"/>
<path d="M1915 280 c3 -5 8 -10 11 -10 2 0 4 5 4 10 0 6 -5 10 -11 10 -5 0 -7
-4 -4 -10z"/>
<path d="M1985 276 c-19 -8 -25 -15 -17 -20 7 -4 12 -2 12 3 0 6 5 11 11 11 5
0 7 -6 4 -12 -3 -7 0 -6 7 4 11 15 15 15 62 -4 28 -11 57 -24 63 -30 7 -6 13
-7 13 -2 0 5 5 2 10 -6 8 -13 10 -12 10 3 0 15 -11 22 -32 18 -5 0 -8 4 -8 10
0 5 -4 8 -9 4 -5 -3 -12 -1 -16 5 -4 6 -11 8 -16 5 -5 -4 -9 -1 -9 4 0 6 -3
10 -7 10 -5 -1 -10 0 -13 1 -20 7 -40 6 -65 -4z"/>
<path d="M372 263 c-4 -10 -8 -25 -7 -33 0 -8 -6 -20 -15 -27 -13 -10 -11 -12
8 -8 19 3 22 2 12 -10 -9 -11 -7 -12 9 -8 12 3 18 9 15 15 -3 5 0 17 8 26 12
15 11 16 -4 4 -11 -9 -18 -10 -23 -2 -3 5 -2 10 4 10 6 0 8 7 4 16 -5 14 -3
15 18 4 24 -13 24 -13 5 9 -23 25 -23 25 -34 4z"/>
<path d="M635 270 c3 -5 -2 -10 -11 -10 -19 0 -11 -13 9 -16 7 -1 14 7 14 17
1 11 -3 19 -8 19 -6 0 -7 -4 -4 -10z"/>
<path d="M663 261 c0 -11 5 -18 9 -15 4 3 5 11 1 19 -7 21 -12 19 -10 -4z"/>
<path d="M2168 274 c-4 -3 -2 -18 2 -34 4 -16 6 -31 4 -33 -3 -2 8 -7 23 -10
26 -5 26 -4 8 9 -17 13 -24 29 -27 62 -1 14 -2 14 -10 6z"/>
<path d="M2310 261 c-13 -25 -13 -31 2 -31 6 0 8 3 5 6 -3 4 -2 15 4 25 5 11
7 19 5 19 -3 0 -10 -9 -16 -19z"/>
<path d="M296 258 c3 -5 10 -6 15 -3 13 9 11 12 -6 12 -8 0 -12 -4 -9 -9z"/>
<path d="M1786 261 c-4 -7 -6 -13 -5 -14 2 -2 13 -9 24 -17 18 -13 19 -13 9 0
-6 8 -13 22 -16 30 -3 11 -6 11 -12 1z"/>
<path d="M2360 255 c0 -8 9 -10 25 -7 14 2 25 6 25 7 0 1 -11 5 -25 7 -16 3
-25 1 -25 -7z"/>
<path d="M2480 263 c0 -6 -7 -10 -16 -9 -9 0 -18 -5 -20 -12 -1 -7 0 -8 2 -3
3 6 11 8 19 5 14 -6 31 13 21 23 -3 4 -6 2 -6 -4z"/>
<path d="M715 250 c-4 -6 -11 -7 -17 -4 -7 4 -8 2 -4 -5 6 -9 11 -9 22 0 14
11 18 19 10 19 -3 0 -8 -5 -11 -10z"/>
<path d="M745 250 c-3 -6 1 -7 9 -4 18 7 21 14 7 14 -6 0 -13 -4 -16 -10z"/>
<path d="M834 248 c-4 -5 -4 -11 -1 -14 6 -6 37 6 37 15 0 11 -30 9 -36 -1z"/>
<path d="M966 252 c-2 -4 7 -12 20 -19 13 -6 26 -8 29 -4 2 5 -7 13 -20 19
-13 6 -26 8 -29 4z"/>
<path d="M2263 245 c0 -8 4 -15 9 -15 4 0 8 4 8 9 0 6 -4 12 -8 15 -5 3 -9 -1
-9 -9z"/>
<path d="M2675 250 c-3 -5 3 -22 14 -36 12 -15 21 -23 21 -19 0 5 -7 17 -17
27 -9 10 -13 21 -9 25 4 4 12 1 17 -7 9 -13 10 -13 7 -1 -5 19 -24 25 -33 11z"/>
<path d="M1145 240 c3 -5 11 -10 16 -10 6 0 7 5 4 10 -3 6 -11 10 -16 10 -6 0
-7 -4 -4 -10z"/>
<path d="M1486 233 c-6 -14 -5 -15 5 -6 7 7 10 15 7 18 -3 3 -9 -2 -12 -12z"/>
<path d="M1725 230 c-10 -11 -13 -20 -7 -20 6 0 13 6 16 13 5 9 7 9 12 -1 8
-17 24 -5 17 13 -7 20 -16 19 -38 -5z"/>
<path d="M2760 240 c0 -5 5 -10 10 -10 6 0 10 5 10 10 0 6 -4 10 -10 10 -5 0
-10 -4 -10 -10z"/>
<path d="M312 215 c2 -21 4 -23 16 -11 8 8 11 19 8 25 -13 20 -26 12 -24 -14z"/>
<path d="M788 232 c9 -6 6 -12 -13 -20 -15 -7 -25 -8 -25 -2 0 6 5 10 12 10 6
0 9 3 5 6 -3 4 -14 4 -23 0 -13 -5 -14 -9 -4 -21 11 -13 16 -13 41 1 32 16 38
34 12 34 -13 0 -15 -2 -5 -8z"/>
<path d="M1105 230 c3 -5 11 -10 16 -10 6 0 7 5 4 10 -3 6 -11 10 -16 10 -6 0
-7 -4 -4 -10z"/>
<path d="M1880 225 c-14 -8 -20 -14 -14 -15 5 0 19 7 30 15 24 18 16 19 -16 0z"/>
<path d="M2390 233 c-8 -4 -20 -13 -26 -21 -6 -8 -23 -14 -38 -14 -20 0 -24
-3 -15 -9 10 -6 7 -9 -11 -10 -14 -1 -18 -3 -10 -5 28 -7 133 31 136 49 2 17
-9 20 -36 10z m10 -23 c-24 -15 -37 -11 -16 5 11 8 22 12 25 9 3 -3 -1 -9 -9
-14z"/>
<path d="M2894 233 c3 -6 0 -18 -7 -25 -12 -11 -12 -14 1 -24 13 -9 10 -13
-16 -22 -26 -9 -32 -8 -32 4 0 21 -13 17 -40 -11 -16 -17 -26 -21 -31 -14 -4
6 -12 8 -18 5 -15 -10 -14 -27 2 -25 24 3 34 -1 34 -16 0 -8 -6 -15 -14 -15
-7 0 -13 -5 -13 -11 0 -5 5 -7 12 -3 6 4 31 7 53 5 47 -2 70 16 60 48 -4 13 0
23 12 29 14 9 15 13 4 26 -8 9 -9 16 -3 16 12 0 10 26 -3 37 -4 4 -5 3 -1 -4z
m-72 -80 c-10 -19 -5 -43 8 -43 4 0 6 10 2 23 -5 19 -3 20 10 9 9 -7 18 -21
21 -31 4 -15 -1 -18 -31 -17 -40 1 -52 28 -25 58 20 23 26 23 15 1z m52 -19
c9 -24 2 -26 -12 -4 -7 11 -8 20 -3 20 5 0 12 -7 15 -16z"/>
<path d="M221 216 c-10 -12 -8 -17 11 -26 21 -10 22 -10 5 4 -18 14 -18 15 0
25 10 6 13 11 7 11 -6 0 -17 -6 -23 -14z"/>
<path d="M423 223 c4 -3 2 -11 -3 -18 -7 -8 -5 -12 5 -12 8 0 15 9 15 19 0 10
-5 18 -12 18 -6 0 -8 -3 -5 -7z"/>
<path d="M578 223 c7 -3 16 -2 19 1 4 3 -2 6 -13 5 -11 0 -14 -3 -6 -6z"/>
<path d="M1025 220 c-3 -5 -1 -10 4 -10 6 0 11 5 11 10 0 6 -2 10 -4 10 -3 0
-8 -4 -11 -10z"/>
<path d="M1190 218 c0 -5 -6 -6 -12 -2 -8 4 -10 3 -5 -2 10 -10 57 -13 57 -3
0 4 -9 9 -20 12 -11 3 -20 1 -20 -5z"/>
<path d="M2229 217 c5 -5 26 -7 47 -5 l39 3 -47 5 c-26 3 -43 1 -39 -3z"/>
<path d="M2635 220 c4 -6 11 -8 16 -5 14 9 11 15 -7 15 -8 0 -12 -5 -9 -10z"/>
<path d="M2816 208 c-9 -12 -26 -28 -38 -35 -13 -7 -17 -12 -10 -13 7 0 28 16
48 35 19 19 30 35 25 35 -5 0 -17 -10 -25 -22z"/>
<path d="M618 213 c7 -3 16 -2 19 1 4 3 -2 6 -13 5 -11 0 -14 -3 -6 -6z"/>
<path d="M683 213 c9 -2 23 -2 30 0 6 3 -1 5 -18 5 -16 0 -22 -2 -12 -5z"/>
<path d="M1050 211 c0 -5 14 -14 31 -20 40 -14 49 -14 49 1 0 6 -3 9 -6 5 -4
-3 -19 0 -35 8 -33 17 -39 18 -39 6z"/>
<path d="M1280 210 c13 -9 13 -11 1 -19 -8 -5 -20 -7 -27 -4 -6 2 -15 -1 -19
-7 -4 -7 2 -9 22 -4 15 3 38 5 50 5 22 -1 40 15 29 26 -3 3 -20 7 -38 9 -24 3
-29 1 -18 -6z m50 -16 c0 -2 -7 -4 -15 -4 -8 0 -15 4 -15 10 0 5 7 7 15 4 8
-4 15 -8 15 -10z"/>
<path d="M1600 201 c0 -18 26 -28 77 -30 28 -1 54 2 57 8 3 5 16 7 29 4 20 -4
20 -3 4 7 -10 7 -23 8 -30 3 -17 -12 -110 -8 -115 6 -4 13 -22 15 -22 2z"/>
<path d="M1797 196 c-4 -10 -1 -13 8 -9 8 3 12 9 9 14 -7 12 -11 11 -17 -5z"/>
<path d="M2727 196 c-4 -10 -1 -13 8 -9 8 3 12 9 9 14 -7 12 -11 11 -17 -5z"/>
<path d="M153 194 c8 -13 -20 -27 -35 -18 -5 3 -12 -3 -15 -15 -3 -12 -9 -21
-14 -21 -5 0 -6 -7 -2 -16 5 -14 8 -12 19 9 14 25 40 41 54 32 11 -7 7 22 -5
32 -4 4 -5 3 -2 -3z"/>
<path d="M260 190 c0 -6 7 -10 15 -10 8 0 15 2 15 4 0 2 -7 6 -15 10 -8 3 -15
1 -15 -4z"/>
<path d="M705 190 c3 -5 11 -10 16 -10 6 0 7 5 4 10 -3 6 -11 10 -16 10 -6 0
-7 -4 -4 -10z"/>
<path d="M2230 188 c0 -11 28 -10 35 1 3 6 -4 9 -15 8 -11 -1 -20 -5 -20 -9z"/>
<path d="M190 180 c0 -6 7 -13 15 -17 24 -9 27 1 5 15 -13 8 -20 8 -20 2z"/>
<path d="M1146 182 c-2 -4 7 -9 22 -10 21 -1 24 0 12 8 -18 12 -27 12 -34 2z"/>
<path d="M1200 180 c0 -5 5 -10 11 -10 5 0 7 5 4 10 -3 6 -8 10 -11 10 -2 0
-4 -4 -4 -10z"/>
<path d="M420 180 c-8 -26 -7 -41 2 -32 6 6 8 16 5 24 -3 7 -6 11 -7 8z"/>
<path d="M248 153 c7 -3 16 -2 19 1 4 3 -2 6 -13 5 -11 0 -14 -3 -6 -6z"/>
<path d="M320 151 c0 -10 19 -25 25 -20 1 2 -3 10 -11 17 -8 7 -14 8 -14 3z"/>
<path d="M357 143 c3 -7 9 -10 14 -7 5 3 9 0 9 -5 0 -6 -7 -11 -15 -11 -8 0
-15 -5 -15 -11 0 -17 22 -5 39 21 10 14 11 21 4 16 -7 -4 -13 -3 -13 2 0 5 -6
9 -14 9 -8 0 -12 -6 -9 -14z"/>
<path d="M200 150 c-1 -3 -4 -16 -6 -30 -3 -18 -2 -22 7 -13 6 6 9 19 6 29 -3
11 -6 17 -7 14z"/>
<path d="M230 130 c12 -7 12 -12 2 -22 -23 -23 -12 -33 33 -32 50 1 71 14 62
38 -7 18 -27 22 -27 5 0 -5 5 -7 10 -4 6 3 10 -2 10 -11 0 -10 -3 -15 -6 -11
-3 3 -17 2 -30 -3 -15 -6 -24 -6 -24 0 0 5 -7 7 -16 3 -15 -6 -15 -4 0 18 15
24 15 25 -7 26 -17 2 -18 0 -7 -7z"/>
<path d="M270 120 c0 -5 5 -10 11 -10 5 0 7 5 4 10 -3 6 -8 10 -11 10 -2 0 -4
-4 -4 -10z"/>
<path d="M2653 118 c3 -19 20 -28 40 -22 9 3 17 0 17 -6 0 -6 5 -8 10 -5 6 3
10 11 10 16 0 6 -4 7 -10 4 -5 -3 -10 -2 -10 4 0 5 6 12 13 14 7 4 8 6 1 6 -6
1 -17 -6 -24 -14 -7 -8 -16 -15 -21 -15 -5 0 -9 7 -9 15 0 8 -4 15 -10 15 -5
0 -9 -6 -7 -12z"/>
<path d="M138 107 c12 -7 19 -16 15 -21 -9 -9 16 -26 40 -26 9 0 17 4 17 10 0
5 -6 7 -14 4 -7 -3 -21 6 -30 20 -9 15 -24 26 -34 26 -13 -1 -12 -3 6 -13z"/>
</g>
</svg>
