<?xml version="1.0" standalone="no"?>
<!DOCTYPE svg PUBLIC "-//W3C//DTD SVG 20010904//EN"
 "http://www.w3.org/TR/2001/REC-SVG-20010904/DTD/svg10.dtd">
<svg version="1.0" xmlns="http://www.w3.org/2000/svg"
 width="561.000000pt" height="525.000000pt" viewBox="0 0 561.000000 525.000000"
 preserveAspectRatio="xMidYMid meet">
<metadata>
Created by potrace 1.10, written by Peter Selinger 2001-2011
</metadata>
<g transform="translate(0.000000,525.000000) scale(0.100000,-0.100000)"
fill="#193e13" stroke="none">
<path d="M2505 4664 c-97 -6 -250 -27 -289 -41 -21 -7 -51 -13 -66 -13 -34 0
-168 -34 -240 -61 -30 -11 -71 -24 -90 -29 -19 -4 -57 -19 -85 -34 -27 -14
-54 -26 -59 -26 -4 0 -28 -13 -53 -30 -24 -16 -47 -30 -50 -30 -15 0 -154 -98
-233 -165 -75 -62 -166 -129 -218 -160 -50 -29 -221 -187 -259 -240 -25 -33
-73 -118 -108 -190 -62 -127 -71 -149 -114 -270 -135 -379 -164 -760 -91
-1177 15 -88 73 -276 116 -376 8 -18 14 -37 14 -43 0 -5 27 -67 61 -136 56
-116 60 -130 54 -172 -16 -108 -11 -153 20 -213 54 -103 197 -248 278 -282 69
-30 170 -56 217 -56 27 0 51 -4 55 -10 7 -11 200 -140 211 -140 4 0 15 -6 23
-13 9 -7 36 -21 61 -31 25 -10 67 -30 94 -44 75 -38 202 -80 306 -102 201 -41
560 -57 644 -30 16 6 49 10 73 10 61 0 242 43 321 76 18 8 39 14 47 14 8 0 37
13 65 30 28 16 56 30 62 30 12 0 212 132 243 161 22 20 122 49 167 49 16 0 45
7 65 15 19 8 45 15 58 15 27 0 79 38 165 120 36 34 92 83 125 108 33 26 73 62
90 81 16 19 37 42 45 50 88 90 182 212 220 287 81 159 102 218 145 429 9 44
21 98 26 120 14 61 31 427 24 545 -7 128 -31 309 -49 370 -8 25 -22 81 -31
125 -10 44 -24 90 -31 102 -8 12 -14 28 -14 35 -1 7 -25 60 -55 118 -30 58
-68 132 -85 164 -16 33 -38 69 -48 80 -10 12 -24 33 -31 48 -8 14 -32 48 -54
75 -22 26 -63 80 -92 118 -73 97 -265 290 -353 356 -40 30 -79 60 -87 66 -55
51 -283 178 -363 203 -15 5 -52 18 -82 30 -61 24 -135 42 -285 71 -94 18 -298
23 -480 13z m380 -55 c50 -5 124 -16 165 -24 114 -22 353 -111 432 -161 21
-13 40 -24 44 -24 20 0 189 -128 181 -137 -2 -1 -35 12 -73 31 -217 106 -342
155 -464 180 -47 10 -102 24 -123 32 -20 8 -54 14 -75 14 -20 0 -61 7 -90 14
-62 17 -253 21 -430 10 -67 -4 -121 -8 -119 -10 1 -2 110 -6 242 -9 132 -4
256 -11 275 -16 19 -5 89 -20 155 -33 158 -31 478 -142 526 -183 8 -7 20 -13
26 -13 5 0 30 -11 54 -25 24 -13 69 -38 99 -55 30 -16 68 -40 85 -53 16 -12
56 -42 89 -66 81 -61 254 -237 291 -296 11 -16 38 -55 61 -86 44 -58 89 -130
134 -214 15 -27 34 -63 43 -80 101 -183 150 -368 168 -639 16 -253 -8 -611
-50 -719 -6 -16 -11 -45 -11 -65 0 -37 -21 -112 -60 -212 -12 -30 -25 -67 -30
-82 -9 -30 -48 -108 -76 -154 -10 -17 -50 -67 -89 -110 -159 -180 -179 -194
-222 -156 -11 9 -48 38 -82 64 -74 58 -74 60 -26 218 7 25 23 79 35 120 13 41
32 89 44 105 13 17 26 37 29 45 4 8 16 29 27 45 10 17 30 54 45 83 14 28 29
52 33 52 5 0 13 12 19 28 l11 27 1 -27 c1 -16 -3 -28 -9 -28 -5 0 -10 -13 -10
-29 0 -16 -7 -34 -15 -41 -8 -7 -15 -19 -15 -27 0 -8 -6 -27 -14 -41 -74 -142
-89 -182 -67 -182 5 0 14 12 20 28 6 15 22 47 36 71 14 24 25 50 25 57 0 7 4
14 8 16 10 4 52 85 52 101 0 7 5 18 11 24 13 13 48 109 49 132 0 8 10 35 21
59 24 49 42 170 60 395 20 261 -3 479 -69 672 -6 17 -19 58 -28 93 -10 35 -21
65 -25 68 -4 2 -19 28 -34 57 -69 139 -146 252 -291 430 -14 17 -19 37 -9 37
9 0 161 -155 200 -205 89 -112 159 -215 242 -360 50 -88 113 -234 113 -263 0
-15 4 -42 10 -60 5 -19 14 -75 20 -125 6 -51 13 -108 16 -127 3 -19 6 -105 7
-190 2 -151 -9 -277 -38 -430 -8 -41 -19 -100 -24 -130 -5 -30 -16 -80 -25
-110 -9 -30 -21 -68 -26 -85 -4 -16 -18 -55 -30 -85 -26 -65 -36 -120 -22
-120 5 0 16 15 22 33 23 61 39 102 61 157 12 30 25 82 29 115 5 33 15 83 24
110 47 151 59 235 63 466 3 139 1 241 -7 285 -6 38 -15 103 -20 144 -8 72 -26
149 -51 228 -17 51 -52 122 -61 122 -5 0 -8 7 -8 16 0 19 -85 192 -105 214 -8
9 -15 20 -15 25 0 19 -149 202 -244 298 -104 105 -209 190 -320 257 -32 19
-70 44 -85 56 -28 23 -177 88 -226 99 -16 3 -52 17 -80 30 -84 39 -296 100
-430 124 -113 20 -617 23 -637 3 -9 -9 -2 -20 29 -49 21 -21 46 -49 54 -63 47
-78 67 -234 34 -270 -22 -24 -119 -50 -187 -50 -80 0 -93 19 -96 136 -4 144
31 247 89 259 16 4 31 11 34 16 9 14 -96 11 -146 -5 -24 -8 -71 -21 -104 -30
-127 -34 -173 -51 -258 -92 -16 -8 -37 -14 -47 -14 -9 0 -23 -7 -30 -15 -7 -8
-19 -15 -27 -15 -8 0 -27 -6 -41 -13 -15 -8 -58 -29 -97 -48 -68 -33 -175
-101 -224 -144 -56 -48 -112 -107 -107 -113 4 -3 19 7 34 21 16 15 31 27 35
27 4 0 33 20 66 45 32 25 62 45 66 45 3 0 36 19 73 43 37 23 87 53 112 65 25
13 52 27 60 31 8 5 39 20 68 32 28 13 52 27 52 31 0 5 18 8 40 8 22 0 40 -4
40 -9 0 -5 -24 -21 -52 -36 -72 -38 -294 -186 -340 -227 -20 -18 -60 -51 -88
-73 -45 -35 -110 -131 -142 -207 -4 -9 -18 -35 -32 -57 -14 -22 -26 -46 -26
-53 0 -6 -6 -19 -14 -27 -18 -21 -106 -234 -106 -257 0 -11 -7 -28 -15 -38 -8
-11 -15 -27 -15 -37 0 -9 -7 -30 -15 -45 -17 -32 -20 -104 -5 -104 5 0 12 16
16 35 3 19 12 39 20 46 8 7 14 31 14 60 0 37 4 49 15 49 9 0 15 9 15 24 0 30
18 44 26 22 3 -9 -1 -27 -10 -41 -9 -13 -16 -35 -16 -47 0 -13 -6 -33 -14 -43
-8 -11 -16 -45 -18 -75 -5 -53 -14 -119 -38 -260 -7 -36 -15 -127 -18 -202 -4
-75 -10 -139 -13 -143 -15 -14 -19 312 -5 460 4 53 4 56 -5 25 -6 -19 -16 -46
-21 -60 -6 -14 -13 -116 -16 -227 -4 -163 -2 -216 11 -270 9 -38 19 -83 22
-101 4 -18 16 -42 27 -52 18 -17 19 -22 7 -36 -18 -22 -13 -74 16 -161 28 -85
42 -113 56 -113 5 0 42 30 82 68 136 127 240 210 420 336 53 37 75 47 100 44
49 -5 47 -36 -5 -116 -102 -154 -156 -305 -163 -452 -2 -47 -9 -107 -15 -135
-6 -27 -18 -84 -25 -125 -22 -120 -31 -151 -63 -228 -32 -78 -61 -121 -123
-182 -69 -68 -89 -80 -134 -80 -36 0 -48 7 -98 53 -31 29 -57 56 -57 60 0 4
-14 29 -30 55 -30 50 -38 86 -20 97 5 3 16 -9 25 -27 l15 -33 -5 50 c-8 82
-17 119 -33 137 -13 16 -13 20 4 44 11 15 24 35 30 46 15 25 60 49 79 42 7 -3
23 0 35 6 30 16 23 52 -12 61 -15 4 -35 15 -44 24 -18 18 -45 17 -52 -2 -2 -8
5 -13 18 -13 32 0 25 -54 -8 -58 -14 -2 -27 -14 -34 -30 -10 -27 -10 -27 -20
-5 -8 16 -6 30 6 54 19 39 17 43 -18 29 -15 -5 -32 -10 -37 -10 -6 0 -26 35
-45 78 -19 42 -38 84 -43 93 -5 9 -13 34 -17 55 -3 22 -11 47 -16 57 -13 24
-63 225 -83 332 -12 65 -17 151 -18 310 -2 202 0 232 26 370 46 245 86 395
133 488 8 16 14 33 14 38 0 15 72 158 125 249 29 50 79 114 120 155 114 115
356 289 523 377 42 23 88 47 102 55 14 7 35 13 48 13 12 0 22 4 22 9 0 6 20
13 45 17 25 3 48 10 51 15 3 5 21 9 41 9 19 0 47 6 61 14 49 25 106 46 157 56
48 10 176 29 203 30 7 0 10 5 6 11 -7 13 -167 5 -188 -9 -10 -6 -65 -20 -161
-39 -16 -3 -39 -11 -50 -18 -11 -7 -32 -15 -47 -19 -16 -4 -28 -11 -28 -16 0
-6 -18 -10 -40 -10 -22 0 -40 4 -40 10 0 9 80 50 98 50 5 0 23 7 38 15 16 8
36 15 45 15 8 0 24 7 35 15 10 8 35 15 55 15 19 0 39 4 45 9 12 12 113 37 231
57 109 18 481 44 528 37 17 -2 71 -8 120 -14z m-1205 -229 c0 -5 -13 -10 -30
-10 -16 0 -30 5 -30 10 0 6 14 10 30 10 17 0 30 -4 30 -10z m1124 -31 c49 -38
85 -132 96 -244 4 -44 4 -89 0 -100 -10 -27 -63 -53 -122 -60 -26 -3 -53 -12
-60 -19 -11 -10 -23 -8 -66 12 l-54 24 5 112 c6 151 27 243 61 273 36 30 103
31 140 2z m-971 -201 c14 -29 37 -70 52 -92 14 -21 32 -63 40 -94 24 -92 18
-132 -20 -132 -12 0 -28 -7 -35 -15 -7 -8 -25 -15 -41 -15 -16 0 -47 -9 -69
-21 -54 -28 -82 -20 -100 28 -21 59 -11 305 13 337 17 21 88 56 114 56 16 0
28 -13 46 -52z m551 -181 c-4 -11 -17 -17 -35 -17 -34 0 -37 12 -8 41 18 18
23 19 35 7 8 -8 12 -22 8 -31z m-75 -11 c7 -8 9 -25 5 -41 -5 -19 -12 -25 -28
-23 -24 3 -34 41 -16 64 15 18 24 18 39 0z m-71 -20 c11 -11 11 -16 -4 -30
-10 -11 -26 -16 -38 -12 -54 13 -96 32 -96 43 0 25 113 24 138 -1z m192 -65
c24 -66 36 -166 22 -175 -5 -3 -29 3 -52 13 -39 17 -46 18 -78 4 -38 -16 -112
-73 -112 -87 0 -4 12 -5 26 -2 52 13 82 -13 47 -40 -26 -20 -61 -17 -68 5 -3
10 -18 21 -33 24 -29 6 -37 24 -77 166 -28 100 -15 127 44 97 61 -32 190 -10
232 40 19 23 29 13 49 -45z m385 39 c4 -6 1 -17 -5 -25 -29 -35 26 -41 78 -8
12 7 27 11 32 8 6 -3 10 -41 10 -83 0 -42 4 -91 9 -109 13 -44 -10 -65 -40
-37 -37 34 -181 19 -231 -24 -25 -21 -52 -11 -59 23 -4 17 -7 76 -8 133 -1
117 -3 116 89 82 30 -11 67 -20 83 -20 24 0 26 2 17 19 -5 11 -10 27 -10 35 0
18 25 22 35 6z m-915 -167 c0 -25 18 -30 50 -13 23 12 50 3 50 -17 0 -8 6 -27
14 -41 58 -112 59 -131 6 -147 -19 -6 -46 -17 -60 -24 l-25 -14 33 -14 c26
-11 32 -19 32 -44 0 -27 -3 -30 -27 -27 -23 2 -29 9 -33 38 -5 33 -7 35 -42
34 -26 -1 -48 -10 -73 -33 -39 -34 -57 -38 -74 -17 -19 23 -58 150 -66 214 -7
60 -6 62 17 62 12 0 40 -5 61 -11 51 -14 93 6 89 41 -1 14 0 36 3 49 6 22 7
23 25 6 11 -10 20 -29 20 -42z m44 36 c-7 -11 -34 -12 -34 -1 0 14 11 21 26
15 8 -3 11 -9 8 -14z m-136 -41 c-2 -17 -11 -24 -30 -26 -19 -2 -28 1 -28 10
0 20 21 38 43 38 13 0 18 -6 15 -22z m561 -58 c10 -5 22 -25 25 -45 9 -45 -8
-77 -37 -73 -17 2 -25 14 -35 57 -11 45 -11 55 0 62 17 11 25 11 47 -1z m-966
-16 c62 -21 109 -75 136 -156 22 -66 21 -92 -5 -102 -8 -3 -40 -22 -71 -43
-58 -37 -58 -37 -29 -43 37 -6 47 -30 14 -30 -13 0 -29 5 -35 11 -8 8 -17 8
-31 0 -28 -15 -42 -14 -42 4 0 8 -13 47 -29 87 -53 134 -50 235 7 270 33 21
29 21 85 2z m1050 -35 c-7 -7 -19 -9 -28 -5 -13 5 -14 10 -4 27 10 20 12 20
27 5 12 -12 13 -19 5 -27z m385 -7 c4 -38 -20 -54 -45 -29 -23 23 -9 69 20 65
17 -2 23 -11 25 -36z m-93 -18 c0 -24 -37 -31 -55 -10 -10 13 -9 17 11 25 32
13 44 8 44 -15z m159 7 c3 -5 -1 -11 -9 -15 -15 -6 -29 7 -18 18 9 9 21 8 27
-3z m819 -14 c26 -7 55 -21 64 -30 15 -15 15 -18 1 -34 -50 -58 -138 -332
-138 -429 0 -22 -11 -55 -26 -82 -28 -47 -64 -167 -64 -213 0 -14 -7 -46 -16
-72 -20 -58 -31 -59 -164 -15 -124 41 -172 63 -200 93 -13 14 -31 25 -40 25
-19 0 -64 -38 -73 -61 -5 -12 -7 -12 -16 1 -5 8 -13 11 -17 7 -4 -4 -2 -13 4
-19 18 -18 14 -38 -10 -58 -30 -24 -38 -17 -38 34 0 71 -40 87 -90 37 -26 -26
-29 -35 -29 -92 0 -35 -5 -95 -11 -134 -8 -49 -8 -71 -1 -73 17 -6 14 -72 -3
-72 -17 0 -28 24 -20 45 4 10 0 15 -14 15 -13 0 -23 -9 -28 -22 -7 -22 -7
-108 -1 -115 2 -1 19 12 38 30 53 49 103 70 122 51 19 -20 -73 -84 -120 -84
-20 0 -23 -5 -23 -39 0 -22 5 -43 10 -46 10 -6 43 25 95 89 17 21 26 24 57 19
62 -9 88 33 53 84 -12 17 -22 20 -55 16 -39 -6 -40 -5 -40 26 0 24 -4 31 -19
31 -11 0 -21 -3 -24 -7 -2 -5 -1 -1 2 7 2 8 7 56 10 106 6 90 19 124 47 124
20 0 18 -103 -2 -157 -9 -23 -13 -50 -10 -59 6 -15 11 -13 39 13 18 17 42 34
55 38 29 8 28 25 -1 25 -36 0 -39 11 -13 35 31 28 82 37 99 17 8 -11 9 -16 1
-19 -6 -2 -20 -10 -30 -18 -17 -13 -18 -15 -3 -30 9 -9 36 -19 59 -22 49 -7
70 11 70 58 0 36 -22 57 -68 64 -65 11 -67 13 -26 46 61 49 69 51 106 31 18
-9 35 -19 38 -23 11 -12 78 -49 89 -49 6 0 39 -13 74 -29 34 -15 75 -32 91
-37 44 -14 54 -37 33 -79 -9 -19 -23 -50 -31 -68 -8 -17 -26 -58 -41 -91 -15
-32 -31 -85 -35 -117 -5 -32 -11 -63 -15 -68 -8 -14 -45 -210 -45 -241 0 -32
-91 -173 -130 -201 -25 -19 -30 -32 -40 -105 -7 -45 -9 -95 -6 -111 6 -27 -1
-79 -23 -173 -6 -25 -14 -101 -18 -170 l-8 -125 -40 -13 c-22 -8 -112 -18
-200 -24 -88 -5 -173 -10 -190 -11 -21 -1 -30 3 -33 15 -4 19 17 42 71 78 27
19 37 32 37 52 0 50 -63 64 -94 21 -17 -23 -18 -26 -2 -35 27 -15 17 -41 -30
-80 -46 -39 -74 -48 -74 -25 1 16 25 47 37 47 6 0 18 12 28 26 15 24 15 26 0
38 -17 12 -17 17 -3 163 5 41 67 113 115 133 47 20 32 110 -18 110 -22 0 -69
-45 -69 -66 0 -20 -18 -17 -30 5 -7 13 -7 28 0 46 5 14 10 49 10 76 0 42 3 51
23 60 13 6 32 24 42 41 10 17 36 38 61 50 24 10 48 27 53 37 14 25 -9 65 -39
69 -29 3 -73 -26 -52 -34 29 -13 11 -50 -50 -102 -55 -48 -63 -52 -76 -38 -20
20 -3 62 30 76 31 13 74 47 67 54 -3 3 -19 8 -35 11 -25 5 -31 2 -44 -27 -8
-18 -23 -34 -32 -36 -15 -3 -18 4 -18 42 0 40 3 46 21 46 18 0 20 4 14 28 -3
15 -12 39 -20 55 -16 32 -40 209 -32 232 4 8 18 15 32 15 25 0 31 13 19 44 -4
11 -19 16 -48 16 -36 0 -45 -4 -54 -25 -17 -36 -15 -45 14 -101 15 -27 30 -76
35 -109 4 -33 11 -76 14 -95 6 -29 2 -39 -19 -59 -32 -30 -32 -37 -3 -92 44
-84 71 -169 58 -182 -15 -15 -41 14 -78 88 -34 69 -46 90 -63 110 -15 18 -20
108 -7 121 4 5 17 3 27 -4 24 -15 24 -7 1 33 -12 20 -27 31 -46 33 -56 7 -75
-67 -30 -120 14 -16 25 -38 25 -48 0 -21 18 -67 35 -90 9 -12 31 -77 51 -147
2 -7 13 -13 24 -13 15 0 26 -11 36 -35 20 -48 18 -76 -6 -82 -11 -3 -20 -14
-20 -24 0 -10 9 -23 20 -29 13 -7 20 -7 20 -1 0 14 82 92 93 88 15 -5 9 -21
-25 -64 -18 -23 -41 -42 -51 -43 -15 0 -18 -7 -15 -32 2 -28 -1 -34 -20 -36
-14 -2 -24 3 -29 15 -7 22 -43 63 -55 63 -4 0 -8 -9 -8 -20 0 -11 5 -20 10
-20 6 0 10 -6 10 -14 0 -7 7 -19 15 -26 11 -9 13 -16 5 -24 -13 -13 -13 -66 0
-66 5 0 14 9 20 20 9 16 15 18 31 10 17 -10 19 -19 15 -69 -2 -33 -7 -64 -10
-70 -15 -24 -34 -10 -40 29 -4 29 -13 43 -29 50 -36 15 -55 35 -63 64 -3 15
-17 34 -30 43 -22 14 -26 14 -49 -1 -35 -23 -33 -67 7 -122 17 -24 35 -44 40
-44 15 0 8 26 -12 50 -22 26 -23 29 -11 48 7 12 12 12 30 0 27 -16 143 -187
138 -202 -2 -6 -18 -12 -35 -14 -22 -2 -35 2 -43 17 -13 19 -13 19 -24 -2 -9
-18 -23 -23 -80 -30 -75 -9 -151 -2 -161 14 -8 13 -10 62 -19 384 -4 166 -12
279 -19 294 -6 14 -34 43 -61 65 -58 46 -101 100 -134 166 -12 25 -26 52 -31
60 -5 8 -52 103 -104 210 -53 107 -107 216 -121 241 -34 62 -27 91 31 125 24
14 44 29 44 34 0 16 -28 18 -51 5 -64 -37 -68 -38 -83 -26 -19 16 -66 106 -66
126 0 18 29 20 63 4 32 -14 141 21 189 61 29 24 33 34 33 75 0 29 -5 51 -15
59 -14 11 -40 50 -40 61 0 13 31 2 68 -25 44 -32 82 -39 82 -16 0 8 -14 19
-30 25 -54 18 -52 78 2 111 28 17 34 18 48 5 25 -22 30 -19 30 19 0 48 35 60
63 22 17 -24 20 -25 31 -10 10 13 17 14 34 5 25 -13 35 -41 26 -75 -7 -30 -34
-35 -34 -7 0 11 -3 26 -6 35 -12 32 -23 15 -26 -41 -3 -55 -5 -58 -30 -61 -24
-3 -28 1 -34 34 -7 36 -7 37 -16 14 -5 -13 -8 -40 -6 -60 3 -34 4 -35 45 -33
105 5 162 88 138 201 -9 40 15 45 35 7 22 -41 74 -68 116 -60 22 4 41 2 50 -6
11 -9 27 -7 73 6 86 26 97 38 121 130 21 85 21 81 -7 321 -3 28 -2 54 3 57 5
2 50 1 101 -4 80 -7 100 -6 154 12 71 24 73 23 88 -56 14 -70 18 -282 5 -295
-7 -7 -19 -1 -39 20 -25 27 -35 30 -87 30 -39 0 -70 -7 -97 -21 -40 -20 -91
-65 -91 -79 0 -28 34 -77 70 -101 62 -42 138 -41 204 2 26 17 53 44 61 60 8
15 19 30 24 33 4 3 23 -18 41 -47 44 -69 54 -161 21 -191 -19 -18 -39 -20
-196 -20 -125 -1 -178 -5 -187 -13 -6 -7 -27 -13 -45 -13 -18 0 -47 -6 -65
-14 -50 -22 -134 -46 -160 -46 -13 0 -36 -7 -52 -15 -15 -8 -38 -15 -50 -15
-11 -1 -32 -7 -46 -15 -14 -8 -42 -14 -62 -15 -38 0 -100 -19 -150 -46 -14 -8
-37 -14 -50 -15 -46 -1 -160 -60 -145 -75 4 -4 17 -3 30 3 91 42 176 72 207
73 26 0 100 22 158 46 18 8 45 14 60 14 15 1 38 7 52 15 14 8 35 14 47 15 12
0 37 6 55 14 18 8 83 27 143 42 93 24 132 29 255 30 137 2 146 1 162 -19 l17
-22 10 26 c11 32 38 44 58 27 12 -10 18 -7 34 12 28 37 77 145 85 188 4 20 13
49 20 64 8 15 14 48 14 73 0 25 9 74 21 108 51 154 109 205 314 275 40 13 42
13 98 -1z m-1207 -34 c34 -80 72 -190 78 -228 9 -59 -1 -68 -55 -54 -67 18
-107 6 -182 -57 -66 -54 -87 -60 -87 -26 0 9 -11 41 -25 70 -13 28 -27 69 -30
90 -4 20 -16 64 -27 97 -26 78 -19 83 107 79 94 -3 95 -3 137 31 24 18 49 34
55 34 7 1 20 -16 29 -36z m-606 -138 c0 -21 -27 -30 -45 -15 -19 16 -10 30 21
30 15 0 24 -6 24 -15z m233 -71 c38 -105 59 -183 54 -197 -2 -8 -32 -12 -80
-13 -69 -1 -79 -4 -115 -33 -22 -17 -44 -31 -49 -31 -6 0 -18 -9 -28 -20 -12
-13 -29 -20 -44 -18 -23 3 -30 14 -58 98 -17 52 -32 105 -32 117 -1 12 -9 38
-18 58 -24 50 -10 62 57 47 27 -6 71 -9 97 -5 46 6 123 41 153 69 24 23 34 12
63 -72z m-606 -21 c5 -15 -36 -28 -49 -15 -6 6 -7 15 -3 22 9 14 47 9 52 -7z
m103 -45 c47 -83 40 -109 -35 -123 -52 -9 -89 -29 -114 -61 -11 -14 -28 -24
-38 -22 -22 4 -72 102 -73 140 0 28 6 32 75 44 50 8 114 40 122 59 10 28 33
15 63 -37z m877 -60 c18 -16 23 -32 23 -68 0 -63 -19 -88 -57 -75 -26 10 -29
16 -35 75 -10 89 18 116 69 68z m368 -2 c16 -11 20 -27 20 -76 0 -66 -15 -90
-49 -77 -13 5 -16 21 -16 80 0 90 7 101 45 73z m-287 -34 c5 -30 -6 -58 -17
-46 -5 5 -11 24 -15 42 -5 28 -3 33 12 30 9 -2 18 -14 20 -26z m-190 -5 c18
-21 26 -95 13 -111 -10 -12 -18 -13 -39 -4 -53 23 -66 60 -34 103 19 27 44 32
60 12z m392 -6 c5 -11 10 -38 10 -60 0 -37 -3 -41 -24 -41 -26 0 -66 41 -66
67 0 28 21 53 45 53 14 0 29 -8 35 -19z m174 -23 c8 -14 6 -22 -12 -40 -28
-29 -47 -13 -37 32 7 34 30 38 49 8z m-1336 -21 c6 -7 9 -23 5 -35 -5 -19 -10
-22 -38 -16 -27 5 -35 2 -44 -15 -13 -23 -71 -30 -71 -8 0 14 45 37 72 37 10
0 22 8 25 18 12 31 34 40 51 19z m118 -49 c39 -43 67 -99 62 -123 -3 -16 -10
-19 -34 -17 -42 4 -78 -28 -100 -86 -10 -26 -28 -57 -40 -70 l-21 -23 -29 24
c-38 32 -120 187 -111 210 4 10 17 17 31 17 31 0 107 28 121 45 6 7 20 15 32
19 11 4 24 13 27 21 9 24 30 18 62 -17z m46 -205 c10 -9 18 -24 18 -34 0 -10
7 -25 16 -33 18 -18 11 -51 -13 -60 -35 -14 -96 85 -80 128 8 21 36 20 59 -1z
m73 -32 c0 -19 -6 -36 -12 -38 -8 -3 -13 4 -13 15 0 12 -7 27 -15 36 -22 21
-19 28 13 24 24 -3 27 -7 27 -37z m-115 -82 c0 -3 -6 -14 -14 -24 -12 -16 -19
-18 -43 -10 -38 14 -46 66 -11 82 20 10 26 8 45 -15 13 -15 23 -30 23 -33z
m1838 -107 c4 -24 -18 -38 -43 -28 -12 4 -13 10 -3 31 14 31 42 29 46 -3z
m-1928 -183 c0 -20 -24 -26 -35 -9 -8 13 14 42 26 34 5 -3 9 -14 9 -25z m37
-96 c-23 -51 -52 -3 -30 52 5 16 8 15 23 -6 14 -18 16 -28 7 -46z m57 -65 c9
-17 16 -37 16 -44 0 -23 -39 -43 -68 -35 -38 10 -41 49 -6 84 34 34 39 34 58
-5z m1798 -25 c15 -15 28 -31 28 -37 0 -5 6 -17 14 -25 53 -61 155 -305 177
-426 36 -198 -16 -471 -125 -649 -23 -39 -55 -92 -70 -118 -53 -94 -203 -220
-356 -301 -98 -51 -260 -109 -370 -131 -169 -34 -541 -29 -705 9 -241 57 -280
68 -280 86 0 19 108 32 155 19 50 -14 87 -12 114 5 39 26 120 36 336 45 317
12 543 30 560 44 8 8 27 16 43 20 15 3 27 11 27 16 0 6 9 10 19 10 11 0 26 6
33 14 8 7 34 24 58 36 48 24 220 192 220 214 0 3 13 28 30 55 84 144 134 372
123 569 -7 120 7 136 30 35 34 -146 29 -212 -27 -398 -44 -149 -110 -281 -180
-364 -80 -94 -229 -214 -306 -246 -8 -4 -37 -17 -65 -30 -44 -22 -47 -24 -22
-25 25 0 67 16 177 68 88 42 222 169 296 280 39 59 94 161 94 176 0 6 6 23 14
37 14 27 33 89 60 196 47 183 -8 454 -129 642 -46 70 -55 89 -55 114 0 34 26
87 42 87 7 0 25 -12 40 -27z m-1940 -76 c-6 -12 -19 -53 -28 -92 -9 -38 -23
-82 -30 -97 -8 -15 -14 -47 -14 -71 0 -23 -5 -48 -12 -55 -14 -14 -28 -101
-59 -357 -6 -49 -20 -112 -31 -140 -44 -111 -54 -131 -73 -160 -76 -114 -183
-205 -240 -205 -19 0 -35 4 -35 9 0 4 20 21 45 36 115 73 230 267 255 430 5
33 16 105 24 160 8 55 17 109 20 120 3 11 12 63 21 115 25 140 60 229 124 309
34 43 55 42 33 -2z m98 -7 c5 0 15 -10 22 -22 7 -13 20 -23 28 -23 23 0 24
-41 2 -62 -29 -27 -33 -67 -41 -403 l-7 -305 -27 -52 c-15 -29 -27 -56 -27
-60 0 -32 -170 -224 -223 -253 -18 -9 -45 -24 -62 -33 -33 -19 -199 -24 -210
-8 -3 6 14 23 37 40 70 49 168 148 194 196 57 104 66 130 71 187 4 39 13 72
24 87 13 16 19 40 19 75 0 28 7 78 15 111 8 33 14 81 15 106 0 25 9 79 21 120
11 41 25 104 32 142 6 37 15 67 19 67 4 0 11 18 14 41 7 41 32 63 62 53 8 -2
18 -4 22 -4z m2500 -110 c0 -19 -17 -36 -27 -26 -3 3 -2 17 1 31 7 28 26 25
26 -5z m-725 2 c0 -18 -20 -15 -23 4 -3 10 1 15 10 12 7 -3 13 -10 13 -16z
m58 -135 c-3 -5 -9 -3 -14 4 -4 7 -5 17 -2 22 3 5 9 3 14 -4 4 -7 5 -17 2 -22z
m24 -74 c-3 -10 -5 -2 -5 17 0 19 2 27 5 18 2 -10 2 -26 0 -35z m363 -590 c73
-52 69 -86 -16 -158 -26 -22 -61 -54 -78 -71 -20 -21 -61 -42 -119 -63 -124
-44 -133 -33 -63 76 24 37 59 82 77 98 19 17 58 56 88 88 30 31 59 57 64 57 5
0 26 -12 47 -27z m-2251 -217 c31 -24 65 -46 76 -50 28 -9 71 -43 64 -51 -4
-3 -33 -10 -65 -15 -32 -5 -71 -19 -86 -30 -37 -27 -48 -26 -109 15 -74 49
-79 60 -38 99 39 35 90 76 98 76 3 0 30 -20 60 -44z m1621 -52 c0 -40 -95 -74
-207 -74 -47 0 -72 -20 -49 -40 12 -9 25 -9 64 3 47 13 49 13 44 -5 -2 -11
-12 -22 -21 -25 -9 -3 -23 -11 -31 -17 -33 -25 -92 -35 -255 -41 -228 -9 -264
-12 -375 -25 -185 -22 -317 -28 -500 -24 -248 6 -263 8 -295 45 -32 39 -32 45
6 68 22 14 60 21 128 26 53 3 116 8 141 11 25 2 138 9 251 14 113 5 235 14
270 19 35 6 101 11 146 11 45 0 115 4 155 10 40 5 117 12 172 14 54 3 137 12
185 20 168 30 171 30 171 10z m-1787 -100 c37 -25 73 -57 80 -72 6 -15 17 -31
24 -35 7 -4 13 -15 13 -22 0 -8 5 -15 12 -15 6 0 9 -3 6 -6 -8 -7 -33 7 -150
85 -78 51 -98 69 -98 88 0 36 36 29 113 -23z"/>
<path d="M1003 3819 c-33 -36 -77 -111 -134 -229 -22 -47 -45 -92 -50 -100 -5
-8 -12 -22 -15 -30 -3 -8 -14 -33 -23 -55 -10 -22 -23 -60 -30 -85 -7 -25 -17
-58 -23 -75 -5 -16 -14 -48 -18 -70 -4 -22 -13 -56 -19 -75 -6 -19 -11 -50
-11 -68 0 -18 -5 -42 -10 -52 -14 -26 -40 -284 -40 -394 1 -172 42 -462 71
-490 5 -6 9 -18 9 -27 0 -10 6 -30 14 -46 8 -15 22 -53 31 -83 10 -30 29 -80
43 -110 14 -30 28 -66 32 -79 12 -45 28 -34 35 24 7 51 5 58 -14 71 -11 8 -21
19 -21 25 0 5 -13 37 -29 72 -16 34 -37 91 -46 127 -9 36 -21 76 -27 90 -28
70 -57 317 -57 470 2 200 25 424 50 472 5 10 13 34 18 55 31 119 37 140 49
160 6 12 12 30 12 40 0 10 20 59 44 108 25 50 47 97 50 105 4 8 15 29 26 45
11 17 24 39 29 51 5 12 30 52 55 89 45 68 56 95 36 95 -5 0 -22 -14 -37 -31z"/>
<path d="M1437 2260 c-14 -16 -34 -30 -45 -30 -11 0 -36 -16 -56 -35 -21 -19
-35 -35 -33 -35 7 0 48 23 79 44 32 21 48 14 48 -20 0 -34 19 -30 26 6 4 16
13 35 20 41 18 15 18 59 0 59 -8 0 -26 -13 -39 -30z"/>
<path d="M1410 2140 c0 -8 -7 -28 -15 -44 -17 -32 -13 -45 9 -27 19 16 29 62
17 74 -8 8 -11 7 -11 -3z"/>
<path d="M1250 2130 c0 -5 -6 -10 -13 -10 -8 0 -23 -8 -35 -17 -11 -10 -35
-29 -53 -43 -76 -59 -180 -153 -189 -171 -25 -47 5 -32 73 35 39 40 110 103
157 141 47 37 87 69 89 71 2 2 -3 4 -12 4 -9 0 -17 -4 -17 -10z"/>
<path d="M1374 2027 c-7 -20 -2 -47 11 -50 14 -3 19 43 6 56 -7 7 -12 6 -17
-6z"/>
<path d="M1344 1923 c-12 -58 -36 -139 -49 -176 -8 -20 -15 -53 -15 -72 0 -39
-22 -141 -45 -204 -8 -24 -15 -54 -15 -67 0 -13 -7 -38 -16 -57 -15 -31 -20
-34 -65 -35 -27 0 -49 3 -49 9 0 5 -9 9 -20 9 -11 0 -20 -4 -20 -10 0 -5 7
-10 15 -10 9 0 15 -9 15 -23 0 -17 9 -25 37 -34 45 -14 61 -8 69 23 4 14 18
38 32 54 27 31 61 141 62 200 0 20 4 40 8 45 4 6 18 55 31 110 12 55 29 120
37 145 16 52 19 120 4 120 -5 0 -12 -12 -16 -27z"/>
<path d="M913 1804 c-12 -19 -18 -36 -14 -38 12 -8 42 34 39 53 -2 14 -8 11
-25 -15z"/>
<path d="M4016 1628 c-6 -30 -2 -47 9 -36 11 10 17 68 8 68 -6 0 -13 -14 -17
-32z"/>
<path d="M4120 1605 c7 -8 17 -15 22 -15 6 0 5 7 -2 15 -7 8 -17 15 -22 15 -6
0 -5 -7 2 -15z"/>
<path d="M4277 1591 c-15 -16 -27 -34 -27 -40 0 -6 -13 -30 -30 -53 -16 -22
-30 -47 -30 -55 0 -7 -7 -13 -15 -13 -8 0 -15 -6 -15 -12 -1 -15 -36 -42 -67
-52 -25 -8 -27 -14 -14 -35 7 -11 18 -6 55 24 25 20 46 41 46 45 0 4 9 18 20
31 29 35 33 41 55 74 59 90 71 138 22 86z"/>
<path d="M3990 1549 c0 -17 5 -29 11 -27 6 2 10 7 10 11 -1 4 -1 16 -1 27 0
11 -4 20 -10 20 -5 0 -10 -14 -10 -31z"/>
<path d="M3960 1465 c0 -14 5 -25 10 -25 6 0 10 11 10 25 0 14 -4 25 -10 25
-5 0 -10 -11 -10 -25z"/>
<path d="M4134 1476 c-6 -17 2 -36 17 -36 12 0 12 37 -1 45 -6 3 -13 -1 -16
-9z"/>
<path d="M995 1180 c3 -5 13 -10 21 -10 8 0 12 5 9 10 -3 6 -13 10 -21 10 -8
0 -12 -4 -9 -10z"/>
<path d="M2694 2545 c-11 -17 -14 -35 -10 -57 3 -18 9 -53 13 -78 l7 -45 10
70 c10 65 13 70 36 70 28 0 39 27 20 50 -19 23 -58 18 -76 -10z"/>
<path d="M2712 2311 c-6 -16 -8 -32 -5 -35 10 -9 -28 -116 -44 -125 -12 -6
-14 -19 -8 -60 8 -59 19 -70 46 -45 22 20 25 40 5 47 -11 4 -10 14 4 58 10 29
25 56 34 61 10 6 14 18 12 31 -3 12 -8 39 -11 60 -7 44 -19 48 -33 8z"/>
<path d="M2780 2177 c0 -18 -7 -43 -16 -55 -18 -26 -8 -28 32 -8 29 16 44 13
44 -7 -1 -15 -74 -69 -117 -86 -39 -16 -46 -33 -33 -83 13 -48 23 -42 64 36
16 31 35 56 41 56 7 0 18 6 24 14 6 7 29 16 51 20 50 8 75 41 61 80 -7 16 -18
26 -30 26 -11 0 -23 5 -26 10 -10 16 -22 12 -28 -10 -8 -30 -34 -24 -40 10 -9
40 -27 38 -27 -3z"/>
<path d="M3144 1780 c-12 -4 -59 -12 -105 -16 -90 -7 -170 -37 -151 -56 7 -7
30 -7 74 2 58 11 67 10 110 -9 l48 -20 37 40 c21 23 38 46 38 52 0 15 -24 18
-51 7z"/>
<path d="M2406 1625 c-20 -21 -21 -88 -1 -105 8 -7 15 -18 15 -24 0 -18 78
-101 87 -92 4 4 1 13 -7 19 -28 22 -50 66 -50 102 0 59 32 46 80 -33 30 -50
44 -54 35 -9 -11 54 -16 67 -27 67 -16 0 -60 38 -72 63 -14 28 -39 33 -60 12z"/>
<path d="M2145 702 c6 -7 55 -21 110 -32 125 -25 456 -29 545 -6 30 7 72 17
93 20 20 4 37 11 37 16 0 16 -97 12 -137 -5 -45 -19 -430 -23 -477 -5 -42 16
-184 26 -171 12z"/>
<path d="M2742 928 c-22 -22 -13 -38 21 -38 49 0 64 14 36 34 -28 19 -41 20
-57 4z"/>
<path d="M2386 894 c-13 -35 5 -43 62 -28 29 8 28 18 -3 32 -35 16 -52 15 -59
-4z"/>
<path d="M2035 880 c-13 -21 15 -40 41 -29 14 5 40 9 59 9 46 0 71 10 53 21
-19 12 -146 11 -153 -1z"/>
</g>
</svg>
