<?xml version="1.0" standalone="no"?>
<!DOCTYPE svg PUBLIC "-//W3C//DTD SVG 20010904//EN"
 "http://www.w3.org/TR/2001/REC-SVG-20010904/DTD/svg10.dtd">
<svg version="1.0" xmlns="http://www.w3.org/2000/svg"
 width="561.000000pt" height="525.000000pt" viewBox="0 0 561.000000 525.000000"
 preserveAspectRatio="xMidYMid meet">
<metadata>
Created by potrace 1.10, written by Peter Selinger 2001-2011
</metadata>
<g transform="translate(0.000000,525.000000) scale(0.100000,-0.100000)"
fill="#193e13" stroke="none">
<path d="M2360 4660 c-44 -10 -136 -28 -214 -40 -32 -6 -78 -17 -103 -25 -24
-8 -55 -15 -68 -15 -13 0 -26 -4 -29 -9 -6 -9 -96 -41 -118 -41 -20 0 -165
-70 -248 -120 -71 -41 -107 -67 -311 -217 -46 -35 -101 -75 -122 -90 -217
-159 -299 -252 -398 -455 -28 -57 -55 -111 -60 -120 -5 -10 -9 -23 -9 -29 0
-5 -11 -35 -25 -65 -14 -29 -30 -75 -36 -101 -7 -27 -16 -52 -20 -58 -5 -5 -9
-17 -9 -26 0 -9 -6 -39 -14 -65 -39 -133 -76 -400 -76 -542 0 -95 28 -374 46
-457 17 -78 71 -261 85 -287 5 -10 9 -23 9 -30 1 -7 9 -31 20 -53 11 -22 19
-45 20 -50 0 -6 25 -60 56 -120 47 -94 54 -116 50 -150 -20 -164 -22 -150 20
-233 49 -97 189 -243 274 -283 86 -42 184 -69 224 -62 29 4 42 0 73 -24 52
-41 180 -123 191 -123 5 0 20 -8 33 -18 13 -10 44 -24 69 -32 25 -7 52 -19 60
-25 26 -19 149 -75 165 -75 9 0 26 -5 38 -11 68 -37 307 -70 552 -76 224 -6
351 12 580 81 133 41 269 114 416 225 67 51 95 61 214 80 145 23 165 36 350
218 18 17 45 38 61 46 36 19 163 155 292 314 13 15 44 71 70 123 73 150 97
217 117 330 8 41 21 107 30 145 9 39 21 129 26 200 12 148 6 537 -10 605 -5
25 -14 72 -19 105 -17 105 -62 277 -77 292 -8 8 -15 22 -15 31 0 9 -25 64 -55
122 -30 58 -65 126 -78 152 -13 26 -36 62 -50 82 -15 19 -27 38 -27 43 0 7
-32 49 -98 128 -9 11 -37 47 -63 80 -69 90 -215 240 -294 303 -38 31 -72 59
-75 62 -3 3 -32 26 -65 50 -33 25 -74 55 -90 67 -17 13 -57 36 -90 53 -33 16
-67 34 -75 39 -8 5 -40 19 -70 31 -30 11 -64 25 -75 29 -86 36 -102 40 -342
92 -51 11 -564 10 -613 -1z m488 -50 c254 -27 405 -71 637 -188 39 -19 84 -46
102 -58 17 -13 35 -24 40 -24 13 0 99 -77 92 -84 -3 -3 -73 28 -155 68 -82 41
-168 81 -191 90 -24 9 -60 22 -80 30 -35 13 -65 22 -193 56 -70 18 -196 39
-300 51 -117 12 -437 3 -540 -17 -41 -8 -97 -14 -123 -14 -26 0 -64 -7 -84
-15 -19 -8 -49 -15 -65 -15 -16 0 -39 -5 -51 -12 -12 -6 -35 -15 -52 -19 -50
-13 -105 -35 -117 -47 -14 -14 -64 -16 -72 -3 -3 5 6 14 22 20 15 5 54 22 87
35 33 14 67 26 76 26 8 0 20 5 27 12 6 6 30 15 54 19 24 4 75 16 113 27 39 11
110 25 159 32 50 6 94 14 100 17 5 4 89 10 185 13 97 4 189 7 204 8 15 1 71
-3 125 -8z m107 -129 c212 -45 392 -103 564 -183 124 -58 121 -57 182 -91 138
-78 321 -234 434 -371 85 -104 212 -296 241 -366 8 -19 23 -46 32 -60 27 -41
81 -170 102 -242 10 -37 22 -73 25 -79 4 -6 11 -38 16 -72 4 -34 13 -96 19
-137 6 -41 11 -185 10 -320 0 -244 -17 -422 -49 -503 -6 -16 -11 -47 -11 -70
0 -44 -11 -84 -67 -232 -64 -169 -92 -217 -207 -351 -91 -105 -144 -154 -169
-154 -10 0 -35 16 -55 35 -20 19 -57 50 -82 68 -48 35 -58 57 -42 91 6 11 15
41 20 66 6 25 15 59 20 75 25 74 42 134 42 143 0 6 19 39 43 74 39 57 98 170
157 301 12 26 26 47 31 47 5 0 9 18 9 40 0 40 13 53 24 24 11 -27 7 -54 -9
-60 -10 -4 -15 -20 -15 -45 0 -26 -5 -42 -15 -45 -8 -4 -15 -14 -15 -24 0 -10
-7 -31 -14 -47 -8 -15 -17 -35 -20 -43 -3 -8 -10 -22 -15 -30 -11 -20 -95
-196 -115 -243 -9 -21 -16 -49 -16 -62 0 -13 -4 -27 -10 -30 -5 -3 -10 -19
-10 -34 0 -15 -9 -38 -20 -51 -11 -13 -20 -29 -20 -37 0 -23 41 -71 72 -84 16
-6 36 -25 44 -41 17 -32 12 -33 78 20 15 12 40 39 53 60 14 20 28 39 32 42 10
8 76 110 96 149 19 38 61 147 77 201 5 19 13 40 18 45 4 6 15 53 25 105 9 52
24 112 31 133 8 20 14 50 14 65 0 15 7 59 15 97 17 80 22 556 6 598 -5 14 -12
58 -16 98 -4 41 -13 97 -22 124 -8 28 -19 66 -25 85 -9 32 -45 112 -67 150 -5
8 -24 47 -42 85 -40 82 -126 218 -177 279 -21 24 -55 65 -77 91 -69 82 -165
173 -232 218 -27 18 -65 45 -85 60 -19 15 -40 27 -46 27 -7 0 -12 3 -12 8 0 4
-24 20 -53 36 -28 16 -65 40 -80 53 -16 12 -33 23 -38 23 -5 0 -39 14 -74 30
-35 17 -73 30 -85 30 -11 0 -44 12 -73 26 -57 28 -161 64 -185 64 -8 0 -56 13
-106 29 -157 49 -202 55 -501 57 -283 2 -375 -6 -480 -41 -22 -7 -65 -20 -95
-28 -89 -25 -200 -60 -275 -87 -27 -10 -66 -28 -85 -38 -8 -5 -31 -16 -50 -24
-120 -51 -235 -118 -316 -185 -12 -10 -42 -34 -68 -53 -49 -38 -65 -65 -46
-84 9 -8 16 -6 28 9 19 23 177 145 187 145 3 0 21 11 38 24 39 29 171 101 269
146 27 12 50 26 54 31 6 10 67 12 77 2 4 -3 -20 -20 -52 -37 -74 -38 -268
-169 -337 -228 -29 -23 -72 -59 -97 -78 -44 -33 -60 -57 -122 -175 -15 -27
-42 -77 -60 -110 -72 -130 -135 -269 -135 -299 0 -13 -7 -29 -15 -36 -8 -7
-15 -24 -15 -39 0 -15 -6 -33 -12 -39 -15 -15 -36 -92 -47 -173 -5 -30 -13
-65 -20 -77 -7 -14 -11 -102 -11 -264 0 -210 3 -253 20 -317 11 -41 20 -86 20
-100 0 -26 21 -112 57 -231 24 -81 42 -87 89 -32 99 116 501 422 554 422 57 0
65 -43 18 -103 -36 -45 -66 -97 -103 -177 -14 -30 -32 -68 -40 -83 -8 -16 -15
-40 -15 -53 0 -14 -7 -38 -15 -54 -9 -18 -15 -51 -13 -82 2 -55 -17 -192 -29
-212 -4 -6 -9 -24 -10 -41 -9 -104 -23 -165 -66 -270 -27 -69 -44 -92 -117
-167 -83 -85 -87 -88 -131 -88 -43 0 -50 4 -98 53 -29 30 -59 67 -67 83 -8 15
-24 43 -35 61 -15 24 -18 37 -10 50 11 20 9 22 26 -32 2 -8 10 -15 16 -15 9 0
10 24 5 87 -6 71 -11 91 -26 102 -25 17 -25 37 -1 50 10 6 24 24 29 41 11 31
21 35 78 31 37 -3 57 18 52 56 -2 23 -9 29 -33 31 -16 2 -40 13 -52 24 -17 16
-25 18 -42 9 -27 -15 -27 -29 2 -33 32 -4 36 -45 5 -50 -13 -2 -28 -15 -36
-31 -10 -20 -17 -26 -24 -19 -12 12 -2 82 11 82 5 0 11 24 15 53 3 28 9 65 12
80 5 23 3 29 -14 34 -18 4 -52 69 -52 100 0 6 -6 16 -14 22 -8 7 -17 28 -21
49 -6 37 -31 120 -46 157 -39 93 -62 480 -40 670 15 127 32 230 41 247 5 9 13
35 16 58 4 22 11 43 15 46 5 3 9 15 9 27 0 79 187 471 277 580 29 36 30 57 0
57 -16 0 -35 -15 -60 -49 -20 -26 -37 -51 -37 -55 0 -3 -12 -25 -27 -49 -64
-100 -156 -306 -188 -419 -15 -51 -33 -114 -41 -140 -8 -26 -14 -60 -14 -76 0
-16 -6 -47 -14 -68 -22 -65 -49 -347 -43 -458 11 -213 51 -422 98 -517 4 -9
11 -33 14 -53 4 -20 11 -39 16 -42 5 -3 9 -13 9 -22 0 -9 7 -30 16 -47 8 -16
28 -60 44 -97 l29 -68 -31 -16 c-25 -13 -32 -14 -39 -2 -5 7 -9 16 -9 20 0 4
-16 41 -36 83 -20 42 -42 99 -49 128 -8 29 -21 75 -29 102 -71 244 -86 342
-86 585 0 158 5 232 20 320 36 218 67 358 80 375 5 6 11 28 15 50 4 22 18 63
30 90 12 28 30 70 41 95 22 55 92 189 109 210 6 8 23 35 37 60 32 55 104 125
239 235 57 45 278 198 314 217 17 8 62 31 102 52 39 20 80 36 90 36 11 0 28 7
39 15 10 8 30 15 44 15 14 0 36 7 50 15 14 8 39 14 56 15 16 0 34 4 40 8 19
18 133 50 229 65 55 9 141 23 190 31 66 11 147 14 300 11 189 -3 225 -6 360
-34z m-680 -134 c54 -55 88 -144 89 -233 1 -96 -7 -101 -184 -123 -115 -14
-120 -8 -120 127 0 117 17 189 53 229 34 38 124 39 162 0z m530 1 c15 -12 43
-54 61 -94 25 -56 34 -90 39 -160 3 -49 2 -93 -2 -99 -17 -22 -73 -45 -107
-45 -20 0 -55 -5 -78 -11 -35 -9 -50 -8 -80 5 -46 20 -53 49 -39 161 24 187
29 208 61 238 39 35 104 38 145 5z m-790 -28 c-3 -5 -19 -10 -35 -10 -15 0
-30 -6 -33 -14 -3 -8 -21 -17 -39 -21 -18 -4 -38 -12 -45 -17 -15 -12 -78 -6
-78 7 0 6 13 12 30 13 16 2 38 10 49 18 11 8 35 14 53 14 17 0 35 5 38 10 3 6
20 10 36 10 18 0 28 -4 24 -10z m1120 -104 c10 -7 27 -11 37 -8 10 2 24 -2 31
-11 7 -8 23 -17 37 -20 35 -7 144 -47 150 -55 6 -9 67 -32 100 -39 14 -3 33
-14 43 -24 10 -11 23 -19 30 -19 7 0 28 -13 47 -30 19 -16 40 -29 46 -30 15 0
72 -66 149 -170 33 -44 75 -97 92 -118 18 -20 33 -41 33 -45 0 -5 11 -23 24
-40 20 -28 90 -156 146 -267 23 -47 60 -162 60 -189 0 -12 7 -38 15 -57 8 -20
22 -82 31 -138 14 -87 15 -128 5 -299 -6 -109 -9 -203 -6 -207 15 -24 -51
-211 -99 -283 -10 -15 -24 -42 -30 -60 -25 -71 -111 -206 -139 -218 -31 -13
-52 -2 -62 34 -4 12 -12 36 -20 52 -7 17 -22 55 -33 85 -28 77 -30 81 -53 120
-12 19 -33 55 -47 80 -14 25 -40 62 -58 83 -41 45 -42 68 -7 172 23 69 27 98
28 215 1 82 6 144 13 157 7 12 12 32 12 45 0 13 4 28 9 33 13 14 53 115 57
145 15 109 44 227 72 290 30 69 42 112 42 157 0 34 -7 47 -40 82 -22 22 -45
41 -51 41 -6 0 -25 6 -42 14 -80 34 -82 34 -138 20 -30 -8 -90 -28 -134 -46
-64 -26 -92 -44 -140 -93 -86 -87 -99 -104 -121 -157 -10 -27 -22 -48 -26 -48
-5 0 -8 -11 -8 -24 0 -35 -10 -56 -26 -56 -16 0 -19 -16 -4 -25 15 -9 12 -35
-5 -35 -24 0 -39 41 -42 123 -1 42 -6 85 -11 95 -6 9 -10 36 -9 59 0 24 -5 48
-10 55 -15 19 -23 58 -29 145 -8 130 -11 146 -35 201 -19 42 -21 57 -12 71 12
19 17 112 10 186 -2 22 1 46 6 53 13 16 88 15 112 -2z m-1318 -23 c11 -33 44
-98 63 -128 32 -49 51 -96 59 -145 10 -64 0 -86 -41 -93 -59 -9 -122 -30 -150
-49 -14 -10 -37 -18 -51 -18 -19 0 -28 8 -41 43 -9 23 -16 63 -16 87 0 50 18
216 25 240 5 16 111 79 133 80 7 0 15 -8 19 -17z m573 -213 c0 -28 -3 -30 -35
-30 -39 0 -42 6 -19 38 23 34 54 29 54 -8z m-70 -45 c0 -7 -7 -21 -16 -30 -15
-15 -18 -15 -32 -1 -13 12 -13 20 -4 41 10 22 15 24 32 15 11 -6 20 -17 20
-25z m-86 5 c5 -5 6 -16 2 -25 -5 -13 -14 -16 -41 -11 -19 3 -51 9 -70 12 -31
5 -44 21 -30 35 7 8 129 -2 139 -11z m1663 -32 c26 -24 53 -52 62 -62 9 -10
24 -26 34 -35 18 -16 100 -117 144 -176 73 -100 198 -320 247 -435 17 -41 40
-130 55 -215 22 -128 43 -411 37 -505 -11 -151 -41 -357 -65 -433 -5 -17 -14
-57 -20 -87 -13 -76 -30 -142 -40 -155 -5 -5 -19 -41 -31 -80 -26 -82 -36
-106 -70 -160 -14 -22 -31 -49 -38 -60 -6 -11 -17 -30 -22 -43 -18 -41 -31
-14 -26 54 2 35 7 68 11 73 8 14 -31 51 -53 51 -11 0 -24 -11 -30 -24 -6 -13
-24 -33 -41 -45 -26 -18 -31 -20 -31 -7 0 9 5 16 10 16 6 0 10 12 10 26 0 23
8 42 41 104 4 8 18 35 29 60 12 25 26 52 31 60 5 8 14 25 19 38 5 13 21 46 34
75 43 92 56 129 56 158 0 15 4 30 9 33 19 12 40 106 51 226 6 68 13 127 15
131 11 16 15 375 6 418 -5 25 -15 84 -22 130 -7 46 -21 107 -31 135 -11 28
-23 67 -27 86 -12 55 -33 111 -63 163 -16 26 -28 50 -28 52 0 2 -12 21 -26 42
-14 21 -30 47 -35 58 -24 51 -67 113 -124 180 -28 33 -68 83 -90 110 -22 28
-43 52 -47 53 -12 5 -10 32 3 32 5 0 31 -19 56 -42z m-1464 -31 c39 -136 45
-183 25 -189 -10 -4 -10 -10 0 -32 10 -22 9 -28 -3 -32 -8 -4 -22 -4 -30 0
-12 4 -13 10 -4 30 15 33 8 48 -35 71 -35 19 -37 19 -68 1 -38 -22 -108 -86
-108 -99 0 -5 14 -6 30 -2 19 4 37 2 46 -6 13 -10 12 -14 -2 -30 -23 -25 -61
-25 -69 0 -3 12 -17 21 -32 23 -30 3 -44 33 -83 171 -31 110 -19 127 57 87 36
-18 45 -19 149 -11 6 1 31 19 55 40 23 22 46 38 50 35 4 -2 14 -28 22 -57z
m382 33 c8 -13 -14 -42 -26 -34 -5 3 -9 14 -9 25 0 20 24 26 35 9z m-1289 -13
c0 -1 5 -33 11 -72 6 -38 14 -78 18 -87 10 -25 -25 -24 -53 2 -12 11 -30 20
-40 20 -11 0 -25 7 -32 15 -7 8 -21 15 -31 15 -36 0 -14 52 39 93 27 21 43 26
62 22 14 -4 25 -7 26 -8z m1132 -17 c19 -12 57 -27 85 -34 57 -15 101 -4 144
36 41 38 53 19 52 -85 0 -60 4 -102 12 -114 15 -25 6 -53 -18 -53 -9 0 -27 12
-38 27 -20 24 -27 26 -91 25 -59 -1 -74 -5 -112 -32 -23 -16 -53 -30 -66 -30
-23 0 -23 2 -28 133 -3 72 -3 135 -1 140 7 12 26 8 61 -13z m-695 -95 c-3 -13
-53 -20 -53 -7 0 15 13 23 35 20 11 -2 19 -7 18 -13z m-63 -30 c0 -7 -5 -17
-12 -21 -7 -5 -3 -10 12 -16 16 -6 28 -4 40 7 21 19 60 20 60 0 0 -8 16 -48
36 -90 20 -42 33 -82 30 -90 -3 -8 -22 -17 -43 -20 -21 -3 -50 -13 -65 -21
-14 -8 -36 -14 -48 -14 -29 0 -59 -17 -92 -52 -28 -30 -59 -36 -75 -15 -23 30
-79 248 -70 271 8 20 37 21 63 1 28 -21 111 -20 123 3 6 11 6 24 0 35 -6 10
-7 26 -4 37 5 16 10 18 26 10 10 -6 19 -17 19 -25z m-92 -24 c-4 -18 -36 -27
-50 -13 -13 13 18 43 38 35 8 -3 14 -13 12 -22z m-379 -70 c47 -25 88 -77 112
-146 29 -84 27 -92 -36 -121 -31 -14 -76 -45 -102 -70 -25 -25 -50 -43 -57
-41 -6 2 -14 19 -17 38 -3 19 -16 59 -30 89 -32 75 -35 218 -4 249 26 26 84
27 134 2z m960 -18 c8 -30 7 -42 -5 -61 -22 -33 -47 -24 -54 18 -4 20 -10 41
-14 48 -11 19 2 32 34 32 25 0 30 -5 39 -37z m449 -25 c-3 -36 -19 -45 -41
-24 -22 23 -10 56 20 56 21 0 24 -4 21 -32z m-88 -12 c0 -19 -28 -28 -51 -15
-26 14 -15 29 22 29 18 0 29 -5 29 -14z m160 5 c0 -14 -18 -23 -30 -16 -6 4
-8 11 -5 16 8 12 35 12 35 0z m837 -12 c60 -13 76 -38 47 -70 -34 -37 -70
-113 -89 -184 -41 -152 -54 -215 -55 -256 0 -30 -6 -51 -16 -59 -8 -8 -20 -22
-25 -32 -16 -29 -49 -168 -49 -204 0 -44 -29 -104 -51 -104 -16 0 -179 57
-249 88 -19 8 -54 28 -77 45 l-42 29 -27 -21 c-15 -12 -35 -39 -45 -60 -27
-60 -78 -104 -80 -68 0 6 -1 32 -2 57 -2 43 -4 45 -33 48 -49 5 -88 -34 -86
-84 2 -58 -18 -157 -35 -176 -13 -15 -13 -19 4 -42 10 -14 21 -26 26 -26 10 0
9 -70 -2 -70 -16 0 -31 27 -25 44 9 24 -26 34 -42 11 -18 -25 -18 -103 1 -139
8 -15 15 -42 15 -58 0 -21 6 -31 20 -35 20 -5 26 -35 14 -67 -11 -28 -34 -18
-34 14 0 17 -4 30 -10 30 -24 0 -50 41 -50 79 0 21 -7 55 -15 74 -20 49 -20
126 1 134 8 3 20 1 27 -6 6 -6 14 -11 18 -11 11 0 -3 84 -15 92 -21 14 -55 8
-76 -14 -22 -24 -22 -22 -4 -148 3 -25 10 -50 15 -56 6 -7 5 -22 -1 -39 -6
-15 -7 -33 -1 -42 12 -21 -18 -113 -37 -113 -12 0 -14 -12 -8 -62 3 -34 11
-67 16 -72 6 -6 10 -22 10 -37 0 -33 19 -89 30 -89 5 0 12 5 15 10 3 6 16 10
27 10 18 0 20 5 15 33 -3 19 0 40 8 51 18 23 79 56 107 56 27 0 68 37 68 62 0
35 -19 58 -48 58 -23 0 -30 7 -40 33 -16 45 -15 49 7 42 15 -4 20 1 25 29 9
46 49 73 87 59 39 -15 69 7 69 51 0 48 -27 68 -79 60 -41 -7 -41 -6 -41 25 0
21 -5 31 -15 31 -21 0 -21 159 0 200 16 31 39 39 48 18 6 -18 -9 -122 -22
-146 -13 -25 -15 -72 -2 -72 6 0 24 13 41 29 41 37 81 45 127 26 70 -30 107
-12 107 50 0 47 -18 63 -80 71 -30 3 -57 10 -60 15 -3 5 0 9 5 9 6 0 19 8 29
18 10 9 30 23 45 31 30 16 44 11 123 -41 22 -15 63 -34 90 -43 27 -9 60 -22
74 -29 14 -7 40 -16 58 -19 30 -6 33 -4 48 33 9 22 22 40 29 40 31 0 45 -13
45 -41 0 -26 -3 -29 -35 -29 -36 0 -43 -8 -23 -28 11 -11 -2 -45 -86 -212 -18
-36 -36 -89 -40 -118 -4 -29 -11 -63 -17 -75 -5 -12 -18 -80 -28 -152 -18
-129 -18 -131 -70 -207 -29 -42 -61 -80 -72 -83 -10 -4 -19 -15 -19 -26 0 -11
-4 -28 -9 -38 -6 -9 -12 -73 -15 -142 -3 -75 -11 -141 -20 -166 -10 -27 -18
-91 -21 -168 -2 -69 -6 -129 -9 -134 -7 -11 -147 -30 -296 -40 -69 -5 -133
-12 -142 -16 -12 -5 -20 -2 -24 9 -7 19 26 55 72 79 17 9 36 23 43 31 18 22 6
62 -25 82 -24 16 -27 16 -51 -2 -41 -31 -51 -53 -30 -65 9 -6 17 -16 17 -23 0
-18 -85 -96 -105 -96 -24 0 -18 27 12 50 15 11 33 30 41 42 13 18 13 22 -2 30
-15 8 -16 18 -11 61 4 29 14 59 22 69 12 13 12 20 2 36 -11 18 -8 25 21 59 18
21 50 48 70 61 45 27 58 63 35 99 -9 13 -23 27 -31 30 -21 8 -59 -21 -74 -56
-15 -37 -37 -40 -46 -7 -5 23 9 65 28 77 5 3 5 16 0 30 -11 29 2 69 22 69 8 0
24 15 36 34 14 23 36 40 66 52 69 26 82 75 30 109 -18 12 -28 13 -54 3 -33
-13 -40 -26 -21 -45 18 -18 1 -45 -57 -90 -62 -49 -74 -52 -74 -19 0 23 43 65
95 93 17 10 16 12 -19 27 -21 9 -42 16 -45 16 -10 0 -51 133 -61 199 -5 31
-12 73 -16 94 l-7 37 37 0 c31 0 36 3 36 24 0 58 -76 91 -120 51 -24 -22 -26
-81 -5 -109 8 -11 15 -29 15 -41 0 -12 5 -26 12 -33 7 -7 16 -38 20 -70 4 -31
10 -71 13 -89 6 -26 3 -34 -19 -48 -29 -19 -34 -46 -11 -65 8 -7 15 -19 15
-27 0 -8 7 -27 15 -41 49 -90 64 -152 36 -152 -14 0 -55 67 -85 140 -3 8 -17
33 -31 55 -15 25 -24 56 -25 82 0 48 14 63 30 33 12 -22 30 -27 30 -7 0 20
-38 90 -55 99 -20 12 -64 -1 -75 -22 -17 -33 -11 -77 15 -108 14 -17 25 -43
25 -59 0 -17 13 -50 30 -74 16 -24 30 -51 30 -59 0 -9 6 -25 14 -36 8 -11 16
-31 18 -44 2 -17 10 -26 26 -28 45 -7 71 -117 27 -117 -15 0 -21 10 -28 43 -5
26 -15 46 -25 49 -24 9 -72 55 -72 70 0 19 -32 32 -57 22 -15 -5 -24 -20 -29
-45 -8 -43 18 -101 74 -169 23 -28 31 -46 27 -62 -3 -12 -2 -29 1 -37 5 -13 9
-14 21 -4 22 18 44 -15 36 -53 -3 -16 -2 -36 2 -46 6 -16 9 -14 21 10 21 39
41 21 46 -41 9 -92 -26 -124 -46 -41 -9 34 -16 45 -33 47 -13 2 -23 8 -23 13
0 5 -7 9 -15 9 -8 0 -15 9 -15 20 0 12 -7 32 -16 45 -29 45 -99 25 -104 -30
-4 -38 0 -50 25 -77 14 -15 30 -38 36 -50 15 -34 35 -68 48 -81 27 -27 10 -34
-100 -41 -133 -8 -144 -3 -136 61 2 23 1 62 -4 85 -5 24 -9 153 -9 287 l-1
245 -40 35 c-100 87 -135 132 -186 233 -29 57 -54 110 -57 118 -3 8 -10 22
-15 30 -11 17 -47 98 -82 180 -12 30 -28 62 -36 71 -7 8 -13 18 -13 22 0 3
-14 28 -31 55 -41 67 -34 90 37 125 30 15 54 31 54 37 0 5 13 10 30 10 16 0
53 11 82 25 29 13 71 29 93 34 22 6 65 17 95 25 30 8 75 20 100 27 25 6 54 15
65 19 23 9 88 26 155 41 25 6 54 14 65 19 11 5 38 14 60 19 22 6 67 18 100 28
80 23 338 28 356 7 16 -19 29 -18 29 4 0 26 37 47 56 31 12 -10 18 -8 32 7 27
28 81 151 89 198 3 22 12 50 19 61 8 11 14 43 14 73 0 29 9 78 19 110 49 144
98 193 248 247 43 15 83 32 88 37 6 5 19 7 30 4 11 -3 44 -10 72 -17z m-1229
-26 c7 -21 17 -51 22 -68 5 -16 18 -57 30 -90 45 -130 38 -160 -33 -130 -69
29 -129 5 -210 -82 -37 -40 -57 -42 -57 -7 0 14 -11 49 -24 77 -13 29 -27 72
-31 97 -4 25 -16 62 -27 83 -27 54 -21 82 17 81 176 -9 191 -8 217 11 15 11
31 30 37 43 16 35 44 28 59 -15z m458 -23 c7 -19 13 -80 14 -135 0 -55 5 -119
9 -142 6 -30 5 -48 -4 -60 -12 -16 -16 -14 -55 21 -41 37 -45 38 -100 33 -63
-5 -98 -23 -147 -74 -30 -32 -31 -35 -17 -61 8 -15 14 -31 14 -37 0 -5 21 -25
48 -42 62 -43 141 -46 200 -9 46 29 56 41 72 89 6 21 17 36 23 34 7 -2 27 -30
45 -61 26 -47 32 -69 32 -116 0 -90 -1 -91 -223 -88 -138 2 -189 0 -198 -9 -7
-7 -24 -13 -39 -13 -14 0 -52 -9 -85 -20 -33 -10 -87 -27 -120 -35 -33 -9 -69
-20 -80 -25 -26 -11 -98 -29 -157 -40 -95 -17 -299 -92 -344 -126 -17 -13 -33
-21 -37 -18 -9 10 -43 -5 -72 -32 -31 -29 -63 -28 -79 1 -6 11 -24 42 -40 68
-24 40 -27 50 -15 58 21 13 45 11 60 -7 24 -30 140 -2 205 49 40 33 51 75 29
116 -8 17 -20 31 -25 31 -6 0 -10 5 -10 11 0 7 -8 18 -17 25 -14 10 -15 15 -6
25 10 10 21 6 53 -16 22 -15 40 -31 40 -36 0 -12 38 -21 60 -14 32 10 24 25
-25 46 -56 25 -60 54 -14 93 38 32 43 32 69 -1 19 -24 21 -36 16 -86 -7 -69 1
-75 71 -58 57 14 107 55 128 105 14 32 14 39 0 66 -17 32 -20 80 -6 80 5 0 19
-16 31 -35 38 -62 76 -82 150 -82 38 0 73 6 85 13 11 8 27 14 37 14 64 0 113
140 103 290 -4 47 -14 108 -22 136 -20 66 -13 89 25 79 15 -4 45 -8 67 -10 22
-1 52 -5 67 -10 30 -8 109 18 129 42 19 22 41 11 55 -27z m-1906 -84 c0 -14
-7 -31 -15 -40 -8 -8 -15 -26 -15 -40 0 -15 -4 -34 -9 -44 -29 -53 -74 -230
-103 -402 -14 -81 -14 -625 0 -661 12 -31 1 -52 -24 -47 -17 3 -19 12 -16 88
2 50 -1 97 -8 115 -16 41 -24 405 -9 457 5 22 12 67 15 101 2 33 8 65 13 71 5
6 12 27 16 46 4 19 13 45 21 57 8 12 14 39 14 58 0 20 7 43 15 51 8 9 15 24
15 33 0 10 7 24 15 31 8 7 15 25 15 41 0 18 7 32 20 39 13 7 20 21 20 40 0 17
5 30 10 30 6 0 10 -11 10 -24z m928 -25 c5 -30 -10 -45 -37 -36 -15 5 -21 15
-21 36 0 27 3 30 28 27 20 -2 28 -9 30 -27z m120 -8 c5 -10 15 -40 21 -68 7
-27 19 -63 26 -80 23 -55 44 -129 39 -137 -8 -13 -42 -9 -74 7 -25 13 -32 13
-57 0 -15 -8 -32 -15 -36 -15 -4 0 -33 -19 -64 -42 -100 -77 -92 -73 -108 -57
-15 16 -75 188 -75 216 0 11 -7 28 -15 39 -16 22 -20 70 -5 79 5 3 26 -1 46
-10 20 -8 65 -15 100 -15 57 0 69 4 113 35 27 20 52 42 55 50 7 20 23 19 34
-2z m-208 -8 c0 -9 -7 -18 -16 -22 -18 -7 -39 11 -30 26 11 17 46 13 46 -4z
m-722 -47 c7 -7 12 -22 12 -35 0 -12 6 -26 13 -30 16 -10 47 -78 47 -103 0
-11 4 -28 9 -38 5 -9 19 -37 32 -62 12 -25 29 -57 36 -72 7 -16 20 -42 28 -59
8 -17 15 -37 15 -46 0 -18 66 -137 85 -153 21 -17 52 -87 69 -156 9 -34 16
-64 16 -67 0 -3 -36 -27 -81 -54 -140 -83 -151 -91 -159 -103 -4 -6 -16 -17
-28 -23 -18 -11 -99 -70 -189 -140 -20 -15 -40 -24 -44 -20 -31 32 -55 429
-35 568 39 271 63 396 82 434 7 13 10 29 7 37 -2 7 2 23 11 36 9 12 16 29 16
38 0 18 27 60 39 60 4 0 12 -5 19 -12z m414 -31 c26 -9 70 -103 66 -140 -3
-31 -5 -32 -50 -35 -65 -3 -138 -49 -138 -86 0 -10 39 -6 45 4 3 6 15 10 25
10 17 0 18 -3 9 -24 -14 -30 -48 -40 -69 -21 -9 8 -24 15 -33 15 -17 0 -57 50
-57 72 0 8 -7 23 -15 34 -20 27 -18 61 4 74 11 5 40 10 66 10 31 0 56 7 78 22
18 13 33 23 33 23 1 0 5 10 8 23 6 16 3 22 -8 22 -17 0 -21 12 -9 24 4 4 12 1
18 -7 5 -7 18 -16 27 -20z m-62 -7 c0 -18 -37 -31 -49 -16 -6 7 -8 16 -4 19
10 11 53 8 53 -3z m-80 -35 c0 -8 -6 -15 -14 -15 -17 0 -28 14 -19 24 12 12
33 6 33 -9z m1059 -89 c35 -57 21 -136 -24 -136 -19 0 -28 17 -41 80 -10 47
-9 58 4 73 22 25 38 21 61 -17z m81 -43 c0 -44 -18 -39 -35 9 -9 27 -9 38 -1
41 20 8 36 -15 36 -50z m294 45 c3 -7 7 -39 10 -70 5 -51 4 -58 -15 -68 -34
-19 -47 2 -48 80 0 68 0 70 25 70 13 0 26 -6 28 -12z m-495 -27 c17 -11 28
-106 13 -115 -13 -8 -64 11 -74 27 -14 22 -8 50 14 74 24 26 27 26 47 14z
m388 1 c7 -5 16 -29 19 -55 8 -58 -13 -73 -51 -37 -34 32 -40 58 -19 81 18 20
32 23 51 11z m186 -25 c16 -11 16 -14 2 -35 -23 -31 -45 -28 -45 6 0 43 13 52
43 29z m-1326 -42 c2 -6 -2 -19 -9 -28 -12 -15 -16 -16 -32 -4 -25 19 -14 50
16 45 12 -2 23 -8 25 -13z m128 -61 c52 -74 57 -88 40 -110 -11 -15 -15 -16
-29 -5 -28 24 -76 -18 -115 -99 -19 -40 -41 -74 -48 -77 -16 -6 -73 44 -73 63
0 7 -13 32 -28 56 -65 98 -64 134 3 130 47 -3 115 28 156 72 19 19 38 34 43
33 5 -2 28 -30 51 -63z m360 3 c9 -24 15 -61 13 -83 -3 -34 -6 -39 -28 -39
-19 0 -26 6 -28 25 -2 14 -10 46 -18 72 -17 54 -13 68 21 68 18 0 27 -9 40
-43z m74 1 c12 -21 13 -31 3 -53 -14 -29 -32 -25 -32 8 0 12 -7 31 -15 41 -8
10 -12 23 -9 28 10 16 38 4 53 -24z m-406 -188 c9 -11 17 -27 17 -35 0 -9 5
-24 12 -34 27 -43 -24 -71 -52 -28 -39 59 -49 94 -33 110 12 13 39 7 56 -13z
m72 -24 c0 -16 -6 -31 -12 -33 -8 -3 -13 4 -13 16 0 12 -7 24 -15 27 -25 10
-17 26 13 22 22 -2 27 -8 27 -32z m-135 -67 c11 -26 11 -33 -3 -46 -13 -14
-21 -14 -42 -5 -42 20 -27 80 21 82 6 0 17 -14 24 -31z m1378 -141 c6 -29 -98
-64 -121 -41 -10 9 39 51 65 56 37 7 53 3 56 -15z m-1454 -134 c9 -3 16 -11
16 -17 0 -6 9 -30 21 -54 20 -40 20 -45 5 -68 -26 -40 -48 -22 -40 31 6 44 6
44 -25 44 -26 0 -31 4 -31 25 0 13 8 29 18 34 21 13 17 12 36 5z m1290 -103
c7 -11 -33 -47 -61 -56 -13 -3 -23 -11 -23 -16 0 -5 -13 -9 -30 -9 -37 0 -37
6 -2 39 47 45 102 65 116 42z m-1190 -93 c20 -40 20 -51 -1 -71 -23 -20 -70
-11 -84 15 -11 20 1 42 40 76 22 18 28 15 45 -20z m1798 -15 c15 -15 28 -31
28 -37 0 -5 6 -17 14 -25 48 -54 156 -307 177 -411 42 -220 -7 -490 -121 -660
-20 -30 -52 -83 -69 -116 -48 -91 -115 -157 -251 -246 -157 -103 -330 -169
-534 -204 -128 -21 -517 -15 -636 11 -229 49 -310 73 -310 91 0 19 89 23 200
9 30 -4 60 -11 65 -16 6 -4 48 -16 95 -28 172 -41 505 -36 690 9 47 11 101 24
120 29 39 9 129 50 205 95 45 26 187 161 242 229 39 49 113 180 113 201 0 6 6
23 14 37 13 25 29 75 62 194 22 81 22 273 0 334 -9 24 -16 54 -16 66 0 39 -65
178 -131 278 -42 65 -46 93 -20 160 13 34 27 34 63 0z m-1944 -105 c-13 -29
-30 -73 -37 -98 -7 -25 -17 -54 -22 -65 -5 -11 -14 -44 -19 -72 -24 -127 -29
-153 -39 -189 -6 -22 -11 -59 -11 -84 -1 -53 -33 -240 -51 -290 -45 -131 -77
-180 -181 -281 -82 -81 -128 -103 -156 -75 -12 12 -7 17 32 37 116 58 241 255
267 420 5 32 13 77 18 100 6 24 11 61 11 82 0 22 6 62 14 90 7 29 19 90 25
137 16 112 27 150 74 240 45 87 76 125 91 110 6 -6 1 -28 -16 -62z m124 -7 c7
-12 20 -16 39 -13 16 2 29 2 29 0 0 -13 -24 -75 -34 -87 -6 -7 -18 -42 -27
-78 -14 -51 -17 -115 -17 -332 l-1 -269 -30 -64 c-17 -36 -31 -68 -31 -73 0
-29 -177 -209 -253 -257 -46 -28 -62 -33 -135 -36 -45 -2 -90 -1 -99 2 -15 6
-13 10 12 31 17 13 35 25 40 25 11 0 96 79 135 125 65 76 120 188 120 242 0
19 7 48 17 66 9 18 20 64 24 102 22 191 40 305 54 355 9 30 20 81 24 112 4 32
12 63 19 70 7 7 12 29 12 50 0 30 5 40 22 47 29 11 67 2 80 -18z m1032 -24
c-1 -25 -8 -43 -20 -52 -32 -23 -8 -28 34 -6 22 11 42 17 46 14 12 -12 6 -33
-9 -33 -8 0 -15 -4 -15 -9 0 -6 -11 -16 -24 -23 -13 -7 -38 -21 -56 -31 -41
-24 -49 -15 -22 23 27 36 27 36 1 43 -19 5 -20 7 -5 36 9 16 16 38 16 49 0 25
10 33 35 30 16 -2 20 -10 19 -41z m723 -54 c9 -28 42 -94 68 -138 13 -22 24
-51 25 -65 0 -15 4 -30 9 -35 12 -13 38 -123 46 -200 15 -134 -72 -415 -179
-584 -67 -105 -233 -250 -351 -305 -22 -10 -54 -25 -70 -33 -27 -12 -146 -34
-345 -65 -79 -12 -310 -5 -405 11 -38 7 -85 15 -104 18 -102 14 57 35 409 54
414 22 418 23 490 60 125 65 212 132 283 219 37 45 67 86 67 91 0 5 11 27 25
49 14 21 34 68 46 102 12 35 25 68 30 73 10 13 27 102 42 218 8 64 8 108 -1
165 -15 108 -34 192 -43 192 -4 0 -10 13 -14 30 -4 16 -11 32 -16 35 -5 4 -9
13 -9 21 0 8 -10 28 -21 44 -21 28 -20 60 1 60 6 0 13 -8 17 -17z m-863 -239
c20 -7 21 -44 3 -69 -19 -25 -37 -11 -37 29 0 43 7 50 34 40z m-701 -54 c21
-28 40 -57 43 -64 3 -7 15 -18 28 -24 13 -5 31 -25 40 -44 9 -18 26 -47 36
-64 18 -28 20 -53 22 -282 3 -295 9 -281 -106 -282 -62 0 -74 3 -122 35 -90
60 -117 110 -90 163 9 17 16 40 16 50 0 11 6 25 14 31 12 11 18 35 32 136 3
22 5 94 5 160 -1 66 -1 140 -1 164 0 45 13 71 34 71 6 0 29 -23 49 -50z m1538
-47 c15 -36 15 -204 0 -231 -6 -11 -11 -35 -11 -52 0 -17 -7 -47 -15 -67 -8
-19 -15 -44 -15 -55 0 -23 -40 -98 -52 -98 -4 0 -8 -8 -8 -17 0 -10 -9 -29
-20 -43 -19 -25 -19 -25 -34 -5 -25 33 -25 73 0 230 9 61 18 126 19 145 1 19
2 49 3 67 1 21 18 50 54 92 28 34 55 61 60 61 5 0 13 -12 19 -27z m663 -209
c-15 -102 -15 -124 0 -130 22 -8 20 -23 -6 -45 -28 -22 -54 -24 -62 -4 -3 8
-13 15 -23 15 -24 1 -55 45 -51 72 2 13 16 29 33 38 16 8 41 27 55 43 23 26
57 33 54 11z m-1617 -61 c21 -32 50 -71 66 -88 26 -29 48 -82 40 -97 -9 -17
-42 -7 -49 15 -4 12 -17 33 -30 46 -41 41 -94 129 -94 155 0 43 27 30 67 -31z
m213 -19 c0 -9 -84 -104 -92 -104 -5 0 -8 9 -8 20 0 20 32 60 49 60 5 0 11 7
15 15 5 14 36 22 36 9z m1223 -198 c26 -24 47 -48 47 -53 0 -29 -184 -184
-242 -204 -26 -10 -62 -25 -79 -33 -73 -37 -79 -1 -14 82 25 31 45 62 45 68 0
6 22 30 50 53 27 23 63 62 80 86 17 25 39 45 48 45 9 0 38 -20 65 -44z m-1453
-121 c52 -71 91 -141 83 -148 -11 -12 -50 -8 -61 6 -6 7 -27 44 -47 82 -19 39
-40 77 -47 86 -6 9 -8 24 -4 34 8 22 25 9 76 -60z m-840 -52 c14 -9 36 -26 50
-38 14 -13 50 -33 80 -46 30 -12 57 -24 60 -27 14 -11 -40 -32 -83 -32 -50 0
-86 -13 -100 -36 -4 -8 -17 -14 -27 -14 -22 0 -130 78 -130 94 0 11 108 116
119 116 4 0 18 -7 31 -17z m1658 -67 c5 -22 -30 -55 -69 -66 -17 -5 -69 -12
-115 -16 -82 -7 -113 -21 -99 -44 5 -8 27 -9 67 -5 69 8 71 -1 8 -34 -57 -30
-135 -40 -410 -52 -329 -14 -494 -24 -506 -31 -11 -8 -102 -9 -318 -4 l-159 3
-29 32 c-15 17 -28 35 -28 40 0 21 59 44 129 52 42 4 137 14 211 22 77 8 180
12 241 10 64 -4 160 1 245 10 76 9 213 18 304 22 176 6 287 19 359 41 25 8 56
14 70 14 14 0 37 7 51 14 31 17 44 15 48 -8z m-1795 -113 c38 -27 75 -59 82
-73 7 -14 23 -35 35 -48 12 -13 20 -26 17 -28 -5 -5 -67 23 -77 35 -3 3 -39
28 -80 56 -91 60 -104 73 -89 92 19 22 39 15 112 -34z"/>
<path d="M1442 2270 c-18 -16 -39 -30 -46 -30 -12 0 -189 -126 -252 -179 -17
-14 -48 -39 -70 -56 -70 -54 -123 -106 -130 -128 -3 -12 -17 -36 -30 -54 -27
-35 -31 -63 -11 -63 17 0 43 28 51 57 8 24 146 168 185 193 13 8 43 31 65 50
101 84 207 160 217 154 15 -9 10 -51 -6 -58 -8 -3 -15 -14 -15 -25 0 -11 -6
-26 -14 -33 -7 -8 -16 -27 -19 -43 -3 -17 -15 -66 -27 -110 -11 -44 -25 -98
-31 -120 -5 -22 -13 -49 -18 -60 -11 -24 -30 -118 -41 -198 -4 -31 -12 -63
-18 -70 -5 -6 -13 -34 -16 -62 -13 -93 -25 -113 -67 -117 -28 -2 -43 2 -54 14
-8 10 -23 18 -34 18 -22 0 -54 -44 -49 -67 5 -25 26 -27 33 -3 8 25 19 18 20
-12 0 -19 6 -22 45 -23 52 -2 80 9 80 31 0 9 13 28 28 44 29 28 40 63 77 230
9 41 23 98 31 126 8 28 14 62 14 76 0 14 7 42 15 61 8 20 15 58 15 85 0 32 5
54 15 62 9 7 15 30 15 54 0 22 7 50 15 60 8 11 15 32 15 47 0 14 7 32 15 39 8
7 15 22 15 33 0 11 7 28 15 37 18 19 24 61 10 66 -6 2 -25 -9 -43 -26z"/>
<path d="M891 1273 c0 -10 12 -28 27 -41 15 -12 40 -34 56 -48 30 -25 66 -29
73 -8 2 6 -16 19 -39 29 -24 11 -57 34 -73 52 -34 37 -45 41 -44 16z"/>
<path d="M1096 1194 c-4 -10 -1 -14 6 -12 15 5 23 28 10 28 -5 0 -13 -7 -16
-16z"/>
<path d="M3030 2785 c0 -8 5 -15 10 -15 6 0 10 7 10 15 0 8 -4 15 -10 15 -5 0
-10 -7 -10 -15z"/>
<path d="M3145 1786 c-17 -7 -71 -15 -120 -18 -69 -4 -99 -11 -127 -28 -70
-41 -41 -58 67 -40 64 11 77 10 106 -4 17 -9 37 -16 43 -16 19 0 88 90 82 105
-7 18 -12 18 -51 1z"/>
<path d="M1710 2074 c0 -14 4 -23 10 -19 6 3 10 15 10 26 0 10 -4 19 -10 19
-5 0 -10 -12 -10 -26z"/>
<path d="M2728 934 c-14 -13 -9 -42 8 -48 14 -5 104 7 152 20 25 7 5 29 -24
27 -16 -2 -33 -3 -39 -3 -5 -1 -28 2 -50 5 -22 4 -43 3 -47 -1z"/>
<path d="M2382 908 c-16 -16 -15 -45 2 -51 22 -9 139 14 156 30 24 22 -1 38
-40 25 -20 -8 -39 -8 -56 -2 -33 13 -47 13 -62 -2z"/>
<path d="M2048 893 c-11 -3 -18 -14 -18 -30 0 -23 3 -25 33 -19 17 4 58 9 90
13 39 4 57 10 57 19 0 10 -16 14 -59 14 -33 0 -65 2 -73 4 -7 2 -21 2 -30 -1z"/>
</g>
</svg>
